<svg width="296" height="68" viewBox="0 0 296 68" fill="none" xmlns="http://www.w3.org/2000/svg">
<rect x="0.5" y="0.5" width="295" height="67" rx="15.5" fill="url(#paint0_linear_77_559)" fill-opacity="0.3"/>
<rect x="0.5" y="0.5" width="295" height="67" rx="15.5" stroke="url(#paint1_linear_77_559)"/>
<rect x="0.5" y="0.5" width="295" height="67" rx="15.5" stroke="url(#paint2_linear_77_559)"/>
<path d="M70.364 41H67.748L65.948 36.392H59.204L57.404 41H54.788L61.964 23.264H63.26L70.364 41ZM65.132 34.136L62.588 27.44L60.02 34.136H65.132ZM74.5119 41H72.2079V28.136H74.4639V29.96C75.2799 28.52 76.6479 27.8 78.5439 27.8C79.9839 27.8 81.1839 28.256 82.1679 29.192C83.1519 30.128 83.6319 31.448 83.6319 33.2V41H81.3519V33.848C81.3519 31.352 80.0079 29.936 78.0639 29.936C77.0319 29.936 76.1679 30.296 75.4959 31.04C74.8479 31.784 74.5119 32.72 74.5119 33.872V41ZM94.1992 38.456L95.0632 40.232C94.1272 40.952 92.9992 41.312 91.6312 41.312C88.9192 41.312 87.5272 39.56 87.5272 36.488V30.104H85.2472V28.136H87.5512V23.576H89.8072V28.136H94.3672V30.104H89.8072V36.656C89.8072 38.36 90.5032 39.2 91.8952 39.2C92.6392 39.2 93.4072 38.96 94.1992 38.456ZM97.8654 26.312C96.9054 26.312 96.1854 25.616 96.1854 24.656C96.1854 23.72 96.9054 23.048 97.8654 23.048C98.7534 23.048 99.4974 23.768 99.4974 24.656C99.4974 25.616 98.7534 26.312 97.8654 26.312ZM98.9694 28.136V41H96.6654V28.136H98.9694ZM111.38 35.432H102.116V33.272H111.38V35.432ZM120.49 41.288C118.498 41.288 116.866 40.664 115.594 39.392C114.322 38.12 113.698 36.512 113.698 34.568C113.698 32.6 114.346 30.992 115.618 29.72C116.914 28.448 118.57 27.824 120.61 27.824C123.13 27.824 125.458 29.144 126.442 31.184L124.546 32.288C123.682 30.848 122.242 29.936 120.61 29.936C119.29 29.936 118.21 30.368 117.322 31.256C116.458 32.144 116.026 33.248 116.026 34.568C116.026 35.888 116.458 36.968 117.298 37.856C118.138 38.744 119.218 39.176 120.49 39.176C122.098 39.176 123.73 38.216 124.474 36.872L126.394 37.976C125.866 38.96 125.074 39.776 123.994 40.376C122.914 40.976 121.762 41.288 120.49 41.288ZM138.793 30.008V28.136H141.001V41H138.793V39.176C137.641 40.592 136.129 41.312 134.257 41.312C132.409 41.312 130.873 40.664 129.649 39.344C128.425 38.024 127.825 36.416 127.825 34.472C127.825 32.552 128.425 30.968 129.649 29.72C130.873 28.448 132.409 27.824 134.257 27.824C136.081 27.824 137.593 28.544 138.793 30.008ZM138.937 34.544C138.937 33.272 138.529 32.168 137.713 31.28C136.897 30.392 135.841 29.936 134.521 29.936C133.201 29.936 132.145 30.392 131.353 31.28C130.561 32.168 130.153 33.272 130.153 34.568C130.153 35.864 130.561 36.968 131.353 37.856C132.145 38.744 133.201 39.2 134.521 39.2C135.841 39.2 136.897 38.744 137.713 37.856C138.529 36.968 138.937 35.864 138.937 34.544ZM151.226 27.824C153.05 27.824 154.586 28.472 155.81 29.792C157.034 31.112 157.658 32.696 157.658 34.568C157.658 36.464 157.034 38.048 155.81 39.368C154.586 40.664 153.05 41.312 151.202 41.312C149.33 41.312 147.818 40.592 146.642 39.128V46.304H144.338V28.136H146.642V30.08C147.842 28.568 149.378 27.824 151.226 27.824ZM155.354 34.544C155.354 33.248 154.946 32.168 154.13 31.28C153.314 30.392 152.258 29.936 150.938 29.936C149.618 29.936 148.562 30.392 147.746 31.28C146.954 32.168 146.546 33.272 146.546 34.544C146.546 35.864 146.954 36.968 147.746 37.856C148.562 38.744 149.618 39.2 150.938 39.2C152.258 39.2 153.314 38.744 154.13 37.856C154.946 36.968 155.354 35.864 155.354 34.544ZM161.376 26.312C160.416 26.312 159.696 25.616 159.696 24.656C159.696 23.72 160.416 23.048 161.376 23.048C162.264 23.048 163.008 23.768 163.008 24.656C163.008 25.616 162.264 26.312 161.376 26.312ZM162.48 28.136V41H160.176V28.136H162.48ZM173.355 38.456L174.219 40.232C173.283 40.952 172.155 41.312 170.787 41.312C168.075 41.312 166.683 39.56 166.683 36.488V30.104H164.403V28.136H166.707V23.576H168.963V28.136H173.523V30.104H168.963V36.656C168.963 38.36 169.659 39.2 171.051 39.2C171.795 39.2 172.563 38.96 173.355 38.456ZM185.81 30.008V28.136H188.018V41H185.81V39.176C184.658 40.592 183.146 41.312 181.274 41.312C179.426 41.312 177.89 40.664 176.666 39.344C175.442 38.024 174.842 36.416 174.842 34.472C174.842 32.552 175.442 30.968 176.666 29.72C177.89 28.448 179.426 27.824 181.274 27.824C183.098 27.824 184.61 28.544 185.81 30.008ZM185.954 34.544C185.954 33.272 185.546 32.168 184.73 31.28C183.914 30.392 182.858 29.936 181.538 29.936C180.218 29.936 179.162 30.392 178.37 31.28C177.578 32.168 177.17 33.272 177.17 34.568C177.17 35.864 177.578 36.968 178.37 37.856C179.162 38.744 180.218 39.2 181.538 39.2C182.858 39.2 183.914 38.744 184.73 37.856C185.546 36.968 185.954 35.864 185.954 34.544ZM193.659 22.832V41H191.355V22.832H193.659ZM198.198 26.312C197.238 26.312 196.518 25.616 196.518 24.656C196.518 23.72 197.238 23.048 198.198 23.048C199.086 23.048 199.83 23.768 199.83 24.656C199.83 25.616 199.086 26.312 198.198 26.312ZM199.302 28.136V41H196.998V28.136H199.302ZM206.24 41.288C204.32 41.288 202.448 40.352 201.464 38.504L203.12 37.232C203.864 38.6 205.136 39.272 206.312 39.272C207.68 39.272 208.592 38.48 208.592 37.496C208.592 36.824 208.208 36.272 207.416 35.864C207.152 35.72 206.6 35.48 205.808 35.144C205.016 34.808 204.488 34.568 204.224 34.424C202.904 33.704 202.256 32.672 202.256 31.304C202.256 30.272 202.64 29.408 203.408 28.736C204.176 28.04 205.184 27.704 206.456 27.704C208.088 27.704 209.672 28.4 210.536 29.744L209.072 31.136C208.376 30.152 207.464 29.648 206.312 29.648C205.16 29.648 204.464 30.344 204.464 31.208C204.464 31.88 204.824 32.384 205.544 32.72L206.96 33.344C207.728 33.656 208.304 33.92 208.688 34.136C210.152 34.88 210.872 35.96 210.872 37.376C210.872 38.48 210.44 39.416 209.576 40.16C208.712 40.904 207.608 41.288 206.24 41.288ZM220.718 38.456L221.582 40.232C220.646 40.952 219.518 41.312 218.15 41.312C215.438 41.312 214.046 39.56 214.046 36.488V30.104H211.766V28.136H214.07V23.576H216.326V28.136H220.886V30.104H216.326V36.656C216.326 38.36 217.022 39.2 218.414 39.2C219.158 39.2 219.926 38.96 220.718 38.456ZM224.384 26.312C223.424 26.312 222.704 25.616 222.704 24.656C222.704 23.72 223.424 23.048 224.384 23.048C225.272 23.048 226.016 23.768 226.016 24.656C226.016 25.616 225.272 26.312 224.384 26.312ZM225.488 28.136V41H223.184V28.136H225.488ZM234.827 41.288C232.835 41.288 231.203 40.664 229.931 39.392C228.659 38.12 228.035 36.512 228.035 34.568C228.035 32.6 228.683 30.992 229.955 29.72C231.251 28.448 232.907 27.824 234.947 27.824C237.467 27.824 239.795 29.144 240.779 31.184L238.883 32.288C238.019 30.848 236.579 29.936 234.947 29.936C233.627 29.936 232.547 30.368 231.659 31.256C230.795 32.144 230.363 33.248 230.363 34.568C230.363 35.888 230.795 36.968 231.635 37.856C232.475 38.744 233.555 39.176 234.827 39.176C236.435 39.176 238.067 38.216 238.811 36.872L240.731 37.976C240.203 38.96 239.411 39.776 238.331 40.376C237.251 40.976 236.099 41.288 234.827 41.288Z" fill="#FFF5E1"/>
<defs>
<linearGradient id="paint0_linear_77_559" x1="0" y1="34" x2="296" y2="34" gradientUnits="userSpaceOnUse">
<stop stop-color="#420000"/>
<stop offset="1" stop-color="#E7134F"/>
</linearGradient>
<linearGradient id="paint1_linear_77_559" x1="0" y1="34" x2="296" y2="34" gradientUnits="userSpaceOnUse">
<stop stop-color="#CA7803"/>
<stop offset="1" stop-color="#623A00" stop-opacity="0.04"/>
</linearGradient>
<linearGradient id="paint2_linear_77_559" x1="0" y1="34" x2="296" y2="34" gradientUnits="userSpaceOnUse">
<stop stop-color="#FFCE2B"/>
<stop offset="1" stop-color="#E7165F"/>
</linearGradient>
</defs>
</svg>
