<svg width="235" height="68" viewBox="0 0 235 68" fill="none" xmlns="http://www.w3.org/2000/svg">
<rect x="0.5" y="0.5" width="234" height="67" rx="15.5" fill="url(#paint0_linear_77_562)" fill-opacity="0.3"/>
<rect x="0.5" y="0.5" width="234" height="67" rx="15.5" stroke="url(#paint1_linear_77_562)"/>
<rect x="0.5" y="0.5" width="234" height="67" rx="15.5" stroke="url(#paint2_linear_77_562)"/>
<path d="M39.864 41H37.248L35.448 36.392H28.704L26.904 41H24.288L31.464 23.264H32.76L39.864 41ZM34.632 34.136L32.088 27.44L29.52 34.136H34.632ZM44.0119 41H41.7079V28.136H43.9639V29.96C44.7799 28.52 46.1479 27.8 48.0439 27.8C49.4839 27.8 50.6839 28.256 51.6679 29.192C52.6519 30.128 53.1319 31.448 53.1319 33.2V41H50.8519V33.848C50.8519 31.352 49.5079 29.936 47.5639 29.936C46.5319 29.936 45.6679 30.296 44.9959 31.04C44.3479 31.784 44.0119 32.72 44.0119 33.872V41ZM63.6992 38.456L64.5632 40.232C63.6272 40.952 62.4992 41.312 61.1312 41.312C58.4192 41.312 57.0272 39.56 57.0272 36.488V30.104H54.7472V28.136H57.0512V23.576H59.3072V28.136H63.8672V30.104H59.3072V36.656C59.3072 38.36 60.0032 39.2 61.3952 39.2C62.1392 39.2 62.9072 38.96 63.6992 38.456ZM67.3654 26.312C66.4054 26.312 65.6854 25.616 65.6854 24.656C65.6854 23.72 66.4054 23.048 67.3654 23.048C68.2534 23.048 68.9974 23.768 68.9974 24.656C68.9974 25.616 68.2534 26.312 67.3654 26.312ZM68.4694 28.136V41H66.1654V28.136H68.4694ZM80.8802 35.432H71.6162V33.272H80.8802V35.432ZM89.9901 41.288C87.9981 41.288 86.3661 40.664 85.0941 39.392C83.8221 38.12 83.1981 36.512 83.1981 34.568C83.1981 32.6 83.8461 30.992 85.1181 29.72C86.4141 28.448 88.0701 27.824 90.1101 27.824C92.6301 27.824 94.9581 29.144 95.9421 31.184L94.0461 32.288C93.1821 30.848 91.7421 29.936 90.1101 29.936C88.7901 29.936 87.7101 30.368 86.8221 31.256C85.9581 32.144 85.5261 33.248 85.5261 34.568C85.5261 35.888 85.9581 36.968 86.7981 37.856C87.6381 38.744 88.7181 39.176 89.9901 39.176C91.5981 39.176 93.2301 38.216 93.9741 36.872L95.8941 37.976C95.3661 38.96 94.5741 39.776 93.4941 40.376C92.4141 40.976 91.2621 41.288 89.9901 41.288ZM108.293 30.008V28.136H110.501V41H108.293V39.176C107.141 40.592 105.629 41.312 103.757 41.312C101.909 41.312 100.373 40.664 99.1492 39.344C97.9252 38.024 97.3252 36.416 97.3252 34.472C97.3252 32.552 97.9252 30.968 99.1492 29.72C100.373 28.448 101.909 27.824 103.757 27.824C105.581 27.824 107.093 28.544 108.293 30.008ZM108.437 34.544C108.437 33.272 108.029 32.168 107.213 31.28C106.397 30.392 105.341 29.936 104.021 29.936C102.701 29.936 101.645 30.392 100.853 31.28C100.061 32.168 99.6532 33.272 99.6532 34.568C99.6532 35.864 100.061 36.968 100.853 37.856C101.645 38.744 102.701 39.2 104.021 39.2C105.341 39.2 106.397 38.744 107.213 37.856C108.029 36.968 108.437 35.864 108.437 34.544ZM120.726 27.824C122.55 27.824 124.086 28.472 125.31 29.792C126.534 31.112 127.158 32.696 127.158 34.568C127.158 36.464 126.534 38.048 125.31 39.368C124.086 40.664 122.55 41.312 120.702 41.312C118.83 41.312 117.318 40.592 116.142 39.128V46.304H113.838V28.136H116.142V30.08C117.342 28.568 118.878 27.824 120.726 27.824ZM124.854 34.544C124.854 33.248 124.446 32.168 123.63 31.28C122.814 30.392 121.758 29.936 120.438 29.936C119.118 29.936 118.062 30.392 117.246 31.28C116.454 32.168 116.046 33.272 116.046 34.544C116.046 35.864 116.454 36.968 117.246 37.856C118.062 38.744 119.118 39.2 120.438 39.2C121.758 39.2 122.814 38.744 123.63 37.856C124.446 36.968 124.854 35.864 124.854 34.544ZM130.876 26.312C129.916 26.312 129.196 25.616 129.196 24.656C129.196 23.72 129.916 23.048 130.876 23.048C131.764 23.048 132.508 23.768 132.508 24.656C132.508 25.616 131.764 26.312 130.876 26.312ZM131.98 28.136V41H129.676V28.136H131.98ZM142.855 38.456L143.719 40.232C142.783 40.952 141.655 41.312 140.287 41.312C137.575 41.312 136.183 39.56 136.183 36.488V30.104H133.903V28.136H136.207V23.576H138.463V28.136H143.023V30.104H138.463V36.656C138.463 38.36 139.159 39.2 140.551 39.2C141.295 39.2 142.063 38.96 142.855 38.456ZM155.31 30.008V28.136H157.518V41H155.31V39.176C154.158 40.592 152.646 41.312 150.774 41.312C148.926 41.312 147.39 40.664 146.166 39.344C144.942 38.024 144.342 36.416 144.342 34.472C144.342 32.552 144.942 30.968 146.166 29.72C147.39 28.448 148.926 27.824 150.774 27.824C152.598 27.824 154.11 28.544 155.31 30.008ZM155.454 34.544C155.454 33.272 155.046 32.168 154.23 31.28C153.414 30.392 152.358 29.936 151.038 29.936C149.718 29.936 148.662 30.392 147.87 31.28C147.078 32.168 146.67 33.272 146.67 34.568C146.67 35.864 147.078 36.968 147.87 37.856C148.662 38.744 149.718 39.2 151.038 39.2C152.358 39.2 153.414 38.744 154.23 37.856C155.046 36.968 155.454 35.864 155.454 34.544ZM163.159 22.832V41H160.855V22.832H163.159ZM167.698 26.312C166.738 26.312 166.018 25.616 166.018 24.656C166.018 23.72 166.738 23.048 167.698 23.048C168.586 23.048 169.33 23.768 169.33 24.656C169.33 25.616 168.586 26.312 167.698 26.312ZM168.802 28.136V41H166.498V28.136H168.802ZM175.74 41.288C173.82 41.288 171.948 40.352 170.964 38.504L172.62 37.232C173.364 38.6 174.636 39.272 175.812 39.272C177.18 39.272 178.092 38.48 178.092 37.496C178.092 36.824 177.708 36.272 176.916 35.864C176.652 35.72 176.1 35.48 175.308 35.144C174.516 34.808 173.988 34.568 173.724 34.424C172.404 33.704 171.756 32.672 171.756 31.304C171.756 30.272 172.14 29.408 172.908 28.736C173.676 28.04 174.684 27.704 175.956 27.704C177.588 27.704 179.172 28.4 180.036 29.744L178.572 31.136C177.876 30.152 176.964 29.648 175.812 29.648C174.66 29.648 173.964 30.344 173.964 31.208C173.964 31.88 174.324 32.384 175.044 32.72L176.46 33.344C177.228 33.656 177.804 33.92 178.188 34.136C179.652 34.88 180.372 35.96 180.372 37.376C180.372 38.48 179.94 39.416 179.076 40.16C178.212 40.904 177.108 41.288 175.74 41.288ZM190.218 38.456L191.082 40.232C190.146 40.952 189.018 41.312 187.65 41.312C184.938 41.312 183.546 39.56 183.546 36.488V30.104H181.266V28.136H183.57V23.576H185.826V28.136H190.386V30.104H185.826V36.656C185.826 38.36 186.522 39.2 187.914 39.2C188.658 39.2 189.426 38.96 190.218 38.456ZM193.884 26.312C192.924 26.312 192.204 25.616 192.204 24.656C192.204 23.72 192.924 23.048 193.884 23.048C194.772 23.048 195.516 23.768 195.516 24.656C195.516 25.616 194.772 26.312 193.884 26.312ZM194.988 28.136V41H192.684V28.136H194.988ZM204.327 41.288C202.335 41.288 200.703 40.664 199.431 39.392C198.159 38.12 197.535 36.512 197.535 34.568C197.535 32.6 198.183 30.992 199.455 29.72C200.751 28.448 202.407 27.824 204.447 27.824C206.967 27.824 209.295 29.144 210.279 31.184L208.383 32.288C207.519 30.848 206.079 29.936 204.447 29.936C203.127 29.936 202.047 30.368 201.159 31.256C200.295 32.144 199.863 33.248 199.863 34.568C199.863 35.888 200.295 36.968 201.135 37.856C201.975 38.744 203.055 39.176 204.327 39.176C205.935 39.176 207.567 38.216 208.311 36.872L210.231 37.976C209.703 38.96 208.911 39.776 207.831 40.376C206.751 40.976 205.599 41.288 204.327 41.288Z" fill="#FFF5E1"/>
<defs>
<linearGradient id="paint0_linear_77_562" x1="0" y1="34" x2="235" y2="34" gradientUnits="userSpaceOnUse">
<stop stop-color="#420000"/>
<stop offset="1" stop-color="#E7134F"/>
</linearGradient>
<linearGradient id="paint1_linear_77_562" x1="0" y1="34" x2="235" y2="34" gradientUnits="userSpaceOnUse">
<stop stop-color="#CA7803"/>
<stop offset="1" stop-color="#623A00" stop-opacity="0.04"/>
</linearGradient>
<linearGradient id="paint2_linear_77_562" x1="0" y1="34" x2="235" y2="34" gradientUnits="userSpaceOnUse">
<stop stop-color="#FFCE2B"/>
<stop offset="1" stop-color="#E7165F"/>
</linearGradient>
</defs>
</svg>
