<svg width="22" height="34" viewBox="0 0 22 34" fill="none" xmlns="http://www.w3.org/2000/svg">
<path d="M20.8496 17.1621L13.0371 25.7559C12.8906 25.9512 12.6953 26 12.5 26C12.3047 26 12.1094 25.9512 11.9629 25.8047C11.6211 25.5117 11.6211 25.0234 11.9141 24.7305L18.5059 17.4062H0.78125C0.341797 17.4062 0 17.0645 0 16.6738C0 16.2832 0.341797 15.8438 0.78125 15.8438H18.5059L11.9141 8.56836C11.6211 8.27539 11.6211 7.78711 11.9629 7.49414C12.2559 7.20117 12.7441 7.20117 13.0371 7.54297L20.8496 16.1367C21.1426 16.4297 21.1426 16.8691 20.8496 17.1621Z" fill="#FFCE2B"/>
</svg>
