<svg width="557" height="68" viewBox="0 0 557 68" fill="none" xmlns="http://www.w3.org/2000/svg">
<rect x="0.5" y="0.5" width="556" height="67" rx="15.5" fill="url(#paint0_linear_77_565)" fill-opacity="0.3"/>
<rect x="0.5" y="0.5" width="556" height="67" rx="15.5" stroke="url(#paint1_linear_77_565)"/>
<rect x="0.5" y="0.5" width="556" height="67" rx="15.5" stroke="url(#paint2_linear_77_565)"/>
<path d="M35.712 31.304C37.896 31.904 39.048 33.776 39.048 35.912C39.048 37.28 38.568 38.48 37.584 39.488C36.624 40.496 35.28 41 33.552 41H26.232V23.264H33.24C34.776 23.264 35.976 23.72 36.816 24.608C37.68 25.496 38.112 26.528 38.112 27.704C38.112 29.312 37.176 30.752 35.712 31.304ZM32.928 25.496H28.608V30.44H32.856C34.608 30.44 35.664 29.216 35.664 27.848C35.664 26.6 34.632 25.496 32.928 25.496ZM28.608 38.744H33.168C34.2 38.744 35.04 38.456 35.64 37.856C36.264 37.256 36.576 36.536 36.576 35.744C36.576 34.04 35.304 32.624 33.072 32.624H28.608V38.744ZM43.965 41H41.661V28.136H43.845V30.032C44.589 28.544 45.837 27.8 47.541 27.8C48.045 27.8 48.549 27.872 49.053 27.992L48.837 30.224C48.381 30.08 47.925 30.008 47.493 30.008C45.453 30.008 43.965 31.424 43.965 34.184V41ZM51.9491 26.312C50.9891 26.312 50.2691 25.616 50.2691 24.656C50.2691 23.72 50.9891 23.048 51.9491 23.048C52.8371 23.048 53.5811 23.768 53.5811 24.656C53.5811 25.616 52.8371 26.312 51.9491 26.312ZM53.0531 28.136V41H50.7491V28.136H53.0531ZM58.6959 41H56.3919V28.136H58.6479V29.96C59.4639 28.52 60.8319 27.8 62.7279 27.8C64.1679 27.8 65.3679 28.256 66.3519 29.192C67.3359 30.128 67.8159 31.448 67.8159 33.2V41H65.5359V33.848C65.5359 31.352 64.1919 29.936 62.2479 29.936C61.2159 29.936 60.3519 30.296 59.6799 31.04C59.0319 31.784 58.6959 32.72 58.6959 33.872V41ZM81.1639 29.816V28.136H83.4439V39.68C83.4439 41.768 82.8199 43.4 81.5719 44.624C80.3239 45.848 78.6439 46.472 76.5559 46.472C74.4679 46.472 72.5719 45.872 70.8679 44.648L71.9479 42.824C73.3399 43.856 74.8759 44.384 76.5319 44.384C77.9479 44.384 79.0759 43.976 79.9159 43.16C80.7559 42.368 81.1639 41.336 81.1639 40.064V39.008C80.0119 40.352 78.4999 41.024 76.6519 41.024C74.8039 41.024 73.2679 40.4 72.0439 39.128C70.8199 37.856 70.1959 36.296 70.1959 34.4C70.1959 32.528 70.8199 30.968 72.0919 29.72C73.3639 28.448 74.9239 27.824 76.7719 27.824C78.5479 27.824 80.0119 28.496 81.1639 29.816ZM73.7719 37.664C74.6119 38.528 75.6439 38.96 76.9159 38.96C78.1879 38.96 79.2199 38.528 80.0599 37.664C80.8999 36.8 81.3079 35.72 81.3079 34.424C81.3079 33.128 80.8999 32.048 80.0599 31.208C79.2199 30.344 78.1879 29.912 76.9159 29.912C75.6439 29.912 74.6119 30.344 73.7719 31.208C72.9319 32.048 72.5239 33.128 72.5239 34.424C72.5239 35.72 72.9319 36.8 73.7719 37.664ZM87.9557 26.312C86.9957 26.312 86.2757 25.616 86.2757 24.656C86.2757 23.72 86.9957 23.048 87.9557 23.048C88.8437 23.048 89.5877 23.768 89.5877 24.656C89.5877 25.616 88.8437 26.312 87.9557 26.312ZM89.0597 28.136V41H86.7557V28.136H89.0597ZM94.7025 41H92.3985V28.136H94.6545V29.96C95.4705 28.52 96.8385 27.8 98.7345 27.8C100.174 27.8 101.374 28.256 102.358 29.192C103.342 30.128 103.822 31.448 103.822 33.2V41H101.542V33.848C101.542 31.352 100.198 29.936 98.2545 29.936C97.2225 29.936 96.3585 30.296 95.6865 31.04C95.0385 31.784 94.7025 32.72 94.7025 33.872V41ZM117.17 29.816V28.136H119.45V39.68C119.45 41.768 118.826 43.4 117.578 44.624C116.33 45.848 114.65 46.472 112.562 46.472C110.474 46.472 108.578 45.872 106.874 44.648L107.954 42.824C109.346 43.856 110.882 44.384 112.538 44.384C113.954 44.384 115.082 43.976 115.922 43.16C116.762 42.368 117.17 41.336 117.17 40.064V39.008C116.018 40.352 114.506 41.024 112.658 41.024C110.81 41.024 109.274 40.4 108.05 39.128C106.826 37.856 106.202 36.296 106.202 34.4C106.202 32.528 106.826 30.968 108.098 29.72C109.37 28.448 110.93 27.824 112.778 27.824C114.554 27.824 116.018 28.496 117.17 29.816ZM109.778 37.664C110.618 38.528 111.65 38.96 112.922 38.96C114.194 38.96 115.226 38.528 116.066 37.664C116.906 36.8 117.314 35.72 117.314 34.424C117.314 33.128 116.906 32.048 116.066 31.208C115.226 30.344 114.194 29.912 112.922 29.912C111.65 29.912 110.618 30.344 109.778 31.208C108.938 32.048 108.53 33.128 108.53 34.424C108.53 35.72 108.938 36.8 109.778 37.664ZM134.428 41.312C132.46 41.312 130.828 40.664 129.556 39.368C128.284 38.048 127.66 36.44 127.66 34.544C127.66 32.648 128.284 31.064 129.556 29.768C130.828 28.448 132.46 27.8 134.428 27.8C136.372 27.8 137.98 28.448 139.252 29.768C140.524 31.088 141.172 32.672 141.172 34.544C141.172 36.44 140.524 38.048 139.252 39.368C137.98 40.664 136.372 41.312 134.428 41.312ZM138.868 34.544C138.868 33.272 138.436 32.192 137.572 31.304C136.708 30.392 135.652 29.936 134.428 29.936C133.204 29.936 132.148 30.392 131.284 31.304C130.42 32.192 129.988 33.272 129.988 34.544C129.988 35.816 130.42 36.92 131.284 37.832C132.148 38.744 133.204 39.2 134.428 39.2C135.652 39.2 136.708 38.744 137.572 37.832C138.436 36.92 138.868 35.816 138.868 34.544ZM149.033 41.312C145.673 41.312 143.513 39.176 143.513 35.816V28.136H145.817V35.744C145.817 37.856 147.017 39.176 149.033 39.176C151.073 39.176 152.273 37.856 152.273 35.744V28.136H154.553V35.816C154.553 39.248 152.465 41.312 149.033 41.312ZM165.25 38.456L166.114 40.232C165.178 40.952 164.05 41.312 162.682 41.312C159.97 41.312 158.578 39.56 158.578 36.488V30.104H156.298V28.136H158.602V23.576H160.858V28.136H165.418V30.104H160.858V36.656C160.858 38.36 161.554 39.2 162.946 39.2C163.69 39.2 164.458 38.96 165.25 38.456ZM171.316 41.288C169.396 41.288 167.524 40.352 166.54 38.504L168.196 37.232C168.94 38.6 170.212 39.272 171.388 39.272C172.756 39.272 173.668 38.48 173.668 37.496C173.668 36.824 173.284 36.272 172.492 35.864C172.228 35.72 171.676 35.48 170.884 35.144C170.092 34.808 169.564 34.568 169.3 34.424C167.98 33.704 167.332 32.672 167.332 31.304C167.332 30.272 167.716 29.408 168.484 28.736C169.252 28.04 170.26 27.704 171.532 27.704C173.164 27.704 174.748 28.4 175.612 29.744L174.148 31.136C173.452 30.152 172.54 29.648 171.388 29.648C170.236 29.648 169.54 30.344 169.54 31.208C169.54 31.88 169.9 32.384 170.62 32.72L172.036 33.344C172.804 33.656 173.38 33.92 173.764 34.136C175.228 34.88 175.948 35.96 175.948 37.376C175.948 38.48 175.516 39.416 174.652 40.16C173.788 40.904 172.684 41.288 171.316 41.288ZM179.575 26.312C178.615 26.312 177.895 25.616 177.895 24.656C177.895 23.72 178.615 23.048 179.575 23.048C180.463 23.048 181.207 23.768 181.207 24.656C181.207 25.616 180.463 26.312 179.575 26.312ZM180.679 28.136V41H178.375V28.136H180.679ZM194.17 30.008V22.832H196.474V41H194.17V39.2C193.042 40.616 191.554 41.312 189.706 41.312C187.834 41.312 186.274 40.664 185.05 39.368C183.826 38.048 183.226 36.44 183.226 34.544C183.226 32.672 183.826 31.088 185.05 29.792C186.274 28.472 187.81 27.824 189.658 27.824C191.506 27.824 192.994 28.544 194.17 30.008ZM194.338 34.544C194.338 33.272 193.93 32.168 193.114 31.28C192.322 30.392 191.266 29.936 189.946 29.936C188.626 29.936 187.57 30.392 186.754 31.28C185.962 32.168 185.554 33.272 185.554 34.544C185.554 35.864 185.962 36.968 186.754 37.856C187.57 38.744 188.626 39.2 189.946 39.2C191.266 39.2 192.322 38.744 193.114 37.856C193.93 36.968 194.338 35.864 194.338 34.544ZM211.737 34.328C211.737 34.496 211.713 34.88 211.665 35.504H201.417C201.801 37.688 203.241 39.176 205.929 39.176C207.465 39.176 209.241 38.6 210.417 37.736L211.401 39.488C210.129 40.472 208.017 41.288 205.881 41.288C201.033 41.288 199.017 37.856 199.017 34.52C199.017 32.576 199.617 30.992 200.817 29.72C202.041 28.448 203.601 27.824 205.521 27.824C207.345 27.824 208.833 28.4 209.985 29.576C211.161 30.752 211.737 32.336 211.737 34.328ZM201.417 33.512H209.361C209.241 31.28 207.633 29.864 205.521 29.864C203.409 29.864 201.801 31.376 201.417 33.512ZM216.521 41H214.217V28.136H216.401V30.032C217.145 28.544 218.393 27.8 220.097 27.8C220.601 27.8 221.105 27.872 221.609 27.992L221.393 30.224C220.937 30.08 220.481 30.008 220.049 30.008C218.009 30.008 216.521 31.424 216.521 34.184V41ZM226.718 41.288C224.798 41.288 222.926 40.352 221.942 38.504L223.598 37.232C224.342 38.6 225.614 39.272 226.79 39.272C228.158 39.272 229.07 38.48 229.07 37.496C229.07 36.824 228.686 36.272 227.894 35.864C227.63 35.72 227.078 35.48 226.286 35.144C225.494 34.808 224.966 34.568 224.702 34.424C223.382 33.704 222.734 32.672 222.734 31.304C222.734 30.272 223.118 29.408 223.886 28.736C224.654 28.04 225.662 27.704 226.934 27.704C228.566 27.704 230.15 28.4 231.014 29.744L229.55 31.136C228.854 30.152 227.942 29.648 226.79 29.648C225.638 29.648 224.942 30.344 224.942 31.208C224.942 31.88 225.302 32.384 226.022 32.72L227.438 33.344C228.206 33.656 228.782 33.92 229.166 34.136C230.63 34.88 231.35 35.96 231.35 37.376C231.35 38.48 230.918 39.416 230.054 40.16C229.19 40.904 228.086 41.288 226.718 41.288ZM246.627 38.456L247.491 40.232C246.555 40.952 245.427 41.312 244.059 41.312C241.347 41.312 239.955 39.56 239.955 36.488V30.104H237.675V28.136H239.979V23.576H242.235V28.136H246.795V30.104H242.235V36.656C242.235 38.36 242.931 39.2 244.323 39.2C245.067 39.2 245.835 38.96 246.627 38.456ZM254.882 41.312C252.914 41.312 251.282 40.664 250.01 39.368C248.738 38.048 248.114 36.44 248.114 34.544C248.114 32.648 248.738 31.064 250.01 29.768C251.282 28.448 252.914 27.8 254.882 27.8C256.826 27.8 258.434 28.448 259.706 29.768C260.978 31.088 261.626 32.672 261.626 34.544C261.626 36.44 260.978 38.048 259.706 39.368C258.434 40.664 256.826 41.312 254.882 41.312ZM259.322 34.544C259.322 33.272 258.89 32.192 258.026 31.304C257.162 30.392 256.106 29.936 254.882 29.936C253.658 29.936 252.602 30.392 251.738 31.304C250.874 32.192 250.442 33.272 250.442 34.544C250.442 35.816 250.874 36.92 251.738 37.832C252.602 38.744 253.658 39.2 254.882 39.2C256.106 39.2 257.162 38.744 258.026 37.832C258.89 36.92 259.322 35.816 259.322 34.544ZM275.824 41.288C273.832 41.288 272.2 40.664 270.928 39.392C269.656 38.12 269.032 36.512 269.032 34.568C269.032 32.6 269.68 30.992 270.952 29.72C272.248 28.448 273.904 27.824 275.944 27.824C278.464 27.824 280.792 29.144 281.776 31.184L279.88 32.288C279.016 30.848 277.576 29.936 275.944 29.936C274.624 29.936 273.544 30.368 272.656 31.256C271.792 32.144 271.36 33.248 271.36 34.568C271.36 35.888 271.792 36.968 272.632 37.856C273.472 38.744 274.552 39.176 275.824 39.176C277.432 39.176 279.064 38.216 279.808 36.872L281.728 37.976C281.2 38.96 280.408 39.776 279.328 40.376C278.248 40.976 277.096 41.288 275.824 41.288ZM286.255 41H283.951V28.136H286.135V30.032C286.879 28.544 288.127 27.8 289.831 27.8C290.335 27.8 290.839 27.872 291.343 27.992L291.127 30.224C290.671 30.08 290.215 30.008 289.783 30.008C287.743 30.008 286.255 31.424 286.255 34.184V41ZM298.692 37.784L302.148 28.136H304.692L299.292 42.44C298.212 45.32 296.844 46.472 294.828 46.472C293.988 46.472 293.316 46.304 292.764 45.968L293.052 43.952C293.652 44.216 294.18 44.336 294.612 44.336C295.668 44.336 296.508 43.592 297.156 42.08L297.636 40.952L292.044 28.136H294.708L298.692 37.784ZM313.469 27.824C315.293 27.824 316.829 28.472 318.053 29.792C319.277 31.112 319.901 32.696 319.901 34.568C319.901 36.464 319.277 38.048 318.053 39.368C316.829 40.664 315.293 41.312 313.445 41.312C311.573 41.312 310.061 40.592 308.885 39.128V46.304H306.581V28.136H308.885V30.08C310.085 28.568 311.621 27.824 313.469 27.824ZM317.597 34.544C317.597 33.248 317.189 32.168 316.373 31.28C315.557 30.392 314.501 29.936 313.181 29.936C311.861 29.936 310.805 30.392 309.989 31.28C309.197 32.168 308.789 33.272 308.789 34.544C308.789 35.864 309.197 36.968 309.989 37.856C310.805 38.744 311.861 39.2 313.181 39.2C314.501 39.2 315.557 38.744 316.373 37.856C317.189 36.968 317.597 35.864 317.597 34.544ZM329.744 38.456L330.608 40.232C329.672 40.952 328.544 41.312 327.176 41.312C324.464 41.312 323.072 39.56 323.072 36.488V30.104H320.792V28.136H323.096V23.576H325.352V28.136H329.912V30.104H325.352V36.656C325.352 38.36 326.048 39.2 327.44 39.2C328.184 39.2 328.952 38.96 329.744 38.456ZM337.999 41.312C336.031 41.312 334.399 40.664 333.127 39.368C331.855 38.048 331.231 36.44 331.231 34.544C331.231 32.648 331.855 31.064 333.127 29.768C334.399 28.448 336.031 27.8 337.999 27.8C339.943 27.8 341.551 28.448 342.823 29.768C344.095 31.088 344.743 32.672 344.743 34.544C344.743 36.44 344.095 38.048 342.823 39.368C341.551 40.664 339.943 41.312 337.999 41.312ZM342.439 34.544C342.439 33.272 342.007 32.192 341.143 31.304C340.279 30.392 339.223 29.936 337.999 29.936C336.775 29.936 335.719 30.392 334.855 31.304C333.991 32.192 333.559 33.272 333.559 34.544C333.559 35.816 333.991 36.92 334.855 37.832C335.719 38.744 336.775 39.2 337.999 39.2C339.223 39.2 340.279 38.744 341.143 37.832C342.007 36.92 342.439 35.816 342.439 34.544ZM347.625 43.952H345.369L356.697 21.2H358.953L347.625 43.952ZM374.805 27.8C376.365 27.8 377.613 28.304 378.549 29.312C379.485 30.296 379.941 31.64 379.941 33.344V41H377.637V33.704C377.637 31.304 376.461 29.936 374.541 29.936C372.525 29.936 371.109 31.472 371.109 33.752V41H368.829V33.752C368.829 31.352 367.629 29.936 365.709 29.936C363.693 29.936 362.253 31.472 362.253 33.8V41H359.949V28.136H362.205V30.032C362.973 28.616 364.389 27.776 366.093 27.8C367.821 27.8 369.429 28.688 370.125 30.2C370.989 28.736 372.789 27.8 374.805 27.8ZM393.252 30.008V28.136H395.46V41H393.252V39.176C392.1 40.592 390.588 41.312 388.716 41.312C386.868 41.312 385.332 40.664 384.108 39.344C382.884 38.024 382.284 36.416 382.284 34.472C382.284 32.552 382.884 30.968 384.108 29.72C385.332 28.448 386.868 27.824 388.716 27.824C390.54 27.824 392.052 28.544 393.252 30.008ZM393.396 34.544C393.396 33.272 392.988 32.168 392.172 31.28C391.356 30.392 390.3 29.936 388.98 29.936C387.66 29.936 386.604 30.392 385.812 31.28C385.02 32.168 384.612 33.272 384.612 34.568C384.612 35.864 385.02 36.968 385.812 37.856C386.604 38.744 387.66 39.2 388.98 39.2C390.3 39.2 391.356 38.744 392.172 37.856C392.988 36.968 393.396 35.864 393.396 34.544ZM402.397 41.288C400.477 41.288 398.605 40.352 397.621 38.504L399.277 37.232C400.021 38.6 401.293 39.272 402.469 39.272C403.837 39.272 404.749 38.48 404.749 37.496C404.749 36.824 404.365 36.272 403.573 35.864C403.309 35.72 402.757 35.48 401.965 35.144C401.173 34.808 400.645 34.568 400.381 34.424C399.061 33.704 398.413 32.672 398.413 31.304C398.413 30.272 398.797 29.408 399.565 28.736C400.333 28.04 401.341 27.704 402.613 27.704C404.245 27.704 405.829 28.4 406.693 29.744L405.229 31.136C404.533 30.152 403.621 29.648 402.469 29.648C401.317 29.648 400.621 30.344 400.621 31.208C400.621 31.88 400.981 32.384 401.701 32.72L403.117 33.344C403.885 33.656 404.461 33.92 404.845 34.136C406.309 34.88 407.029 35.96 407.029 37.376C407.029 38.48 406.597 39.416 405.733 40.16C404.869 40.904 403.765 41.288 402.397 41.288ZM413.032 41.288C411.112 41.288 409.24 40.352 408.256 38.504L409.912 37.232C410.656 38.6 411.928 39.272 413.104 39.272C414.472 39.272 415.384 38.48 415.384 37.496C415.384 36.824 415 36.272 414.208 35.864C413.944 35.72 413.392 35.48 412.6 35.144C411.808 34.808 411.28 34.568 411.016 34.424C409.696 33.704 409.048 32.672 409.048 31.304C409.048 30.272 409.432 29.408 410.2 28.736C410.968 28.04 411.976 27.704 413.248 27.704C414.88 27.704 416.464 28.4 417.328 29.744L415.864 31.136C415.168 30.152 414.256 29.648 413.104 29.648C411.952 29.648 411.256 30.344 411.256 31.208C411.256 31.88 411.616 32.384 412.336 32.72L413.752 33.344C414.52 33.656 415.096 33.92 415.48 34.136C416.944 34.88 417.664 35.96 417.664 37.376C417.664 38.48 417.232 39.416 416.368 40.16C415.504 40.904 414.4 41.288 413.032 41.288ZM435.956 30.008V28.136H438.164V41H435.956V39.176C434.804 40.592 433.292 41.312 431.42 41.312C429.572 41.312 428.036 40.664 426.812 39.344C425.588 38.024 424.988 36.416 424.988 34.472C424.988 32.552 425.588 30.968 426.812 29.72C428.036 28.448 429.572 27.824 431.42 27.824C433.244 27.824 434.756 28.544 435.956 30.008ZM436.1 34.544C436.1 33.272 435.692 32.168 434.876 31.28C434.06 30.392 433.004 29.936 431.684 29.936C430.364 29.936 429.308 30.392 428.516 31.28C427.724 32.168 427.316 33.272 427.316 34.568C427.316 35.864 427.724 36.968 428.516 37.856C429.308 38.744 430.364 39.2 431.684 39.2C433.004 39.2 434.06 38.744 434.876 37.856C435.692 36.968 436.1 35.864 436.1 34.544ZM451.653 30.008V22.832H453.957V41H451.653V39.2C450.525 40.616 449.037 41.312 447.189 41.312C445.317 41.312 443.757 40.664 442.533 39.368C441.309 38.048 440.709 36.44 440.709 34.544C440.709 32.672 441.309 31.088 442.533 29.792C443.757 28.472 445.293 27.824 447.141 27.824C448.989 27.824 450.477 28.544 451.653 30.008ZM451.821 34.544C451.821 33.272 451.413 32.168 450.597 31.28C449.805 30.392 448.749 29.936 447.429 29.936C446.109 29.936 445.053 30.392 444.237 31.28C443.445 32.168 443.037 33.272 443.037 34.544C443.037 35.864 443.445 36.968 444.237 37.856C445.053 38.744 446.109 39.2 447.429 39.2C448.749 39.2 449.805 38.744 450.597 37.856C451.413 36.968 451.821 35.864 451.821 34.544ZM463.245 41.312C461.277 41.312 459.645 40.664 458.373 39.368C457.101 38.048 456.477 36.44 456.477 34.544C456.477 32.648 457.101 31.064 458.373 29.768C459.645 28.448 461.277 27.8 463.245 27.8C465.189 27.8 466.797 28.448 468.069 29.768C469.341 31.088 469.989 32.672 469.989 34.544C469.989 36.44 469.341 38.048 468.069 39.368C466.797 40.664 465.189 41.312 463.245 41.312ZM467.685 34.544C467.685 33.272 467.253 32.192 466.389 31.304C465.525 30.392 464.469 29.936 463.245 29.936C462.021 29.936 460.965 30.392 460.101 31.304C459.237 32.192 458.805 33.272 458.805 34.544C458.805 35.816 459.237 36.92 460.101 37.832C460.965 38.744 462.021 39.2 463.245 39.2C464.469 39.2 465.525 38.744 466.389 37.832C467.253 36.92 467.685 35.816 467.685 34.544ZM479.386 27.824C481.21 27.824 482.746 28.472 483.97 29.792C485.194 31.112 485.818 32.696 485.818 34.568C485.818 36.464 485.194 38.048 483.97 39.368C482.746 40.664 481.21 41.312 479.362 41.312C477.49 41.312 475.978 40.592 474.802 39.128V46.304H472.498V28.136H474.802V30.08C476.002 28.568 477.538 27.824 479.386 27.824ZM483.514 34.544C483.514 33.248 483.106 32.168 482.29 31.28C481.474 30.392 480.418 29.936 479.098 29.936C477.778 29.936 476.722 30.392 475.906 31.28C475.114 32.168 474.706 33.272 474.706 34.544C474.706 35.864 475.114 36.968 475.906 37.856C476.722 38.744 477.778 39.2 479.098 39.2C480.418 39.2 481.474 38.744 482.29 37.856C483.106 36.968 483.514 35.864 483.514 34.544ZM495.661 38.456L496.525 40.232C495.589 40.952 494.461 41.312 493.093 41.312C490.381 41.312 488.989 39.56 488.989 36.488V30.104H486.709V28.136H489.013V23.576H491.269V28.136H495.829V30.104H491.269V36.656C491.269 38.36 491.965 39.2 493.357 39.2C494.101 39.2 494.869 38.96 495.661 38.456ZM499.327 26.312C498.367 26.312 497.647 25.616 497.647 24.656C497.647 23.72 498.367 23.048 499.327 23.048C500.215 23.048 500.959 23.768 500.959 24.656C500.959 25.616 500.215 26.312 499.327 26.312ZM500.431 28.136V41H498.127V28.136H500.431ZM509.746 41.312C507.778 41.312 506.146 40.664 504.874 39.368C503.602 38.048 502.978 36.44 502.978 34.544C502.978 32.648 503.602 31.064 504.874 29.768C506.146 28.448 507.778 27.8 509.746 27.8C511.69 27.8 513.298 28.448 514.57 29.768C515.842 31.088 516.49 32.672 516.49 34.544C516.49 36.44 515.842 38.048 514.57 39.368C513.298 40.664 511.69 41.312 509.746 41.312ZM514.186 34.544C514.186 33.272 513.754 32.192 512.89 31.304C512.026 30.392 510.97 29.936 509.746 29.936C508.522 29.936 507.466 30.392 506.602 31.304C505.738 32.192 505.306 33.272 505.306 34.544C505.306 35.816 505.738 36.92 506.602 37.832C507.466 38.744 508.522 39.2 509.746 39.2C510.97 39.2 512.026 38.744 512.89 37.832C513.754 36.92 514.186 35.816 514.186 34.544ZM521.303 41H518.999V28.136H521.255V29.96C522.071 28.52 523.439 27.8 525.335 27.8C526.775 27.8 527.975 28.256 528.959 29.192C529.943 30.128 530.423 31.448 530.423 33.2V41H528.143V33.848C528.143 31.352 526.799 29.936 524.855 29.936C523.823 29.936 522.959 30.296 522.287 31.04C521.639 31.784 521.303 32.72 521.303 33.872V41Z" fill="#FFF5E1"/>
<defs>
<linearGradient id="paint0_linear_77_565" x1="0" y1="34" x2="557" y2="34" gradientUnits="userSpaceOnUse">
<stop stop-color="#420000"/>
<stop offset="1" stop-color="#E7134F"/>
</linearGradient>
<linearGradient id="paint1_linear_77_565" x1="0" y1="34" x2="557" y2="34" gradientUnits="userSpaceOnUse">
<stop stop-color="#CA7803"/>
<stop offset="1" stop-color="#623A00" stop-opacity="0.04"/>
</linearGradient>
<linearGradient id="paint2_linear_77_565" x1="0" y1="34" x2="557" y2="34" gradientUnits="userSpaceOnUse">
<stop stop-color="#FFCE2B"/>
<stop offset="1" stop-color="#E7165F"/>
</linearGradient>
</defs>
</svg>
