<svg width="153" height="65" viewBox="0 0 153 65" fill="none" xmlns="http://www.w3.org/2000/svg">
<path d="M60.3035 32.2859C60.2733 31.5416 60.3908 30.7986 60.6493 30.0999C60.9077 29.4012 61.3019 28.7605 61.8092 28.2149C62.3165 27.6694 62.9268 27.2296 63.6049 26.9211C64.283 26.6126 65.0155 26.4415 65.76 26.4175H65.9914C68.8692 26.4175 70.5677 28.1103 71.0699 30.0909L69.2811 30.689C69.1204 29.951 68.6997 29.2953 68.0958 28.8416C67.4919 28.3879 66.745 28.1664 65.9914 28.2175C64.1293 28.2175 62.2615 29.5774 62.2615 32.3198C62.2615 35.0622 64.0842 36.3713 66.014 36.3713C66.7713 36.392 67.5138 36.158 68.1224 35.7069C68.7311 35.2557 69.1709 34.6135 69.3714 33.8828L71.1263 34.4471C70.8234 35.5617 70.1496 36.5397 69.2161 37.2198C68.2826 37.8999 67.1452 38.2415 65.9914 38.1882C64.5092 38.2154 63.0769 37.653 62.0092 36.6245C60.9416 35.596 60.326 34.1857 60.2979 32.7035C60.2922 32.5681 60.2979 32.427 60.3035 32.2859Z" fill="white"/>
<path d="M74.6079 37.9288H72.7571V26.3838H74.6079V30.898C74.8766 30.5793 75.2145 30.3262 75.5959 30.158C75.9773 29.9898 76.3921 29.9109 76.8086 29.9274C78.7215 29.9274 79.6299 31.2986 79.6299 33.0084V37.9288H77.8468V33.3356C77.9003 32.9441 77.7977 32.5472 77.5613 32.2306C77.3248 31.9139 76.9735 31.7028 76.5829 31.6428C76.4722 31.6315 76.3606 31.6315 76.2499 31.6428C75.8219 31.6428 75.4114 31.8129 75.1088 32.1155C74.8061 32.4182 74.6361 32.8286 74.6361 33.2566C74.6333 33.3036 74.6333 33.3507 74.6361 33.3977L74.6079 37.9288Z" fill="white"/>
<path d="M83.783 33.4824L85.7693 33.172C86.2207 33.1156 86.3335 32.8843 86.3335 32.6078C86.3335 31.9532 85.8934 31.4284 84.8664 31.4284C84.4786 31.3971 84.094 31.5199 83.7961 31.7702C83.4982 32.0206 83.311 32.3783 83.2752 32.7658V32.8504L81.5824 32.4723C81.7234 31.1294 82.9423 29.9331 84.8495 29.9331C87.242 29.9331 88.1505 31.2874 88.1505 32.8673V36.7213C88.1485 37.1389 88.1806 37.556 88.2464 37.9684H86.5536C86.4926 37.641 86.468 37.308 86.4803 36.9753C86.2233 37.3707 85.8672 37.6919 85.4474 37.9067C85.0276 38.1216 84.5588 38.2226 84.0877 38.1997C83.4444 38.2528 82.8062 38.0486 82.3133 37.6318C81.8203 37.215 81.5128 36.6197 81.4582 35.9765C81.4582 35.937 81.4582 35.8975 81.4582 35.8636C81.43 34.436 82.4513 33.6686 83.783 33.4824ZM86.3448 34.7294V34.3739L84.3191 34.6787C84.0441 34.6874 83.7831 34.802 83.5907 34.9987C83.3982 35.1953 83.2892 35.4587 83.2865 35.7338C83.2886 35.8702 83.3179 36.0047 83.3726 36.1296C83.4274 36.2545 83.5064 36.3672 83.6051 36.4612C83.7039 36.5553 83.8204 36.6287 83.9478 36.6772C84.0752 36.7257 84.211 36.7484 84.3473 36.7439H84.4319C84.6629 36.7681 84.8964 36.7463 85.1189 36.6799C85.3414 36.6134 85.5486 36.5036 85.7285 36.3567C85.9084 36.2099 86.0575 36.0289 86.1671 35.8242C86.2768 35.6195 86.3448 35.3951 86.3674 35.1639C86.3754 35.0185 86.366 34.8726 86.3392 34.7294H86.3448Z" fill="white"/>
<path d="M91.2991 26.2256C91.4582 26.2234 91.6161 26.2526 91.7638 26.3116C91.9116 26.3706 92.0462 26.4582 92.16 26.5693C92.2738 26.6805 92.3645 26.813 92.4269 26.9593C92.4893 27.1056 92.5221 27.2628 92.5236 27.4219C92.5236 27.66 92.4532 27.8928 92.3212 28.091C92.1893 28.2892 92.0017 28.4439 91.782 28.5358C91.5623 28.6277 91.3204 28.6526 91.0866 28.6073C90.8529 28.5621 90.6377 28.4488 90.4682 28.2816C90.2986 28.1144 90.1823 27.9008 90.1338 27.6677C90.0853 27.4346 90.1068 27.1923 90.1957 26.9714C90.2845 26.7505 90.4366 26.5607 90.6329 26.426C90.8293 26.2913 91.0611 26.2177 91.2991 26.2144V26.2256ZM90.3963 37.9625V30.1643H92.2471V37.9287L90.3963 37.9625Z" fill="white"/>
<path d="M96.4622 37.9286H94.6171V30.1642H96.4171V31.1968C96.6518 30.8003 96.9888 30.4742 97.3929 30.2528C97.797 30.0314 98.2532 29.9229 98.7137 29.9385C100.61 29.9385 101.535 31.3097 101.535 33.0194V37.9286H99.6899V33.3354C99.6899 32.3818 99.2554 31.6087 98.093 31.6087C97.8781 31.6102 97.6656 31.654 97.4676 31.7376C97.2697 31.8212 97.0901 31.943 96.9392 32.096C96.7883 32.249 96.669 32.4302 96.5881 32.6293C96.5073 32.8284 96.4664 33.0415 96.4679 33.2564C96.4679 33.3185 96.4679 33.3806 96.4679 33.4426L96.4622 37.9286Z" fill="white"/>
<path d="M103.77 37.9288V26.3838H105.62V37.9288H103.77Z" fill="white"/>
<path d="M108.921 26.2256C109.16 26.2245 109.393 26.2942 109.591 26.4258C109.79 26.5574 109.945 26.7451 110.036 26.9649C110.128 27.1848 110.152 27.4269 110.106 27.6606C110.06 27.8943 109.945 28.1089 109.777 28.2774C109.608 28.4458 109.394 28.5604 109.16 28.6066C108.926 28.6528 108.684 28.6285 108.464 28.5368C108.245 28.4452 108.057 28.2902 107.925 28.0917C107.794 27.8932 107.724 27.6601 107.725 27.4219C107.728 27.1055 107.855 26.8029 108.079 26.5792C108.302 26.3555 108.605 26.2285 108.921 26.2256ZM108.013 37.9625V30.1642H109.847V37.9286L108.013 37.9625Z" fill="white"/>
<path d="M114.09 37.929H112.239V30.1646H114.039V31.1972C114.275 30.8011 114.612 30.4754 115.016 30.254C115.42 30.0327 115.876 29.9238 116.336 29.9389C118.232 29.9389 119.157 31.3101 119.157 33.0198V37.929H117.307V33.3358C117.36 32.9442 117.257 32.5474 117.021 32.2307C116.785 31.9141 116.433 31.703 116.043 31.643C115.93 31.6317 115.817 31.6317 115.704 31.643C115.273 31.6474 114.861 31.8218 114.558 32.1282C114.255 32.4346 114.085 32.8483 114.085 33.2794C114.079 33.3451 114.079 33.4112 114.085 33.4769L114.09 37.929Z" fill="white"/>
<path d="M125.472 33.4429L128.727 37.9571H126.47L124.213 34.7576L123.26 35.762V37.9288H121.426V26.3838H123.26V33.3018L126.239 30.1644H128.694L125.472 33.4429Z" fill="white"/>
<path d="M38.3928 23.2576L46.3942 27.8508V37.0823L38.4153 41.7037L30.4196 37.1218V27.896L38.3928 23.2576ZM38.3928 16.4863L35.4585 18.1792L27.4684 22.8175L24.5342 24.5103V40.5188L27.4684 42.2116L35.4698 46.8048L38.404 48.4976L41.3383 46.8048L49.3115 42.1777L52.2457 40.4849V24.4539L49.3115 22.7611L41.3157 18.1792L38.3815 16.4863H38.3928Z" fill="white"/>
</svg>
