<svg width="296" height="68" viewBox="0 0 296 68" fill="none" xmlns="http://www.w3.org/2000/svg">
<rect x="0.5" y="0.5" width="295" height="67" rx="15.5" fill="url(#paint0_linear_77_559)" fill-opacity="0.3"/>
<rect x="0.5" y="0.5" width="295" height="67" rx="15.5" stroke="url(#paint1_linear_77_559)"/>
<rect x="0.5" y="0.5" width="295" height="67" rx="15.5" stroke="url(#paint2_linear_77_559)"/>
<path d="M32.592 41H26.232V23.264H32.832C35.352 23.264 37.32 24.056 38.784 25.664C40.248 27.272 40.992 29.432 40.992 32.168C40.992 34.88 40.248 37.04 38.736 38.624C37.248 40.208 35.208 41 32.592 41ZM28.632 25.544V38.72H32.688C34.512 38.72 35.928 38.096 36.96 36.872C37.992 35.624 38.496 34.04 38.496 32.096C38.496 30.176 37.992 28.616 36.96 27.392C35.928 26.168 34.512 25.544 32.688 25.544H28.632ZM55.6755 34.328C55.6755 34.496 55.6515 34.88 55.6035 35.504H45.3555C45.7395 37.688 47.1795 39.176 49.8675 39.176C51.4035 39.176 53.1795 38.6 54.3555 37.736L55.3395 39.488C54.0675 40.472 51.9555 41.288 49.8195 41.288C44.9715 41.288 42.9555 37.856 42.9555 34.52C42.9555 32.576 43.5555 30.992 44.7555 29.72C45.9795 28.448 47.5395 27.824 49.4595 27.824C51.2835 27.824 52.7715 28.4 53.9235 29.576C55.0995 30.752 55.6755 32.336 55.6755 34.328ZM45.3555 33.512H53.2995C53.1795 31.28 51.5715 29.864 49.4595 29.864C47.3475 29.864 45.7395 31.376 45.3555 33.512ZM64.1359 24.656C62.2879 24.656 61.3519 25.544 61.3519 27.344V28.136H65.4559V30.104H61.3519V41H59.0479V30.104H56.8159V28.136H59.0479V27.296C59.0479 24.248 60.9679 22.52 63.8479 22.52C64.8799 22.52 65.8399 22.76 66.7279 23.216L66.0319 25.112C65.2879 24.8 64.6399 24.656 64.1359 24.656ZM69.5006 22.832V41H67.1966V22.832H69.5006ZM83.0154 30.008V28.136H85.2234V41H83.0154V39.176C81.8634 40.592 80.3514 41.312 78.4794 41.312C76.6314 41.312 75.0954 40.664 73.8714 39.344C72.6474 38.024 72.0474 36.416 72.0474 34.472C72.0474 32.552 72.6474 30.968 73.8714 29.72C75.0954 28.448 76.6314 27.824 78.4794 27.824C80.3034 27.824 81.8154 28.544 83.0154 30.008ZM83.1594 34.544C83.1594 33.272 82.7514 32.168 81.9354 31.28C81.1194 30.392 80.0634 29.936 78.7434 29.936C77.4234 29.936 76.3674 30.392 75.5754 31.28C74.7834 32.168 74.3754 33.272 74.3754 34.568C74.3754 35.864 74.7834 36.968 75.5754 37.856C76.3674 38.744 77.4234 39.2 78.7434 39.2C80.0634 39.2 81.1194 38.744 81.9354 37.856C82.7514 36.968 83.1594 35.864 83.1594 34.544ZM96.0964 38.456L96.9604 40.232C96.0244 40.952 94.8964 41.312 93.5284 41.312C90.8164 41.312 89.4244 39.56 89.4244 36.488V30.104H87.1444V28.136H89.4484V23.576H91.7044V28.136H96.2644V30.104H91.7044V36.656C91.7044 38.36 92.4004 39.2 93.7924 39.2C94.5364 39.2 95.3044 38.96 96.0964 38.456ZM99.7626 26.312C98.8026 26.312 98.0826 25.616 98.0826 24.656C98.0826 23.72 98.8026 23.048 99.7626 23.048C100.651 23.048 101.395 23.768 101.395 24.656C101.395 25.616 100.651 26.312 99.7626 26.312ZM100.867 28.136V41H98.5626V28.136H100.867ZM110.181 41.312C108.213 41.312 106.581 40.664 105.309 39.368C104.037 38.048 103.413 36.44 103.413 34.544C103.413 32.648 104.037 31.064 105.309 29.768C106.581 28.448 108.213 27.8 110.181 27.8C112.125 27.8 113.733 28.448 115.005 29.768C116.277 31.088 116.925 32.672 116.925 34.544C116.925 36.44 116.277 38.048 115.005 39.368C113.733 40.664 112.125 41.312 110.181 41.312ZM114.621 34.544C114.621 33.272 114.189 32.192 113.325 31.304C112.461 30.392 111.405 29.936 110.181 29.936C108.957 29.936 107.901 30.392 107.037 31.304C106.173 32.192 105.741 33.272 105.741 34.544C105.741 35.816 106.173 36.92 107.037 37.832C107.901 38.744 108.957 39.2 110.181 39.2C111.405 39.2 112.461 38.744 113.325 37.832C114.189 36.92 114.621 35.816 114.621 34.544ZM121.738 41H119.434V28.136H121.69V29.96C122.506 28.52 123.874 27.8 125.77 27.8C127.21 27.8 128.41 28.256 129.394 29.192C130.378 30.128 130.858 31.448 130.858 33.2V41H128.578V33.848C128.578 31.352 127.234 29.936 125.29 29.936C124.258 29.936 123.394 30.296 122.722 31.04C122.074 31.784 121.738 32.72 121.738 33.872V41ZM144.206 30.008V28.136H146.414V41H144.206V39.176C143.054 40.592 141.542 41.312 139.67 41.312C137.822 41.312 136.286 40.664 135.062 39.344C133.838 38.024 133.238 36.416 133.238 34.472C133.238 32.552 133.838 30.968 135.062 29.72C136.286 28.448 137.822 27.824 139.67 27.824C141.494 27.824 143.006 28.544 144.206 30.008ZM144.35 34.544C144.35 33.272 143.942 32.168 143.126 31.28C142.31 30.392 141.254 29.936 139.934 29.936C138.614 29.936 137.558 30.392 136.766 31.28C135.974 32.168 135.566 33.272 135.566 34.568C135.566 35.864 135.974 36.968 136.766 37.856C137.558 38.744 138.614 39.2 139.934 39.2C141.254 39.2 142.31 38.744 143.126 37.856C143.942 36.968 144.35 35.864 144.35 34.544ZM152.055 41H149.751V28.136H151.935V30.032C152.679 28.544 153.927 27.8 155.631 27.8C156.135 27.8 156.639 27.872 157.143 27.992L156.927 30.224C156.471 30.08 156.015 30.008 155.583 30.008C153.543 30.008 152.055 31.424 152.055 34.184V41ZM164.492 37.784L167.948 28.136H170.492L165.092 42.44C164.012 45.32 162.644 46.472 160.628 46.472C159.788 46.472 159.116 46.304 158.564 45.968L158.852 43.952C159.452 44.216 159.98 44.336 160.412 44.336C161.468 44.336 162.308 43.592 162.956 42.08L163.436 40.952L157.844 28.136H160.508L164.492 37.784ZM180.351 22.832V41H178.047V22.832H180.351ZM189.665 41.312C187.697 41.312 186.065 40.664 184.793 39.368C183.521 38.048 182.897 36.44 182.897 34.544C182.897 32.648 183.521 31.064 184.793 29.768C186.065 28.448 187.697 27.8 189.665 27.8C191.609 27.8 193.217 28.448 194.489 29.768C195.761 31.088 196.409 32.672 196.409 34.544C196.409 36.44 195.761 38.048 194.489 39.368C193.217 40.664 191.609 41.312 189.665 41.312ZM194.105 34.544C194.105 33.272 193.673 32.192 192.809 31.304C191.945 30.392 190.889 29.936 189.665 29.936C188.441 29.936 187.385 30.392 186.521 31.304C185.657 32.192 185.225 33.272 185.225 34.544C185.225 35.816 185.657 36.92 186.521 37.832C187.385 38.744 188.441 39.2 189.665 39.2C190.889 39.2 191.945 38.744 192.809 37.832C193.673 36.92 194.105 35.816 194.105 34.544ZM206.243 38.456L207.107 40.232C206.171 40.952 205.043 41.312 203.675 41.312C200.963 41.312 199.571 39.56 199.571 36.488V30.104H197.291V28.136H199.595V23.576H201.851V28.136H206.411V30.104H201.851V36.656C201.851 38.36 202.547 39.2 203.939 39.2C204.683 39.2 205.451 38.96 206.243 38.456ZM216.245 38.456L217.109 40.232C216.173 40.952 215.045 41.312 213.677 41.312C210.965 41.312 209.573 39.56 209.573 36.488V30.104H207.293V28.136H209.597V23.576H211.853V28.136H216.413V30.104H211.853V36.656C211.853 38.36 212.549 39.2 213.941 39.2C214.685 39.2 215.453 38.96 216.245 38.456ZM230.476 34.328C230.476 34.496 230.452 34.88 230.404 35.504H220.156C220.54 37.688 221.98 39.176 224.668 39.176C226.204 39.176 227.98 38.6 229.156 37.736L230.14 39.488C228.868 40.472 226.756 41.288 224.62 41.288C219.772 41.288 217.756 37.856 217.756 34.52C217.756 32.576 218.356 30.992 219.556 29.72C220.78 28.448 222.34 27.824 224.26 27.824C226.084 27.824 227.572 28.4 228.724 29.576C229.9 30.752 230.476 32.336 230.476 34.328ZM220.156 33.512H228.1C227.98 31.28 226.372 29.864 224.26 29.864C222.148 29.864 220.54 31.376 220.156 33.512ZM235.26 41H232.956V28.136H235.14V30.032C235.884 28.544 237.132 27.8 238.836 27.8C239.34 27.8 239.844 27.872 240.348 27.992L240.132 30.224C239.676 30.08 239.22 30.008 238.788 30.008C236.748 30.008 235.26 31.424 235.26 34.184V41ZM243.244 26.312C242.284 26.312 241.564 25.616 241.564 24.656C241.564 23.72 242.284 23.048 243.244 23.048C244.132 23.048 244.876 23.768 244.876 24.656C244.876 25.616 244.132 26.312 243.244 26.312ZM244.348 28.136V41H242.044V28.136H244.348ZM259.639 34.328C259.639 34.496 259.615 34.88 259.567 35.504H249.319C249.703 37.688 251.143 39.176 253.831 39.176C255.367 39.176 257.143 38.6 258.319 37.736L259.303 39.488C258.031 40.472 255.919 41.288 253.783 41.288C248.935 41.288 246.919 37.856 246.919 34.52C246.919 32.576 247.519 30.992 248.719 29.72C249.943 28.448 251.503 27.824 253.423 27.824C255.247 27.824 256.735 28.4 257.887 29.576C259.063 30.752 259.639 32.336 259.639 34.328ZM249.319 33.512H257.263C257.143 31.28 255.535 29.864 253.423 29.864C251.311 29.864 249.703 31.376 249.319 33.512ZM265.719 41.288C263.799 41.288 261.927 40.352 260.943 38.504L262.599 37.232C263.343 38.6 264.615 39.272 265.791 39.272C267.159 39.272 268.071 38.48 268.071 37.496C268.071 36.824 267.687 36.272 266.895 35.864C266.631 35.72 266.079 35.48 265.287 35.144C264.495 34.808 263.967 34.568 263.703 34.424C262.383 33.704 261.735 32.672 261.735 31.304C261.735 30.272 262.119 29.408 262.887 28.736C263.655 28.04 264.663 27.704 265.935 27.704C267.567 27.704 269.151 28.4 270.015 29.744L268.551 31.136C267.855 30.152 266.943 29.648 265.791 29.648C264.639 29.648 263.943 30.344 263.943 31.208C263.943 31.88 264.303 32.384 265.023 32.72L266.439 33.344C267.207 33.656 267.783 33.92 268.167 34.136C269.631 34.88 270.351 35.96 270.351 37.376C270.351 38.48 269.919 39.416 269.055 40.16C268.191 40.904 267.087 41.288 265.719 41.288Z" fill="#FFF5E1"/>
<defs>
<linearGradient id="paint0_linear_77_559" x1="0" y1="34" x2="296" y2="34" gradientUnits="userSpaceOnUse">
<stop stop-color="#420000"/>
<stop offset="1" stop-color="#E7134F"/>
</linearGradient>
<linearGradient id="paint1_linear_77_559" x1="0" y1="34" x2="296" y2="34" gradientUnits="userSpaceOnUse">
<stop stop-color="#CA7803"/>
<stop offset="1" stop-color="#623A00" stop-opacity="0.04"/>
</linearGradient>
<linearGradient id="paint2_linear_77_559" x1="0" y1="34" x2="296" y2="34" gradientUnits="userSpaceOnUse">
<stop stop-color="#FFCE2B"/>
<stop offset="1" stop-color="#E7165F"/>
</linearGradient>
</defs>
</svg>
