<svg width="1361" height="760" viewBox="0 0 1361 760" fill="none" xmlns="http://www.w3.org/2000/svg">
<rect x="235.296" y="453.403" width="187.454" height="98.5091" rx="14.8242" fill="url(#paint0_linear_74_432)" fill-opacity="0.3"/>
<rect x="235.296" y="453.403" width="187.454" height="98.5091" rx="14.8242" stroke="url(#paint1_linear_74_432)" stroke-width="0.956399"/>
<rect x="235.296" y="453.403" width="187.454" height="98.5091" rx="14.8242" stroke="url(#paint2_linear_74_432)" stroke-width="0.956399"/>
<path d="M281.025 508.158H278.202L273.795 501.272H271.453V508.158H269.158V491.196H274.919C276.618 491.196 277.926 491.7 278.844 492.71C279.785 493.697 280.244 494.891 280.244 496.245C280.244 498.472 278.844 500.515 276.296 501.088L281.025 508.158ZM274.942 493.376H271.453V499.114H274.483C276.778 499.114 277.903 497.852 277.903 496.222C277.903 494.593 276.847 493.376 274.942 493.376ZM294.269 501.777C294.269 501.938 294.246 502.305 294.2 502.902H284.399C284.766 504.991 286.144 506.414 288.714 506.414C290.183 506.414 291.882 505.863 293.007 505.037L293.948 506.712C292.731 507.653 290.711 508.434 288.668 508.434C284.032 508.434 282.104 505.151 282.104 501.961C282.104 500.101 282.678 498.587 283.825 497.37C284.996 496.153 286.488 495.557 288.324 495.557C290.069 495.557 291.492 496.108 292.593 497.232C293.718 498.357 294.269 499.872 294.269 501.777ZM284.399 500.997H291.997C291.882 498.862 290.344 497.508 288.324 497.508C286.304 497.508 284.766 498.954 284.399 500.997ZM302.361 492.527C300.593 492.527 299.698 493.376 299.698 495.098V495.855H303.623V497.737H299.698V508.158H297.494V497.737H295.36V495.855H297.494V495.052C297.494 492.137 299.331 490.484 302.085 490.484C303.072 490.484 303.99 490.713 304.84 491.15L304.174 492.963C303.462 492.665 302.843 492.527 302.361 492.527ZM307.491 490.782V508.158H305.288V490.782H307.491ZM322.116 501.777C322.116 501.938 322.093 502.305 322.047 502.902H312.246C312.613 504.991 313.99 506.414 316.561 506.414C318.03 506.414 319.728 505.863 320.853 505.037L321.794 506.712C320.578 507.653 318.558 508.434 316.515 508.434C311.878 508.434 309.95 505.151 309.95 501.961C309.95 500.101 310.524 498.587 311.672 497.37C312.842 496.153 314.334 495.557 316.171 495.557C317.915 495.557 319.338 496.108 320.44 497.232C321.565 498.357 322.116 499.872 322.116 501.777ZM312.246 500.997H319.843C319.728 498.862 318.191 497.508 316.171 497.508C314.151 497.508 312.613 498.954 312.246 500.997ZM330.226 508.434C328.321 508.434 326.76 507.837 325.543 506.62C324.327 505.404 323.73 503.866 323.73 502.007C323.73 500.124 324.35 498.587 325.566 497.37C326.806 496.153 328.389 495.557 330.34 495.557C332.751 495.557 334.977 496.819 335.918 498.77L334.105 499.826C333.279 498.449 331.901 497.577 330.34 497.577C329.078 497.577 328.045 497.99 327.196 498.839C326.37 499.688 325.956 500.744 325.956 502.007C325.956 503.269 326.37 504.302 327.173 505.151C327.976 506.001 329.009 506.414 330.226 506.414C331.764 506.414 333.324 505.496 334.036 504.21L335.872 505.266C335.367 506.207 334.61 506.988 333.577 507.561C332.544 508.135 331.442 508.434 330.226 508.434ZM345.206 505.725L346.032 507.424C345.137 508.112 344.058 508.457 342.75 508.457C340.156 508.457 338.825 506.781 338.825 503.843V497.737H336.644V495.855H338.848V491.494H341.005V495.855H345.367V497.737H341.005V504.004C341.005 505.633 341.671 506.437 343.002 506.437C343.714 506.437 344.449 506.207 345.206 505.725ZM348.712 494.111C347.794 494.111 347.106 493.445 347.106 492.527C347.106 491.632 347.794 490.989 348.712 490.989C349.562 490.989 350.273 491.678 350.273 492.527C350.273 493.445 349.562 494.111 348.712 494.111ZM349.768 495.855V508.158H347.565V495.855H349.768ZM358.677 508.457C356.795 508.457 355.234 507.837 354.017 506.597C352.801 505.335 352.204 503.797 352.204 501.984C352.204 500.17 352.801 498.655 354.017 497.416C355.234 496.153 356.795 495.534 358.677 495.534C360.536 495.534 362.074 496.153 363.291 497.416C364.507 498.678 365.127 500.193 365.127 501.984C365.127 503.797 364.507 505.335 363.291 506.597C362.074 507.837 360.536 508.457 358.677 508.457ZM362.923 501.984C362.923 500.767 362.51 499.734 361.684 498.885C360.857 498.013 359.847 497.577 358.677 497.577C357.506 497.577 356.496 498.013 355.67 498.885C354.844 499.734 354.43 500.767 354.43 501.984C354.43 503.2 354.844 504.256 355.67 505.128C356.496 506.001 357.506 506.437 358.677 506.437C359.847 506.437 360.857 506.001 361.684 505.128C362.51 504.256 362.923 503.2 362.923 501.984ZM369.73 508.158H367.526V495.855H369.684V497.6C370.464 496.222 371.773 495.534 373.586 495.534C374.963 495.534 376.111 495.97 377.052 496.865C377.993 497.76 378.452 499.023 378.452 500.698V508.158H376.272V501.318C376.272 498.931 374.986 497.577 373.127 497.577C372.14 497.577 371.314 497.921 370.671 498.632C370.051 499.344 369.73 500.239 369.73 501.341V508.158ZM384.929 508.434C383.092 508.434 381.302 507.538 380.361 505.771L381.945 504.554C382.656 505.863 383.873 506.506 384.998 506.506C386.306 506.506 387.178 505.748 387.178 504.807C387.178 504.164 386.811 503.636 386.053 503.246C385.801 503.108 385.273 502.879 384.516 502.558C383.758 502.236 383.253 502.007 383.001 501.869C381.738 501.18 381.118 500.193 381.118 498.885C381.118 497.898 381.486 497.072 382.22 496.429C382.955 495.763 383.919 495.442 385.135 495.442C386.696 495.442 388.211 496.108 389.037 497.393L387.637 498.724C386.972 497.783 386.099 497.301 384.998 497.301C383.896 497.301 383.23 497.967 383.23 498.793C383.23 499.436 383.575 499.918 384.263 500.239L385.617 500.836C386.352 501.134 386.903 501.387 387.27 501.593C388.67 502.305 389.359 503.338 389.359 504.692C389.359 505.748 388.946 506.643 388.119 507.355C387.293 508.066 386.237 508.434 384.929 508.434Z" fill="#FDE2AE"/>
<path opacity="0.64" d="M469.812 648.229C470.185 647.855 470.185 647.25 469.812 646.876L463.725 640.79C463.352 640.416 462.746 640.416 462.373 640.79C461.999 641.163 461.999 641.769 462.373 642.143L467.783 647.553L462.373 652.963C461.999 653.336 461.999 653.942 462.373 654.315C462.746 654.689 463.352 654.689 463.725 654.315L469.812 648.229ZM423.229 502.658V503.615H434.705V502.658V501.702H423.229V502.658ZM446.182 514.135H445.226V636.076H446.182H447.139V514.135H446.182ZM457.659 647.553V648.509H469.136V647.553V646.596H457.659V647.553ZM446.182 636.076H445.226C445.226 642.943 450.792 648.509 457.659 648.509V647.553V646.596C451.849 646.596 447.139 641.886 447.139 636.076H446.182ZM434.705 502.658V503.615C440.516 503.615 445.226 508.325 445.226 514.135H446.182H447.139C447.139 507.268 441.572 501.702 434.705 501.702V502.658Z" fill="#FDE2AE"/>
<path opacity="0.64" d="M469.812 356.609C470.185 356.983 470.185 357.588 469.812 357.962L463.725 364.048C463.352 364.422 462.746 364.422 462.373 364.048C461.999 363.675 461.999 363.069 462.373 362.696L467.783 357.285L462.373 351.875C461.999 351.502 461.999 350.896 462.373 350.523C462.746 350.149 463.352 350.149 463.725 350.523L469.812 356.609ZM423.229 502.658V501.702H434.705V502.658V503.615H423.229V502.658ZM446.182 491.181H445.226V368.762H446.182H447.139V491.181H446.182ZM457.659 357.285V356.329H469.136V357.285V358.242H457.659V357.285ZM446.182 368.762H445.226C445.226 361.896 450.792 356.329 457.659 356.329V357.285V358.242C451.849 358.242 447.139 362.952 447.139 368.762H446.182ZM434.705 502.658V501.702C440.516 501.702 445.226 496.992 445.226 491.181H446.182H447.139C447.139 498.048 441.572 503.615 434.705 503.615V502.658Z" fill="#FDE2AE"/>
<rect x="703.932" y="453.403" width="187.454" height="98.5091" rx="14.8242" fill="url(#paint3_linear_74_432)" fill-opacity="0.3"/>
<rect x="703.932" y="453.403" width="187.454" height="98.5091" rx="14.8242" stroke="url(#paint4_linear_74_432)" stroke-width="0.956399"/>
<rect x="703.932" y="453.403" width="187.454" height="98.5091" rx="14.8242" stroke="url(#paint5_linear_74_432)" stroke-width="0.956399"/>
<path d="M775.11 502.443V491.196H777.405V502.03C777.405 504.715 778.806 506.207 781.262 506.207C783.672 506.207 785.095 504.669 785.095 502.03V491.196H787.413V502.443C787.413 504.302 786.839 505.771 785.715 506.85C784.59 507.929 783.098 508.457 781.262 508.457C779.425 508.457 777.933 507.929 776.809 506.85C775.684 505.771 775.11 504.302 775.11 502.443ZM794.121 508.434C792.284 508.434 790.494 507.538 789.553 505.771L791.137 504.554C791.848 505.863 793.065 506.506 794.189 506.506C795.498 506.506 796.37 505.748 796.37 504.807C796.37 504.164 796.003 503.636 795.245 503.246C794.993 503.108 794.465 502.879 793.707 502.558C792.95 502.236 792.445 502.007 792.192 501.869C790.93 501.18 790.31 500.193 790.31 498.885C790.31 497.898 790.678 497.072 791.412 496.429C792.147 495.763 793.111 495.442 794.327 495.442C795.888 495.442 797.403 496.108 798.229 497.393L796.829 498.724C796.163 497.783 795.291 497.301 794.189 497.301C793.088 497.301 792.422 497.967 792.422 498.793C792.422 499.436 792.766 499.918 793.455 500.239L794.809 500.836C795.544 501.134 796.095 501.387 796.462 501.593C797.862 502.305 798.551 503.338 798.551 504.692C798.551 505.748 798.137 506.643 797.311 507.355C796.485 508.066 795.429 508.434 794.121 508.434ZM812.302 501.777C812.302 501.938 812.279 502.305 812.233 502.902H802.432C802.799 504.991 804.177 506.414 806.747 506.414C808.216 506.414 809.915 505.863 811.04 505.037L811.981 506.712C810.764 507.653 808.744 508.434 806.701 508.434C802.065 508.434 800.137 505.151 800.137 501.961C800.137 500.101 800.711 498.587 801.858 497.37C803.029 496.153 804.521 495.557 806.357 495.557C808.102 495.557 809.525 496.108 810.627 497.232C811.751 498.357 812.302 499.872 812.302 501.777ZM802.432 500.997H810.03C809.915 498.862 808.377 497.508 806.357 497.508C804.337 497.508 802.799 498.954 802.432 500.997ZM816.877 508.158H814.674V495.855H816.763V497.668C817.474 496.245 818.668 495.534 820.298 495.534C820.78 495.534 821.262 495.603 821.744 495.717L821.537 497.852C821.101 497.714 820.665 497.645 820.252 497.645C818.301 497.645 816.877 499 816.877 501.639V508.158Z" fill="#FDE2AE"/>
<rect x="236.252" y="600.689" width="187.454" height="94.6835" rx="14.8242" fill="url(#paint6_linear_74_432)" fill-opacity="0.3"/>
<rect x="236.252" y="600.689" width="187.454" height="94.6835" rx="14.8242" stroke="url(#paint7_linear_74_432)" stroke-width="0.956399"/>
<rect x="236.252" y="600.689" width="187.454" height="94.6835" rx="14.8242" stroke="url(#paint8_linear_74_432)" stroke-width="0.956399"/>
<path d="M288.328 653.531V638.795H283.301V636.568H295.65V638.795H290.623V653.531H288.328ZM298.017 653.531H295.813V641.228H297.902V643.041C298.614 641.618 299.807 640.906 301.437 640.906C301.919 640.906 302.401 640.975 302.883 641.09L302.676 643.225C302.24 643.087 301.804 643.018 301.391 643.018C299.44 643.018 298.017 644.372 298.017 647.012V653.531ZM315.353 647.15C315.353 647.31 315.33 647.678 315.284 648.274H305.483C305.851 650.363 307.228 651.786 309.799 651.786C311.268 651.786 312.966 651.235 314.091 650.409L315.032 652.085C313.815 653.026 311.796 653.806 309.753 653.806C305.116 653.806 303.188 650.524 303.188 647.333C303.188 645.474 303.762 643.959 304.909 642.743C306.08 641.526 307.572 640.929 309.408 640.929C311.153 640.929 312.576 641.48 313.678 642.605C314.802 643.73 315.353 645.245 315.353 647.15ZM305.483 646.369H313.081C312.966 644.235 311.428 642.88 309.408 642.88C307.388 642.88 305.851 644.326 305.483 646.369ZM327.457 643.018V641.228H329.569V653.531H327.457V651.786C326.356 653.141 324.91 653.829 323.119 653.829C321.352 653.829 319.883 653.209 318.712 651.947C317.541 650.685 316.968 649.147 316.968 647.287C316.968 645.451 317.541 643.936 318.712 642.743C319.883 641.526 321.352 640.929 323.119 640.929C324.864 640.929 326.31 641.618 327.457 643.018ZM327.595 647.356C327.595 646.14 327.205 645.084 326.424 644.235C325.644 643.385 324.634 642.949 323.372 642.949C322.109 642.949 321.099 643.385 320.342 644.235C319.584 645.084 319.194 646.14 319.194 647.379C319.194 648.619 319.584 649.675 320.342 650.524C321.099 651.373 322.109 651.809 323.372 651.809C324.634 651.809 325.644 651.373 326.424 650.524C327.205 649.675 327.595 648.619 327.595 647.356ZM336.204 653.806C334.367 653.806 332.577 652.911 331.636 651.144L333.22 649.927C333.931 651.235 335.148 651.878 336.272 651.878C337.581 651.878 338.453 651.121 338.453 650.18C338.453 649.537 338.086 649.009 337.328 648.619C337.076 648.481 336.548 648.251 335.79 647.93C335.033 647.609 334.528 647.379 334.276 647.241C333.013 646.553 332.393 645.566 332.393 644.258C332.393 643.271 332.761 642.444 333.495 641.801C334.23 641.136 335.194 640.814 336.41 640.814C337.971 640.814 339.486 641.48 340.312 642.766L338.912 644.097C338.246 643.156 337.374 642.674 336.272 642.674C335.171 642.674 334.505 643.339 334.505 644.166C334.505 644.808 334.849 645.29 335.538 645.612L336.892 646.209C337.627 646.507 338.178 646.759 338.545 646.966C339.945 647.678 340.634 648.711 340.634 650.065C340.634 651.121 340.22 652.016 339.394 652.727C338.568 653.439 337.512 653.806 336.204 653.806ZM348.073 653.829C344.859 653.829 342.794 651.786 342.794 648.573V641.228H344.997V648.504C344.997 650.524 346.145 651.786 348.073 651.786C350.024 651.786 351.172 650.524 351.172 648.504V641.228H353.352V648.573C353.352 651.855 351.355 653.829 348.073 653.829ZM358.579 653.531H356.376V641.228H358.465V643.041C359.176 641.618 360.37 640.906 361.999 640.906C362.482 640.906 362.964 640.975 363.446 641.09L363.239 643.225C362.803 643.087 362.367 643.018 361.954 643.018C360.003 643.018 358.579 644.372 358.579 647.012V653.531ZM370.474 650.455L373.779 641.228H376.212L371.048 654.908C370.015 657.662 368.707 658.764 366.778 658.764C365.975 658.764 365.332 658.604 364.804 658.282L365.08 656.354C365.654 656.607 366.159 656.721 366.572 656.721C367.582 656.721 368.385 656.01 369.005 654.564L369.464 653.485L364.116 641.228H366.664L370.474 650.455Z" fill="#FDE2AE"/>
<rect x="703.932" y="308.031" width="187.454" height="98.5091" rx="14.8242" fill="url(#paint9_linear_74_432)" fill-opacity="0.3"/>
<rect x="703.932" y="308.031" width="187.454" height="98.5091" rx="14.8242" stroke="url(#paint10_linear_74_432)" stroke-width="0.956399"/>
<rect x="703.932" y="308.031" width="187.454" height="98.5091" rx="14.8242" stroke="url(#paint11_linear_74_432)" stroke-width="0.956399"/>
<path d="M740.294 345.823H745.963C747.754 345.823 749.108 346.351 750.049 347.384C750.99 348.417 751.449 349.633 751.449 351.056C751.449 352.502 750.967 353.742 749.98 354.775C748.993 355.785 747.593 356.29 745.757 356.29H742.589V362.786H740.294V345.823ZM742.589 354.155H745.802C748.006 354.155 749.154 352.732 749.154 351.01C749.154 349.358 748.052 347.981 746.101 347.981H742.589V354.155ZM755.796 362.786H753.593V350.483H755.682V352.296C756.393 350.873 757.587 350.161 759.217 350.161C759.699 350.161 760.181 350.23 760.663 350.345L760.456 352.479C760.02 352.342 759.584 352.273 759.171 352.273C757.22 352.273 755.796 353.627 755.796 356.267V362.786ZM763.432 348.738C762.514 348.738 761.826 348.072 761.826 347.154C761.826 346.259 762.514 345.616 763.432 345.616C764.282 345.616 764.993 346.305 764.993 347.154C764.993 348.072 764.282 348.738 763.432 348.738ZM764.488 350.483V362.786H762.285V350.483H764.488ZM776.656 351.791L769.656 360.903H776.863V362.786H766.672V361.385L773.695 352.388H767.085V350.505H776.656V351.791ZM790.292 356.405C790.292 356.565 790.269 356.932 790.224 357.529H780.422C780.79 359.618 782.167 361.041 784.738 361.041C786.207 361.041 787.905 360.49 789.03 359.664L789.971 361.34C788.755 362.281 786.735 363.061 784.692 363.061C780.055 363.061 778.127 359.779 778.127 356.588C778.127 354.729 778.701 353.214 779.849 351.997C781.019 350.781 782.511 350.184 784.347 350.184C786.092 350.184 787.515 350.735 788.617 351.86C789.742 352.984 790.292 354.499 790.292 356.405ZM780.422 355.624H788.02C787.905 353.489 786.367 352.135 784.347 352.135C782.328 352.135 780.79 353.581 780.422 355.624ZM804.693 350.184C806.438 350.184 807.907 350.804 809.078 352.066C810.248 353.329 810.845 354.844 810.845 356.634C810.845 358.447 810.248 359.962 809.078 361.225C807.907 362.464 806.438 363.084 804.671 363.084C802.88 363.084 801.434 362.395 800.309 360.995V367.858H798.106V350.483H800.309V352.342C801.457 350.896 802.926 350.184 804.693 350.184ZM808.642 356.611C808.642 355.372 808.251 354.339 807.471 353.489C806.69 352.64 805.68 352.204 804.418 352.204C803.156 352.204 802.146 352.64 801.365 353.489C800.608 354.339 800.218 355.395 800.218 356.611C800.218 357.874 800.608 358.929 801.365 359.779C802.146 360.628 803.156 361.064 804.418 361.064C805.68 361.064 806.69 360.628 807.471 359.779C808.251 358.929 808.642 357.874 808.642 356.611ZM818.969 363.084C817.087 363.084 815.526 362.464 814.309 361.225C813.093 359.962 812.496 358.424 812.496 356.611C812.496 354.798 813.093 353.283 814.309 352.043C815.526 350.781 817.087 350.161 818.969 350.161C820.828 350.161 822.366 350.781 823.583 352.043C824.799 353.306 825.419 354.821 825.419 356.611C825.419 358.424 824.799 359.962 823.583 361.225C822.366 362.464 820.828 363.084 818.969 363.084ZM823.215 356.611C823.215 355.395 822.802 354.362 821.976 353.512C821.149 352.64 820.139 352.204 818.969 352.204C817.798 352.204 816.788 352.64 815.962 353.512C815.136 354.362 814.722 355.395 814.722 356.611C814.722 357.828 815.136 358.884 815.962 359.756C816.788 360.628 817.798 361.064 818.969 361.064C820.139 361.064 821.149 360.628 821.976 359.756C822.802 358.884 823.215 357.828 823.215 356.611ZM833.534 363.084C831.651 363.084 830.091 362.464 828.874 361.225C827.657 359.962 827.061 358.424 827.061 356.611C827.061 354.798 827.657 353.283 828.874 352.043C830.091 350.781 831.651 350.161 833.534 350.161C835.393 350.161 836.931 350.781 838.147 352.043C839.364 353.306 839.984 354.821 839.984 356.611C839.984 358.424 839.364 359.962 838.147 361.225C836.931 362.464 835.393 363.084 833.534 363.084ZM837.78 356.611C837.78 355.395 837.367 354.362 836.541 353.512C835.714 352.64 834.704 352.204 833.534 352.204C832.363 352.204 831.353 352.64 830.527 353.512C829.7 354.362 829.287 355.395 829.287 356.611C829.287 357.828 829.7 358.884 830.527 359.756C831.353 360.628 832.363 361.064 833.534 361.064C834.704 361.064 835.714 360.628 836.541 359.756C837.367 358.884 837.78 357.828 837.78 356.611ZM844.586 345.41V362.786H842.383V345.41H844.586ZM851.223 363.061C849.386 363.061 847.596 362.166 846.655 360.398L848.239 359.182C848.95 360.49 850.167 361.133 851.292 361.133C852.6 361.133 853.472 360.376 853.472 359.434C853.472 358.792 853.105 358.264 852.347 357.874C852.095 357.736 851.567 357.506 850.81 357.185C850.052 356.864 849.547 356.634 849.295 356.496C848.032 355.808 847.412 354.821 847.412 353.512C847.412 352.525 847.78 351.699 848.514 351.056C849.249 350.391 850.213 350.069 851.429 350.069C852.99 350.069 854.505 350.735 855.331 352.02L853.931 353.352C853.266 352.411 852.393 351.929 851.292 351.929C850.19 351.929 849.524 352.594 849.524 353.421C849.524 354.063 849.868 354.545 850.557 354.867L851.911 355.463C852.646 355.762 853.197 356.014 853.564 356.221C854.964 356.932 855.653 357.965 855.653 359.32C855.653 360.376 855.24 361.271 854.413 361.982C853.587 362.694 852.531 363.061 851.223 363.061Z" fill="#FDE2AE"/>
<rect x="0.9782" y="453.403" width="187.454" height="98.5091" rx="14.8242" fill="url(#paint12_linear_74_432)" fill-opacity="0.3"/>
<rect x="0.9782" y="453.403" width="187.454" height="98.5091" rx="14.8242" stroke="url(#paint13_linear_74_432)" stroke-width="0.956399"/>
<rect x="0.9782" y="453.403" width="187.454" height="98.5091" rx="14.8242" stroke="url(#paint14_linear_74_432)" stroke-width="0.956399"/>
<path d="M44.9067 498.885C46.9955 499.459 48.0972 501.249 48.0972 503.292C48.0972 504.6 47.6382 505.748 46.6971 506.712C45.7789 507.676 44.4935 508.158 42.8409 508.158H35.84V491.196H42.5425C44.0115 491.196 45.1592 491.632 45.9625 492.481C46.7889 493.33 47.202 494.317 47.202 495.442C47.202 496.98 46.3068 498.357 44.9067 498.885ZM42.2441 493.33H38.1124V498.059H42.1752C43.8508 498.059 44.8608 496.888 44.8608 495.58C44.8608 494.386 43.8738 493.33 42.2441 493.33ZM38.1124 506.001H42.4736C43.4606 506.001 44.264 505.725 44.8378 505.151C45.4346 504.577 45.733 503.889 45.733 503.131C45.733 501.502 44.5165 500.147 42.3818 500.147H38.1124V506.001ZM55.7149 508.457C52.5014 508.457 50.4356 506.414 50.4356 503.2V495.855H52.6392V503.131C52.6392 505.151 53.7868 506.414 55.7149 506.414C57.666 506.414 58.8137 505.151 58.8137 503.131V495.855H60.9943V503.2C60.9943 506.483 58.9973 508.457 55.7149 508.457ZM68.9758 505.082L72.2812 495.855H74.7142L69.5497 509.535C68.5168 512.29 67.2084 513.392 65.2803 513.392C64.4769 513.392 63.8342 513.231 63.3063 512.91L63.5817 510.981C64.1556 511.234 64.6606 511.349 65.0737 511.349C66.0837 511.349 66.8871 510.637 67.5068 509.191L67.9659 508.112L62.6177 495.855H65.1655L68.9758 505.082ZM79.5151 508.434C77.6788 508.434 75.8885 507.538 74.9474 505.771L76.5312 504.554C77.2427 505.863 78.4593 506.506 79.584 506.506C80.8923 506.506 81.7646 505.748 81.7646 504.807C81.7646 504.164 81.3973 503.636 80.6398 503.246C80.3874 503.108 79.8594 502.879 79.102 502.558C78.3445 502.236 77.8395 502.007 77.587 501.869C76.3246 501.18 75.7048 500.193 75.7048 498.885C75.7048 497.898 76.0721 497.072 76.8066 496.429C77.5411 495.763 78.5052 495.442 79.7217 495.442C81.2826 495.442 82.7975 496.108 83.6238 497.393L82.2236 498.724C81.558 497.783 80.6858 497.301 79.584 497.301C78.4822 497.301 77.8166 497.967 77.8166 498.793C77.8166 499.436 78.1609 499.918 78.8495 500.239L80.2037 500.836C80.9382 501.134 81.4891 501.387 81.8564 501.593C83.2566 502.305 83.9452 503.338 83.9452 504.692C83.9452 505.748 83.532 506.643 82.7057 507.355C81.8793 508.066 80.8235 508.434 79.5151 508.434ZM97.2163 499.114H101.532V501.18H97.2163V505.519L95.1505 505.541V501.18H90.7893V499.114H95.1505V494.776H97.2163V499.114ZM113.931 508.434C111.475 508.434 109.249 507.217 108.147 504.945L109.845 503.545C110.764 505.358 112.256 506.253 113.908 506.253C115.836 506.253 117.03 505.128 117.03 503.682C117.03 502.764 116.433 501.984 115.262 501.318C114.964 501.157 114.367 500.882 113.518 500.492C112.669 500.101 112.049 499.78 111.613 499.528C109.914 498.449 109.065 497.095 109.065 495.488C109.065 494.179 109.524 493.101 110.465 492.228C111.406 491.333 112.646 490.897 114.184 490.897C116.272 490.897 117.948 491.723 119.165 493.399L117.627 494.868C116.709 493.652 115.561 493.055 114.207 493.055C112.669 493.055 111.521 493.973 111.521 495.35C111.521 496.245 112.003 496.957 112.967 497.531C113.266 497.714 113.908 498.059 114.941 498.541C115.974 499.023 116.686 499.39 117.076 499.619C118.706 500.606 119.532 501.915 119.532 503.567C119.532 505.014 119.004 506.184 117.925 507.079C116.869 507.975 115.538 508.434 113.931 508.434ZM133.383 501.777C133.383 501.938 133.36 502.305 133.314 502.902H123.513C123.88 504.991 125.258 506.414 127.828 506.414C129.298 506.414 130.996 505.863 132.121 505.037L133.062 506.712C131.845 507.653 129.825 508.434 127.783 508.434C123.146 508.434 121.218 505.151 121.218 501.961C121.218 500.101 121.792 498.587 122.939 497.37C124.11 496.153 125.602 495.557 127.438 495.557C129.183 495.557 130.606 496.108 131.708 497.232C132.832 498.357 133.383 499.872 133.383 501.777ZM123.513 500.997H131.111C130.996 498.862 129.458 497.508 127.438 497.508C125.418 497.508 123.88 498.954 123.513 500.997ZM137.959 490.782V508.158H135.755V490.782H137.959ZM143.355 490.782V508.158H141.152V490.782H143.355ZM149.992 508.434C148.155 508.434 146.365 507.538 145.424 505.771L147.008 504.554C147.719 505.863 148.936 506.506 150.06 506.506C151.369 506.506 152.241 505.748 152.241 504.807C152.241 504.164 151.874 503.636 151.116 503.246C150.864 503.108 150.336 502.879 149.578 502.558C148.821 502.236 148.316 502.007 148.064 501.869C146.801 501.18 146.181 500.193 146.181 498.885C146.181 497.898 146.549 497.072 147.283 496.429C148.018 495.763 148.982 495.442 150.198 495.442C151.759 495.442 153.274 496.108 154.1 497.393L152.7 498.724C152.034 497.783 151.162 497.301 150.06 497.301C148.959 497.301 148.293 497.967 148.293 498.793C148.293 499.436 148.637 499.918 149.326 500.239L150.68 500.836C151.415 501.134 151.966 501.387 152.333 501.593C153.733 502.305 154.422 503.338 154.422 504.692C154.422 505.748 154.008 506.643 153.182 507.355C152.356 508.066 151.3 508.434 149.992 508.434Z" fill="#FDE2AE"/>
<rect x="469.614" y="453.403" width="187.454" height="98.5091" rx="14.8242" fill="url(#paint15_linear_74_432)" fill-opacity="0.3"/>
<rect x="469.614" y="453.403" width="187.454" height="98.5091" rx="14.8242" stroke="url(#paint16_linear_74_432)" stroke-width="0.956399"/>
<rect x="469.614" y="453.403" width="187.454" height="98.5091" rx="14.8242" stroke="url(#paint17_linear_74_432)" stroke-width="0.956399"/>
<path d="M530.385 491.158H528.066V474.196H530.385V481.357H538.9V474.196H541.196V491.158H538.9V483.561H530.385V491.158ZM550.399 491.457C548.516 491.457 546.956 490.837 545.739 489.597C544.522 488.335 543.926 486.797 543.926 484.984C543.926 483.17 544.522 481.655 545.739 480.416C546.956 479.153 548.516 478.534 550.399 478.534C552.258 478.534 553.796 479.153 555.012 480.416C556.229 481.678 556.849 483.193 556.849 484.984C556.849 486.797 556.229 488.335 555.012 489.597C553.796 490.837 552.258 491.457 550.399 491.457ZM554.645 484.984C554.645 483.767 554.232 482.734 553.405 481.885C552.579 481.013 551.569 480.577 550.399 480.577C549.228 480.577 548.218 481.013 547.392 481.885C546.565 482.734 546.152 483.767 546.152 484.984C546.152 486.2 546.565 487.256 547.392 488.128C548.218 489.001 549.228 489.437 550.399 489.437C551.569 489.437 552.579 489.001 553.405 488.128C554.232 487.256 554.645 486.2 554.645 484.984ZM561.451 473.782V491.158H559.248V473.782H561.451ZM574.354 480.645V473.782H576.558V491.158H574.354V489.437C573.275 490.791 571.852 491.457 570.085 491.457C568.294 491.457 566.802 490.837 565.632 489.597C564.461 488.335 563.887 486.797 563.887 484.984C563.887 483.193 564.461 481.678 565.632 480.439C566.802 479.176 568.271 478.557 570.039 478.557C571.806 478.557 573.229 479.245 574.354 480.645ZM574.515 484.984C574.515 483.767 574.124 482.711 573.344 481.862C572.587 481.013 571.577 480.577 570.314 480.577C569.052 480.577 568.042 481.013 567.261 481.862C566.504 482.711 566.114 483.767 566.114 484.984C566.114 486.246 566.504 487.302 567.261 488.151C568.042 489.001 569.052 489.437 570.314 489.437C571.577 489.437 572.587 489.001 573.344 488.151C574.124 487.302 574.515 486.246 574.515 484.984ZM591.156 484.777C591.156 484.938 591.133 485.305 591.087 485.902H581.286C581.653 487.991 583.03 489.414 585.601 489.414C587.07 489.414 588.769 488.863 589.893 488.037L590.835 489.712C589.618 490.653 587.598 491.434 585.555 491.434C580.919 491.434 578.99 488.151 578.99 484.961C578.99 483.101 579.564 481.587 580.712 480.37C581.883 479.153 583.375 478.557 585.211 478.557C586.955 478.557 588.378 479.108 589.48 480.232C590.605 481.357 591.156 482.872 591.156 484.777ZM581.286 483.997H588.883C588.769 481.862 587.231 480.508 585.211 480.508C583.191 480.508 581.653 481.954 581.286 483.997ZM595.731 491.158H593.528V478.855H595.616V480.668C596.328 479.245 597.522 478.534 599.151 478.534C599.633 478.534 600.115 478.603 600.597 478.717L600.391 480.852C599.955 480.714 599.519 480.645 599.105 480.645C597.154 480.645 595.731 482 595.731 484.639V491.158ZM500.156 526.158H497.333L492.926 519.272H490.584V526.158H488.289V509.196H494.05C495.749 509.196 497.057 509.7 497.975 510.71C498.916 511.697 499.376 512.891 499.376 514.245C499.376 516.472 497.975 518.515 495.428 519.088L500.156 526.158ZM494.073 511.376H490.584V517.114H493.614C495.91 517.114 497.034 515.852 497.034 514.222C497.034 512.593 495.978 511.376 494.073 511.376ZM513.4 519.777C513.4 519.938 513.377 520.305 513.331 520.902H503.53C503.897 522.991 505.275 524.414 507.845 524.414C509.314 524.414 511.013 523.863 512.138 523.037L513.079 524.712C511.862 525.653 509.842 526.434 507.799 526.434C503.163 526.434 501.235 523.151 501.235 519.961C501.235 518.101 501.809 516.587 502.956 515.37C504.127 514.153 505.619 513.557 507.455 513.557C509.2 513.557 510.623 514.108 511.725 515.232C512.849 516.357 513.4 517.872 513.4 519.777ZM503.53 518.997H511.128C511.013 516.862 509.475 515.508 507.455 515.508C505.435 515.508 503.897 516.954 503.53 518.997ZM525.481 515.645V508.782H527.685V526.158H525.481V524.437C524.402 525.791 522.979 526.457 521.212 526.457C519.422 526.457 517.93 525.837 516.759 524.597C515.588 523.335 515.014 521.797 515.014 519.984C515.014 518.193 515.588 516.678 516.759 515.439C517.93 514.176 519.399 513.557 521.166 513.557C522.933 513.557 524.357 514.245 525.481 515.645ZM525.642 519.984C525.642 518.767 525.252 517.711 524.471 516.862C523.714 516.013 522.704 515.577 521.441 515.577C520.179 515.577 519.169 516.013 518.389 516.862C517.631 517.711 517.241 518.767 517.241 519.984C517.241 521.246 517.631 522.302 518.389 523.151C519.169 524.001 520.179 524.437 521.441 524.437C522.704 524.437 523.714 524.001 524.471 523.151C525.252 522.302 525.642 521.246 525.642 519.984ZM532 512.111C531.082 512.111 530.393 511.445 530.393 510.527C530.393 509.632 531.082 508.989 532 508.989C532.849 508.989 533.561 509.678 533.561 510.527C533.561 511.445 532.849 512.111 532 512.111ZM533.056 513.855V526.158H530.852V513.855H533.056ZM539.692 526.434C537.856 526.434 536.065 525.538 535.124 523.771L536.708 522.554C537.42 523.863 538.636 524.506 539.761 524.506C541.069 524.506 541.942 523.748 541.942 522.807C541.942 522.164 541.574 521.636 540.817 521.246C540.564 521.108 540.036 520.879 539.279 520.558C538.521 520.236 538.016 520.007 537.764 519.869C536.502 519.18 535.882 518.193 535.882 516.885C535.882 515.898 536.249 515.072 536.984 514.429C537.718 513.763 538.682 513.442 539.899 513.442C541.459 513.442 542.974 514.108 543.801 515.393L542.401 516.724C541.735 515.783 540.863 515.301 539.761 515.301C538.659 515.301 537.993 515.967 537.993 516.793C537.993 517.436 538.338 517.918 539.026 518.239L540.381 518.836C541.115 519.134 541.666 519.387 542.033 519.593C543.433 520.305 544.122 521.338 544.122 522.692C544.122 523.748 543.709 524.643 542.883 525.355C542.056 526.066 541 526.434 539.692 526.434ZM553.538 523.725L554.364 525.424C553.469 526.112 552.39 526.457 551.082 526.457C548.488 526.457 547.157 524.781 547.157 521.843V515.737H544.976V513.855H547.18V509.494H549.338V513.855H553.699V515.737H549.338V522.004C549.338 523.633 550.003 524.437 551.335 524.437C552.046 524.437 552.781 524.207 553.538 523.725ZM558.1 526.158H555.897V513.855H557.986V515.668C558.697 514.245 559.891 513.534 561.52 513.534C562.002 513.534 562.484 513.603 562.966 513.717L562.76 515.852C562.324 515.714 561.888 515.645 561.474 515.645C559.523 515.645 558.1 517 558.1 519.639V526.158ZM565.736 512.111C564.818 512.111 564.13 511.445 564.13 510.527C564.13 509.632 564.818 508.989 565.736 508.989C566.586 508.989 567.297 509.678 567.297 510.527C567.297 511.445 566.586 512.111 565.736 512.111ZM566.792 513.855V526.158H564.589V513.855H566.792ZM576.527 513.557C578.272 513.557 579.718 514.176 580.888 515.439C582.059 516.678 582.656 518.193 582.656 520.007C582.656 521.82 582.059 523.335 580.888 524.597C579.718 525.837 578.272 526.457 576.504 526.457C574.737 526.457 573.291 525.768 572.189 524.368V526.158H569.985V508.782H572.189V515.714C573.314 514.268 574.76 513.557 576.527 513.557ZM576.252 524.391C577.491 524.391 578.501 523.978 579.259 523.128C580.039 522.279 580.429 521.223 580.429 519.984C580.429 518.767 580.039 517.734 579.259 516.885C578.501 516.036 577.491 515.623 576.252 515.623C574.989 515.623 573.979 516.036 573.222 516.885C572.464 517.734 572.097 518.767 572.097 519.984C572.097 521.246 572.464 522.279 573.222 523.128C573.979 523.978 574.989 524.391 576.252 524.391ZM590.207 526.457C586.993 526.457 584.927 524.414 584.927 521.2V513.855H587.131V521.131C587.131 523.151 588.279 524.414 590.207 524.414C592.158 524.414 593.306 523.151 593.306 521.131V513.855H595.486V521.2C595.486 524.483 593.489 526.457 590.207 526.457ZM605.717 523.725L606.543 525.424C605.648 526.112 604.569 526.457 603.261 526.457C600.667 526.457 599.336 524.781 599.336 521.843V515.737H597.155V513.855H599.359V509.494H601.517V513.855H605.878V515.737H601.517V522.004C601.517 523.633 602.182 524.437 603.514 524.437C604.225 524.437 604.96 524.207 605.717 523.725ZM609.223 512.111C608.305 512.111 607.617 511.445 607.617 510.527C607.617 509.632 608.305 508.989 609.223 508.989C610.073 508.989 610.784 509.678 610.784 510.527C610.784 511.445 610.073 512.111 609.223 512.111ZM610.279 513.855V526.158H608.076V513.855H610.279ZM619.188 526.457C617.306 526.457 615.745 525.837 614.528 524.597C613.312 523.335 612.715 521.797 612.715 519.984C612.715 518.17 613.312 516.655 614.528 515.416C615.745 514.153 617.306 513.534 619.188 513.534C621.047 513.534 622.585 514.153 623.802 515.416C625.018 516.678 625.638 518.193 625.638 519.984C625.638 521.797 625.018 523.335 623.802 524.597C622.585 525.837 621.047 526.457 619.188 526.457ZM623.434 519.984C623.434 518.767 623.021 517.734 622.195 516.885C621.369 516.013 620.359 515.577 619.188 515.577C618.017 515.577 617.007 516.013 616.181 516.885C615.355 517.734 614.942 518.767 614.942 519.984C614.942 521.2 615.355 522.256 616.181 523.128C617.007 524.001 618.017 524.437 619.188 524.437C620.359 524.437 621.369 524.001 622.195 523.128C623.021 522.256 623.434 521.2 623.434 519.984ZM630.241 526.158H628.037V513.855H630.195V515.6C630.975 514.222 632.284 513.534 634.097 513.534C635.474 513.534 636.622 513.97 637.563 514.865C638.504 515.76 638.963 517.023 638.963 518.698V526.158H636.783V519.318C636.783 516.931 635.497 515.577 633.638 515.577C632.651 515.577 631.825 515.921 631.182 516.632C630.562 517.344 630.241 518.239 630.241 519.341V526.158Z" fill="#FDE2AE"/>
<rect x="469.614" y="598.777" width="187.454" height="98.5091" rx="14.8242" fill="url(#paint18_linear_74_432)" fill-opacity="0.3"/>
<rect x="469.614" y="598.777" width="187.454" height="98.5091" rx="14.8242" stroke="url(#paint19_linear_74_432)" stroke-width="0.956399"/>
<rect x="469.614" y="598.777" width="187.454" height="98.5091" rx="14.8242" stroke="url(#paint20_linear_74_432)" stroke-width="0.956399"/>
<path d="M524.883 653.531H522.381L520.66 649.124H514.21L512.488 653.531H509.986L516.849 636.569H518.089L524.883 653.531ZM519.879 646.967L517.446 640.562L514.99 646.967H519.879ZM536.177 643.019V636.155H538.38V653.531H536.177V651.81C535.098 653.164 533.675 653.83 531.907 653.83C530.117 653.83 528.625 653.21 527.454 651.97C526.284 650.708 525.71 649.17 525.71 647.357C525.71 645.566 526.284 644.051 527.454 642.812C528.625 641.549 530.094 640.93 531.861 640.93C533.629 640.93 535.052 641.618 536.177 643.019ZM536.337 647.357C536.337 646.14 535.947 645.084 535.167 644.235C534.409 643.386 533.399 642.95 532.137 642.95C530.874 642.95 529.864 643.386 529.084 644.235C528.327 645.084 527.936 646.14 527.936 647.357C527.936 648.619 528.327 649.675 529.084 650.524C529.864 651.374 530.874 651.81 532.137 651.81C533.399 651.81 534.409 651.374 535.167 650.524C535.947 649.675 536.337 648.619 536.337 647.357ZM551.257 643.019V636.155H553.461V653.531H551.257V651.81C550.178 653.164 548.755 653.83 546.988 653.83C545.197 653.83 543.705 653.21 542.535 651.97C541.364 650.708 540.79 649.17 540.79 647.357C540.79 645.566 541.364 644.051 542.535 642.812C543.705 641.549 545.174 640.93 546.942 640.93C548.709 640.93 550.132 641.618 551.257 643.019ZM551.418 647.357C551.418 646.14 551.027 645.084 550.247 644.235C549.49 643.386 548.48 642.95 547.217 642.95C545.955 642.95 544.945 643.386 544.164 644.235C543.407 645.084 543.017 646.14 543.017 647.357C543.017 648.619 543.407 649.675 544.164 650.524C544.945 651.374 545.955 651.81 547.217 651.81C548.48 651.81 549.49 651.374 550.247 650.524C551.027 649.675 551.418 648.619 551.418 647.357ZM568.918 651.098L569.745 652.797C568.849 653.485 567.771 653.83 566.462 653.83C563.869 653.83 562.537 652.154 562.537 649.216V643.11H560.357V641.228H562.56V636.867H564.718V641.228H569.079V643.11H564.718V649.377C564.718 651.006 565.383 651.81 566.715 651.81C567.426 651.81 568.161 651.58 568.918 651.098ZM576.813 653.83C574.931 653.83 573.37 653.21 572.154 651.97C570.937 650.708 570.34 649.17 570.34 647.357C570.34 645.543 570.937 644.028 572.154 642.789C573.37 641.527 574.931 640.907 576.813 640.907C578.672 640.907 580.21 641.527 581.427 642.789C582.643 644.051 583.263 645.566 583.263 647.357C583.263 649.17 582.643 650.708 581.427 651.97C580.21 653.21 578.672 653.83 576.813 653.83ZM581.06 647.357C581.06 646.14 580.646 645.107 579.82 644.258C578.994 643.386 577.984 642.95 576.813 642.95C575.642 642.95 574.633 643.386 573.806 644.258C572.98 645.107 572.567 646.14 572.567 647.357C572.567 648.573 572.98 649.629 573.806 650.501C574.633 651.374 575.642 651.81 576.813 651.81C577.984 651.81 578.994 651.374 579.82 650.501C580.646 649.629 581.06 648.573 581.06 647.357ZM602.948 653.531H591.54V636.569H593.836V651.305H602.948V653.531ZM605.141 636.569H610.811C612.601 636.569 613.955 637.096 614.896 638.129C615.837 639.162 616.297 640.379 616.297 641.802C616.297 643.248 615.814 644.488 614.827 645.52C613.84 646.53 612.44 647.035 610.604 647.035H607.436V653.531H605.141V636.569ZM607.436 644.901H610.65C612.853 644.901 614.001 643.478 614.001 641.756C614.001 640.103 612.899 638.726 610.948 638.726H607.436V644.901Z" fill="#FDE2AE"/>
<rect x="469.614" y="308.031" width="187.454" height="98.5091" rx="14.8242" fill="url(#paint21_linear_74_432)" fill-opacity="0.3"/>
<rect x="469.614" y="308.031" width="187.454" height="98.5091" rx="14.8242" stroke="url(#paint22_linear_74_432)" stroke-width="0.956399"/>
<rect x="469.614" y="308.031" width="187.454" height="98.5091" rx="14.8242" stroke="url(#paint23_linear_74_432)" stroke-width="0.956399"/>
<path d="M548.91 353.512C550.998 354.086 552.1 355.877 552.1 357.919C552.1 359.228 551.641 360.376 550.7 361.34C549.782 362.304 548.497 362.786 546.844 362.786H539.843V345.823H546.545C548.015 345.823 549.162 346.259 549.966 347.108C550.792 347.958 551.205 348.945 551.205 350.069C551.205 351.607 550.31 352.984 548.91 353.512ZM546.247 347.958H542.115V352.686H546.178C547.854 352.686 548.864 351.515 548.864 350.207C548.864 349.013 547.877 347.958 546.247 347.958ZM542.115 360.628H546.477C547.464 360.628 548.267 360.353 548.841 359.779C549.438 359.205 549.736 358.516 549.736 357.759C549.736 356.129 548.52 354.775 546.385 354.775H542.115V360.628ZM559.718 363.084C556.504 363.084 554.439 361.041 554.439 357.828V350.483H556.642V357.759C556.642 359.779 557.79 361.041 559.718 361.041C561.669 361.041 562.817 359.779 562.817 357.759V350.483H564.997V357.828C564.997 361.11 563 363.084 559.718 363.084ZM570.224 362.786H568.021V350.483H570.11V352.296C570.821 350.873 572.015 350.161 573.645 350.161C574.127 350.161 574.609 350.23 575.091 350.345L574.884 352.479C574.448 352.342 574.012 352.273 573.599 352.273C571.648 352.273 570.224 353.627 570.224 356.267V362.786ZM578.916 362.786H576.713V350.483H578.87V352.227C579.651 350.85 580.959 350.161 582.773 350.161C584.15 350.161 585.297 350.597 586.239 351.492C587.18 352.388 587.639 353.65 587.639 355.326V362.786H585.458V355.945C585.458 353.558 584.173 352.204 582.313 352.204C581.326 352.204 580.5 352.548 579.857 353.26C579.238 353.971 578.916 354.867 578.916 355.968V362.786Z" fill="#FDE2AE"/>
<rect x="938.25" y="453.403" width="187.454" height="98.5091" rx="14.8242" fill="url(#paint24_linear_74_432)" fill-opacity="0.3"/>
<rect x="938.25" y="453.403" width="187.454" height="98.5091" rx="14.8242" stroke="url(#paint25_linear_74_432)" stroke-width="0.956399"/>
<rect x="938.25" y="453.403" width="187.454" height="98.5091" rx="14.8242" stroke="url(#paint26_linear_74_432)" stroke-width="0.956399"/>
<path d="M1009.37 481.885C1011.46 482.459 1012.57 484.249 1012.57 486.292C1012.57 487.6 1012.11 488.748 1011.17 489.712C1010.25 490.676 1008.96 491.158 1007.31 491.158H1000.31V474.196H1007.01C1008.48 474.196 1009.63 474.632 1010.43 475.481C1011.26 476.33 1011.67 477.317 1011.67 478.442C1011.67 479.98 1010.78 481.357 1009.37 481.885ZM1006.71 476.33H1002.58V481.059H1006.64C1008.32 481.059 1009.33 479.888 1009.33 478.58C1009.33 477.386 1008.34 476.33 1006.71 476.33ZM1002.58 489.001H1006.94C1007.93 489.001 1008.73 488.725 1009.31 488.151C1009.9 487.577 1010.2 486.889 1010.2 486.131C1010.2 484.502 1008.98 483.147 1006.85 483.147H1002.58V489.001ZM1017.27 491.158H1015.06V478.855H1017.15V480.668C1017.86 479.245 1019.06 478.534 1020.69 478.534C1021.17 478.534 1021.65 478.603 1022.13 478.717L1021.93 480.852C1021.49 480.714 1021.06 480.645 1020.64 480.645C1018.69 480.645 1017.27 482 1017.27 484.639V491.158ZM1032.91 480.645V478.855H1035.02V491.158H1032.91V489.414C1031.8 490.768 1030.36 491.457 1028.57 491.457C1026.8 491.457 1025.33 490.837 1024.16 489.574C1022.99 488.312 1022.42 486.774 1022.42 484.915C1022.42 483.079 1022.99 481.564 1024.16 480.37C1025.33 479.153 1026.8 478.557 1028.57 478.557C1030.31 478.557 1031.76 479.245 1032.91 480.645ZM1033.04 484.984C1033.04 483.767 1032.65 482.711 1031.87 481.862C1031.09 481.013 1030.08 480.577 1028.82 480.577C1027.56 480.577 1026.55 481.013 1025.79 481.862C1025.03 482.711 1024.64 483.767 1024.64 485.007C1024.64 486.246 1025.03 487.302 1025.79 488.151C1026.55 489.001 1027.56 489.437 1028.82 489.437C1030.08 489.437 1031.09 489.001 1031.87 488.151C1032.65 487.302 1033.04 486.246 1033.04 484.984ZM1040.41 491.158H1038.21V478.855H1040.37V480.6C1041.15 479.222 1042.46 478.534 1044.27 478.534C1045.65 478.534 1046.79 478.97 1047.73 479.865C1048.68 480.76 1049.14 482.023 1049.14 483.698V491.158H1046.95V484.318C1046.95 481.931 1045.67 480.577 1043.81 480.577C1042.82 480.577 1042 480.921 1041.35 481.632C1040.73 482.344 1040.41 483.239 1040.41 484.341V491.158ZM1061.88 480.645V473.782H1064.08V491.158H1061.88V489.437C1060.8 490.791 1059.38 491.457 1057.61 491.457C1055.82 491.457 1054.33 490.837 1053.16 489.597C1051.99 488.335 1051.41 486.797 1051.41 484.984C1051.41 483.193 1051.99 481.678 1053.16 480.439C1054.33 479.176 1055.8 478.557 1057.56 478.557C1059.33 478.557 1060.75 479.245 1061.88 480.645ZM1062.04 484.984C1062.04 483.767 1061.65 482.711 1060.87 481.862C1060.11 481.013 1059.1 480.577 1057.84 480.577C1056.58 480.577 1055.57 481.013 1054.79 481.862C1054.03 482.711 1053.64 483.767 1053.64 484.984C1053.64 486.246 1054.03 487.302 1054.79 488.151C1055.57 489.001 1056.58 489.437 1057.84 489.437C1059.1 489.437 1060.11 489.001 1060.87 488.151C1061.65 487.302 1062.04 486.246 1062.04 484.984ZM970.711 509.196H976.38C978.171 509.196 979.525 509.723 980.466 510.756C981.407 511.789 981.866 513.006 981.866 514.429C981.866 515.875 981.384 517.114 980.397 518.147C979.41 519.157 978.01 519.662 976.174 519.662H973.006V526.158H970.711V509.196ZM973.006 517.528H976.22C978.423 517.528 979.571 516.105 979.571 514.383C979.571 512.73 978.469 511.353 976.518 511.353H973.006V517.528ZM986.213 526.158H984.01V513.855H986.099V515.668C986.81 514.245 988.004 513.534 989.634 513.534C990.116 513.534 990.598 513.603 991.08 513.717L990.873 515.852C990.437 515.714 990.001 515.645 989.588 515.645C987.637 515.645 986.213 517 986.213 519.639V526.158ZM997.834 526.457C995.952 526.457 994.391 525.837 993.175 524.597C991.958 523.335 991.362 521.797 991.362 519.984C991.362 518.17 991.958 516.655 993.175 515.416C994.391 514.153 995.952 513.534 997.834 513.534C999.694 513.534 1001.23 514.153 1002.45 515.416C1003.66 516.678 1004.28 518.193 1004.28 519.984C1004.28 521.797 1003.66 523.335 1002.45 524.597C1001.23 525.837 999.694 526.457 997.834 526.457ZM1002.08 519.984C1002.08 518.767 1001.67 517.734 1000.84 516.885C1000.02 516.013 999.005 515.577 997.834 515.577C996.664 515.577 995.654 516.013 994.828 516.885C994.001 517.734 993.588 518.767 993.588 519.984C993.588 521.2 994.001 522.256 994.828 523.128C995.654 524.001 996.664 524.437 997.834 524.437C999.005 524.437 1000.02 524.001 1000.84 523.128C1001.67 522.256 1002.08 521.2 1002.08 519.984ZM1020.89 513.534C1022.38 513.534 1023.58 514.016 1024.47 514.98C1025.37 515.921 1025.8 517.206 1025.8 518.836V526.158H1023.6V519.18C1023.6 516.885 1022.48 515.577 1020.64 515.577C1018.71 515.577 1017.36 517.046 1017.36 519.226V526.158H1015.18V519.226C1015.18 516.931 1014.03 515.577 1012.19 515.577C1010.26 515.577 1008.89 517.046 1008.89 519.272V526.158H1006.68V513.855H1008.84V515.668C1009.58 514.314 1010.93 513.511 1012.56 513.534C1014.21 513.534 1015.75 514.383 1016.42 515.829C1017.24 514.429 1018.96 513.534 1020.89 513.534ZM1034.52 526.457C1032.64 526.457 1031.08 525.837 1029.86 524.597C1028.64 523.335 1028.05 521.797 1028.05 519.984C1028.05 518.17 1028.64 516.655 1029.86 515.416C1031.08 514.153 1032.64 513.534 1034.52 513.534C1036.38 513.534 1037.92 514.153 1039.13 515.416C1040.35 516.678 1040.97 518.193 1040.97 519.984C1040.97 521.797 1040.35 523.335 1039.13 524.597C1037.92 525.837 1036.38 526.457 1034.52 526.457ZM1038.76 519.984C1038.76 518.767 1038.35 517.734 1037.52 516.885C1036.7 516.013 1035.69 515.577 1034.52 515.577C1033.35 515.577 1032.34 516.013 1031.51 516.885C1030.68 517.734 1030.27 518.767 1030.27 519.984C1030.27 521.2 1030.68 522.256 1031.51 523.128C1032.34 524.001 1033.35 524.437 1034.52 524.437C1035.69 524.437 1036.7 524.001 1037.52 523.128C1038.35 522.256 1038.76 521.2 1038.76 519.984ZM1050.37 523.725L1051.2 525.424C1050.3 526.112 1049.23 526.457 1047.92 526.457C1045.32 526.457 1043.99 524.781 1043.99 521.843V515.737H1041.81V513.855H1044.01V509.494H1046.17V513.855H1050.53V515.737H1046.17V522.004C1046.17 523.633 1046.84 524.437 1048.17 524.437C1048.88 524.437 1049.62 524.207 1050.37 523.725ZM1053.88 512.111C1052.96 512.111 1052.27 511.445 1052.27 510.527C1052.27 509.632 1052.96 508.989 1053.88 508.989C1054.73 508.989 1055.44 509.678 1055.44 510.527C1055.44 511.445 1054.73 512.111 1053.88 512.111ZM1054.94 513.855V526.158H1052.73V513.855H1054.94ZM1063.84 526.457C1061.96 526.457 1060.4 525.837 1059.18 524.597C1057.97 523.335 1057.37 521.797 1057.37 519.984C1057.37 518.17 1057.97 516.655 1059.18 515.416C1060.4 514.153 1061.96 513.534 1063.84 513.534C1065.7 513.534 1067.24 514.153 1068.46 515.416C1069.67 516.678 1070.29 518.193 1070.29 519.984C1070.29 521.797 1069.67 523.335 1068.46 524.597C1067.24 525.837 1065.7 526.457 1063.84 526.457ZM1068.09 519.984C1068.09 518.767 1067.68 517.734 1066.85 516.885C1066.02 516.013 1065.01 515.577 1063.84 515.577C1062.67 515.577 1061.66 516.013 1060.84 516.885C1060.01 517.734 1059.6 518.767 1059.6 519.984C1059.6 521.2 1060.01 522.256 1060.84 523.128C1061.66 524.001 1062.67 524.437 1063.84 524.437C1065.01 524.437 1066.02 524.001 1066.85 523.128C1067.68 522.256 1068.09 521.2 1068.09 519.984ZM1074.9 526.158H1072.69V513.855H1074.85V515.6C1075.63 514.222 1076.94 513.534 1078.75 513.534C1080.13 513.534 1081.28 513.97 1082.22 514.865C1083.16 515.76 1083.62 517.023 1083.62 518.698V526.158H1081.44V519.318C1081.44 516.931 1080.15 515.577 1078.29 515.577C1077.31 515.577 1076.48 515.921 1075.84 516.632C1075.22 517.344 1074.9 518.239 1074.9 519.341V526.158ZM1090.1 526.434C1088.26 526.434 1086.47 525.538 1085.53 523.771L1087.11 522.554C1087.82 523.863 1089.04 524.506 1090.16 524.506C1091.47 524.506 1092.35 523.748 1092.35 522.807C1092.35 522.164 1091.98 521.636 1091.22 521.246C1090.97 521.108 1090.44 520.879 1089.68 520.558C1088.93 520.236 1088.42 520.007 1088.17 519.869C1086.91 519.18 1086.29 518.193 1086.29 516.885C1086.29 515.898 1086.65 515.072 1087.39 514.429C1088.12 513.763 1089.09 513.442 1090.3 513.442C1091.86 513.442 1093.38 514.108 1094.2 515.393L1092.8 516.724C1092.14 515.783 1091.27 515.301 1090.16 515.301C1089.06 515.301 1088.4 515.967 1088.4 516.793C1088.4 517.436 1088.74 517.918 1089.43 518.239L1090.78 518.836C1091.52 519.134 1092.07 519.387 1092.44 519.593C1093.84 520.305 1094.53 521.338 1094.53 522.692C1094.53 523.748 1094.11 524.643 1093.29 525.355C1092.46 526.066 1091.4 526.434 1090.1 526.434Z" fill="#FDE2AE"/>
<rect x="938.25" y="308.031" width="187.454" height="98.5091" rx="14.8242" fill="url(#paint27_linear_74_432)" fill-opacity="0.3"/>
<rect x="938.25" y="308.031" width="187.454" height="98.5091" rx="14.8242" stroke="url(#paint28_linear_74_432)" stroke-width="0.956399"/>
<rect x="938.25" y="308.031" width="187.454" height="98.5091" rx="14.8242" stroke="url(#paint29_linear_74_432)" stroke-width="0.956399"/>
<path d="M982.694 362.786H976.611V345.823H982.924C985.334 345.823 987.216 346.58 988.616 348.118C990.016 349.656 990.728 351.722 990.728 354.339C990.728 356.932 990.016 358.998 988.57 360.513C987.147 362.028 985.196 362.786 982.694 362.786ZM978.907 348.004V360.605H982.786C984.53 360.605 985.885 360.008 986.872 358.838C987.859 357.644 988.341 356.129 988.341 354.27C988.341 352.434 987.859 350.942 986.872 349.771C985.885 348.6 984.53 348.004 982.786 348.004H978.907ZM999.056 363.084C997.174 363.084 995.613 362.464 994.396 361.225C993.18 359.962 992.583 358.424 992.583 356.611C992.583 354.798 993.18 353.283 994.396 352.043C995.613 350.781 997.174 350.161 999.056 350.161C1000.91 350.161 1002.45 350.781 1003.67 352.043C1004.89 353.306 1005.51 354.821 1005.51 356.611C1005.51 358.424 1004.89 359.962 1003.67 361.225C1002.45 362.464 1000.91 363.084 999.056 363.084ZM1003.3 356.611C1003.3 355.395 1002.89 354.362 1002.06 353.512C1001.24 352.64 1000.23 352.204 999.056 352.204C997.885 352.204 996.875 352.64 996.049 353.512C995.222 354.362 994.809 355.395 994.809 356.611C994.809 357.828 995.222 358.884 996.049 359.756C996.875 360.628 997.885 361.064 999.056 361.064C1000.23 361.064 1001.24 360.628 1002.06 359.756C1002.89 358.884 1003.3 357.828 1003.3 356.611ZM1010.11 362.786H1007.91V350.483H1010.06V352.227C1010.84 350.85 1012.15 350.161 1013.96 350.161C1015.34 350.161 1016.49 350.597 1017.43 351.492C1018.37 352.388 1018.83 353.65 1018.83 355.326V362.786H1016.65V355.945C1016.65 353.558 1015.36 352.204 1013.51 352.204C1012.52 352.204 1011.69 352.548 1011.05 353.26C1010.43 353.971 1010.11 354.867 1010.11 355.968V362.786ZM1031.6 352.273V350.483H1033.71V362.786H1031.6V361.041C1030.5 362.395 1029.05 363.084 1027.26 363.084C1025.49 363.084 1024.02 362.464 1022.85 361.202C1021.68 359.939 1021.11 358.402 1021.11 356.542C1021.11 354.706 1021.68 353.191 1022.85 351.997C1024.02 350.781 1025.49 350.184 1027.26 350.184C1029 350.184 1030.45 350.873 1031.6 352.273ZM1031.73 356.611C1031.73 355.395 1031.34 354.339 1030.56 353.489C1029.78 352.64 1028.77 352.204 1027.51 352.204C1026.25 352.204 1025.24 352.64 1024.48 353.489C1023.72 354.339 1023.33 355.395 1023.33 356.634C1023.33 357.874 1023.72 358.929 1024.48 359.779C1025.24 360.628 1026.25 361.064 1027.51 361.064C1028.77 361.064 1029.78 360.628 1030.56 359.779C1031.34 358.929 1031.73 357.874 1031.73 356.611ZM1044.11 360.353L1044.93 362.051C1044.04 362.74 1042.96 363.084 1041.65 363.084C1039.06 363.084 1037.73 361.408 1037.73 358.47V352.365H1035.55V350.483H1037.75V346.121H1039.91V350.483H1044.27V352.365H1039.91V358.631C1039.91 360.261 1040.57 361.064 1041.9 361.064C1042.62 361.064 1043.35 360.835 1044.11 360.353ZM1047.61 348.738C1046.7 348.738 1046.01 348.072 1046.01 347.154C1046.01 346.259 1046.7 345.616 1047.61 345.616C1048.46 345.616 1049.17 346.305 1049.17 347.154C1049.17 348.072 1048.46 348.738 1047.61 348.738ZM1048.67 350.483V362.786H1046.47V350.483H1048.67ZM1057.58 363.084C1055.7 363.084 1054.14 362.464 1052.92 361.225C1051.7 359.962 1051.11 358.424 1051.11 356.611C1051.11 354.798 1051.7 353.283 1052.92 352.043C1054.14 350.781 1055.7 350.161 1057.58 350.161C1059.44 350.161 1060.98 350.781 1062.19 352.043C1063.41 353.306 1064.03 354.821 1064.03 356.611C1064.03 358.424 1063.41 359.962 1062.19 361.225C1060.98 362.464 1059.44 363.084 1057.58 363.084ZM1061.82 356.611C1061.82 355.395 1061.41 354.362 1060.59 353.512C1059.76 352.64 1058.75 352.204 1057.58 352.204C1056.41 352.204 1055.4 352.64 1054.57 353.512C1053.75 354.362 1053.33 355.395 1053.33 356.611C1053.33 357.828 1053.75 358.884 1054.57 359.756C1055.4 360.628 1056.41 361.064 1057.58 361.064C1058.75 361.064 1059.76 360.628 1060.59 359.756C1061.41 358.884 1061.82 357.828 1061.82 356.611ZM1068.63 362.786H1066.43V350.483H1068.59V352.227C1069.37 350.85 1070.67 350.161 1072.49 350.161C1073.86 350.161 1075.01 350.597 1075.95 351.492C1076.89 352.388 1077.35 353.65 1077.35 355.326V362.786H1075.17V355.945C1075.17 353.558 1073.89 352.204 1072.03 352.204C1071.04 352.204 1070.22 352.548 1069.57 353.26C1068.95 353.971 1068.63 354.867 1068.63 355.968V362.786ZM1083.83 363.061C1081.99 363.061 1080.2 362.166 1079.26 360.398L1080.85 359.182C1081.56 360.49 1082.77 361.133 1083.9 361.133C1085.21 361.133 1086.08 360.376 1086.08 359.434C1086.08 358.792 1085.71 358.264 1084.96 357.874C1084.7 357.736 1084.17 357.506 1083.42 357.185C1082.66 356.864 1082.15 356.634 1081.9 356.496C1080.64 355.808 1080.02 354.821 1080.02 353.512C1080.02 352.525 1080.39 351.699 1081.12 351.056C1081.86 350.391 1082.82 350.069 1084.04 350.069C1085.6 350.069 1087.11 350.735 1087.94 352.02L1086.54 353.352C1085.87 352.411 1085 351.929 1083.9 351.929C1082.8 351.929 1082.13 352.594 1082.13 353.421C1082.13 354.063 1082.48 354.545 1083.16 354.867L1084.52 355.463C1085.25 355.762 1085.8 356.014 1086.17 356.221C1087.57 356.932 1088.26 357.965 1088.26 359.32C1088.26 360.376 1087.85 361.271 1087.02 361.982C1086.19 362.694 1085.14 363.061 1083.83 363.061Z" fill="#FDE2AE"/>
<path opacity="0.64" d="M234.06 503.334C234.433 502.961 234.433 502.355 234.06 501.982L227.973 495.895C227.6 495.522 226.994 495.522 226.621 495.895C226.247 496.269 226.247 496.874 226.621 497.248L232.031 502.658L226.621 508.068C226.247 508.442 226.247 509.047 226.621 509.421C226.994 509.794 227.6 509.794 227.973 509.421L234.06 503.334ZM190.345 502.658V503.615H233.383V502.658V501.702H190.345V502.658Z" fill="#FDE2AE"/>
<path opacity="0.64" d="M468.377 503.334C468.751 502.961 468.751 502.355 468.377 501.982L462.291 495.895C461.917 495.522 461.312 495.522 460.938 495.895C460.565 496.269 460.565 496.874 460.938 497.248L466.349 502.658L460.938 508.068C460.565 508.442 460.565 509.047 460.938 509.421C461.312 509.794 461.917 509.794 462.291 509.421L468.377 503.334ZM424.663 502.658V503.615H467.701V502.658V501.702H424.663V502.658Z" fill="#FDE2AE"/>
<path opacity="0.64" d="M702.695 503.334C703.069 502.961 703.069 502.355 702.695 501.982L696.609 495.895C696.235 495.522 695.63 495.522 695.256 495.895C694.883 496.269 694.883 496.874 695.256 497.248L700.666 502.658L695.256 508.068C694.883 508.442 694.883 509.047 695.256 509.421C695.63 509.794 696.235 509.794 696.609 509.421L702.695 503.334ZM658.981 502.658V503.615H702.019V502.658V501.702H658.981V502.658Z" fill="#FDE2AE"/>
<path opacity="0.64" d="M702.695 178.159C703.069 177.785 703.069 177.18 702.695 176.806L696.609 170.72C696.235 170.346 695.63 170.346 695.256 170.72C694.883 171.093 694.883 171.699 695.256 172.072L700.666 177.482L695.256 182.893C694.883 183.266 694.883 183.872 695.256 184.245C695.63 184.619 696.235 184.619 696.609 184.245L702.695 178.159ZM658.981 177.482V178.439H702.019V177.482V176.526H658.981V177.482Z" fill="#FDE2AE"/>
<path opacity="0.64" d="M937.491 178.159C937.865 177.785 937.865 177.18 937.491 176.806L931.405 170.72C931.031 170.346 930.426 170.346 930.052 170.72C929.679 171.093 929.679 171.699 930.052 172.072L935.463 177.482L930.052 182.893C929.679 183.266 929.679 183.872 930.052 184.245C930.426 184.619 931.031 184.619 931.405 184.245L937.491 178.159ZM893.777 177.482V178.439H936.815V177.482V176.526H893.777V177.482Z" fill="#FDE2AE"/>
<path opacity="0.64" d="M1170.85 178.159C1171.23 177.785 1171.23 177.18 1170.85 176.806L1164.77 170.72C1164.39 170.346 1163.79 170.346 1163.41 170.72C1163.04 171.093 1163.04 171.699 1163.41 172.072L1168.82 177.482L1163.41 182.893C1163.04 183.266 1163.04 183.872 1163.41 184.245C1163.79 184.619 1164.39 184.619 1164.77 184.245L1170.85 178.159ZM1127.14 177.482V178.439H1170.18V177.482V176.526H1127.14V177.482Z" fill="#FDE2AE"/>
<path opacity="0.64" d="M796.504 450.733C796.878 451.106 797.484 451.106 797.857 450.733L803.943 444.646C804.317 444.273 804.317 443.667 803.943 443.294C803.57 442.92 802.964 442.92 802.591 443.294L797.181 448.704L791.771 443.294C791.397 442.92 790.791 442.92 790.418 443.294C790.044 443.667 790.044 444.273 790.418 444.646L796.504 450.733ZM797.181 409.888L796.224 409.888L796.224 450.056L797.181 450.056L798.137 450.056L798.137 409.888L797.181 409.888Z" fill="#FDE2AE"/>
<path opacity="0.64" d="M328.825 596.105C329.199 596.479 329.804 596.479 330.178 596.105L336.264 590.019C336.638 589.645 336.638 589.04 336.264 588.666C335.891 588.293 335.285 588.293 334.912 588.666L329.501 594.076L324.091 588.666C323.718 588.293 323.112 588.293 322.739 588.666C322.365 589.04 322.365 589.645 322.739 590.019L328.825 596.105ZM329.501 555.26L328.545 555.26L328.545 595.429L329.501 595.429L330.458 595.429L330.458 555.26L329.501 555.26Z" fill="#FDE2AE"/>
<path opacity="0.64" d="M1031.78 450.733C1032.15 451.106 1032.76 451.106 1033.13 450.733L1039.22 444.646C1039.59 444.273 1039.59 443.667 1039.22 443.294C1038.84 442.92 1038.24 442.92 1037.87 443.294L1032.45 448.704L1027.04 443.294C1026.67 442.92 1026.07 442.92 1025.69 443.294C1025.32 443.667 1025.32 444.273 1025.69 444.646L1031.78 450.733ZM1032.45 409.888L1031.5 409.888L1031.5 450.056L1032.45 450.056L1033.41 450.056L1033.41 409.888L1032.45 409.888Z" fill="#FDE2AE"/>
<path opacity="0.64" d="M1048.04 305.36C1048.41 305.733 1049.02 305.733 1049.39 305.36L1055.48 299.273C1055.85 298.9 1055.85 298.294 1055.48 297.921C1055.1 297.547 1054.5 297.547 1054.12 297.921L1048.71 303.331L1043.3 297.921C1042.93 297.547 1042.32 297.547 1041.95 297.921C1041.58 298.294 1041.58 298.9 1041.95 299.273L1048.04 305.36ZM1048.71 231.041L1047.76 231.041L1047.76 232.882L1048.71 232.882L1049.67 232.882L1049.67 231.041L1048.71 231.041ZM1048.71 236.564L1047.76 236.564L1047.76 240.246L1048.71 240.246L1049.67 240.246L1049.67 236.564L1048.71 236.564ZM1048.71 243.928L1047.76 243.928L1047.76 247.61L1048.71 247.61L1049.67 247.61L1049.67 243.928L1048.71 243.928ZM1048.71 251.292L1047.76 251.292L1047.76 254.974L1048.71 254.974L1049.67 254.974L1049.67 251.292L1048.71 251.292ZM1048.71 258.657L1047.76 258.657L1047.76 262.339L1048.71 262.339L1049.67 262.339L1049.67 258.657L1048.71 258.657ZM1048.71 266.021L1047.76 266.021L1047.76 269.703L1048.71 269.703L1049.67 269.703L1049.67 266.021L1048.71 266.021ZM1048.71 273.385L1047.76 273.385L1047.76 277.067L1048.71 277.067L1049.67 277.067L1049.67 273.385L1048.71 273.385ZM1048.71 280.749L1047.76 280.749L1047.76 284.432L1048.71 284.432L1049.67 284.432L1049.67 280.749L1048.71 280.749ZM1048.71 288.114L1047.76 288.114L1047.76 291.796L1048.71 291.796L1049.67 291.796L1049.67 288.114L1048.71 288.114ZM1048.71 295.478L1047.76 295.478L1047.76 299.16L1048.71 299.16L1049.67 299.16L1049.67 295.478L1048.71 295.478ZM1048.71 302.842L1047.76 302.842L1047.76 304.683L1048.71 304.683L1049.67 304.683L1049.67 302.842L1048.71 302.842Z" fill="#FDE2AE"/>
<path opacity="0.64" d="M796.504 305.36C796.878 305.733 797.484 305.733 797.857 305.36L803.943 299.273C804.317 298.9 804.317 298.294 803.943 297.921C803.57 297.547 802.964 297.547 802.591 297.921L797.181 303.331L791.771 297.921C791.397 297.547 790.791 297.547 790.418 297.921C790.044 298.294 790.044 298.9 790.418 299.273L796.504 305.36ZM797.181 231.041L796.224 231.041L796.224 304.683L797.181 304.683L798.137 304.683L798.137 231.041L797.181 231.041Z" fill="#FDE2AE"/>
<path opacity="0.64" d="M466.943 176.806C467.316 177.179 467.316 177.785 466.943 178.159L460.856 184.245C460.483 184.619 459.877 184.619 459.504 184.245C459.13 183.872 459.13 183.266 459.504 182.892L464.914 177.482L459.504 172.072C459.13 171.699 459.13 171.093 459.504 170.72C459.877 170.346 460.483 170.346 460.856 170.72L466.943 176.806ZM329.501 452.925H328.545V200.436H329.501H330.458V452.925H329.501ZM352.455 177.482V176.526H466.267V177.482V178.439H352.455V177.482ZM329.501 200.436H328.545C328.545 187.231 339.25 176.526 352.455 176.526V177.482V178.439C340.306 178.439 330.458 188.287 330.458 200.436H329.501Z" fill="#FDE2AE"/>
<path opacity="0.64" d="M1266.29 230.084V243.474C1266.29 256.151 1256.02 266.428 1243.34 266.428H820.134C807.457 266.428 797.181 276.704 797.181 289.381V303.727" stroke="#FDE2AE" stroke-width="1.9128"/>
<path opacity="0.64" d="M1022.89 230.084V243.474C1022.89 256.151 1012.61 266.428 999.937 266.428H988.461" stroke="#FDE2AE" stroke-width="1.9128"/>
<path opacity="0.64" d="M94.4252 556.497C94.0517 556.123 93.4461 556.123 93.0726 556.497L86.9861 562.583C86.6126 562.957 86.6126 563.562 86.9861 563.936C87.3596 564.309 87.9652 564.309 88.3387 563.936L93.7489 558.526L99.1591 563.936C99.5326 564.309 100.138 564.309 100.512 563.936C100.885 563.562 100.885 562.957 100.512 562.583L94.4252 556.497ZM1131.92 502.658V503.615H1239.04V502.658V501.702H1131.92V502.658ZM1261.99 525.612H1261.03V735.541H1261.99H1262.95V525.612H1261.99ZM1239.04 758.495V757.539H116.703V758.495V759.451H1239.04V758.495ZM93.7489 735.541H94.7053V557.173H93.7489H92.7925V735.541H93.7489ZM116.703 758.495V757.539C104.554 757.539 94.7053 747.69 94.7053 735.541H93.7489H92.7925C92.7925 748.747 103.497 759.451 116.703 759.451V758.495ZM1261.99 735.541H1261.03C1261.03 747.69 1251.19 757.539 1239.04 757.539V758.495V759.451C1252.24 759.451 1262.95 748.747 1262.95 735.541H1261.99ZM1239.04 502.658V503.615C1251.19 503.615 1261.03 513.463 1261.03 525.612H1261.99H1262.95C1262.95 512.407 1252.24 501.702 1239.04 501.702V502.658Z" fill="#FDE2AE"/>
<path opacity="0.64" d="M89.7253 449.776C90.0988 450.15 90.7044 450.15 91.0779 449.776L97.1644 443.69C97.5379 443.316 97.5379 442.711 97.1644 442.337C96.7909 441.964 96.1853 441.964 95.8118 442.337L90.4016 447.747L84.9914 442.337C84.6179 441.964 84.0123 441.964 83.6388 442.337C83.2653 442.711 83.2653 443.316 83.6388 443.69L89.7253 449.776ZM1266.77 126.639H1267.73V24.4585H1266.77H1265.82V126.639H1266.77ZM1243.82 1.50488V0.548483H113.355V1.50488V2.46128H1243.82V1.50488ZM90.4016 24.4585H89.4452V449.1H90.4016H91.358V24.4585H90.4016ZM113.355 1.50488V0.548483C100.15 0.548483 89.4452 11.2533 89.4452 24.4585H90.4016H91.358C91.358 12.3098 101.207 2.46128 113.355 2.46128V1.50488ZM1266.77 24.4585H1267.73C1267.73 11.2534 1257.02 0.548483 1243.82 0.548483V1.50488V2.46128C1255.97 2.46128 1265.82 12.3098 1265.82 24.4585H1266.77Z" fill="#FDE2AE"/>
<path opacity="0.64" d="M1029.59 124.88V65.5835C1029.59 52.9066 1019.31 42.6299 1006.63 42.6299H111.921C100.036 42.6299 90.4016 52.2643 90.4016 64.1489V64.1489" stroke="#FDE2AE" stroke-width="1.9128"/>
<path opacity="0.64" d="M798.137 127.749V111.491C798.137 98.8138 787.861 88.5371 775.184 88.5371H107.882C98.2278 88.5371 90.4016 96.3633 90.4016 106.017V106.017" stroke="#FDE2AE" stroke-width="1.9128"/>
<path opacity="0.64" d="M936.535 505.726C936.908 505.352 936.908 504.747 936.535 504.373L930.448 498.287C930.075 497.913 929.469 497.913 929.096 498.287C928.722 498.66 928.722 499.266 929.096 499.639L934.506 505.049L929.096 510.46C928.722 510.833 928.722 511.439 929.096 511.812C929.469 512.186 930.075 512.186 930.448 511.812L936.535 505.726ZM893.777 357.286V358.242H903.819V357.286V356.329H893.777V357.286ZM915.296 368.762H914.34V493.573H915.296H916.252V368.762H915.296ZM926.773 505.049V506.006H935.859V505.049V504.093H926.773V505.049ZM915.296 493.573H914.34C914.34 500.439 919.906 506.006 926.773 506.006V505.049V504.093C920.963 504.093 916.252 499.383 916.252 493.573H915.296ZM903.819 357.286V358.242C909.63 358.242 914.34 362.952 914.34 368.762H915.296H916.252C916.252 361.896 910.686 356.329 903.819 356.329V357.286Z" fill="#FDE2AE"/>
<rect x="469.614" y="129.184" width="187.454" height="98.5091" rx="14.8242" fill="url(#paint30_linear_74_432)" fill-opacity="0.3"/>
<rect x="469.614" y="129.184" width="187.454" height="98.5091" rx="14.8242" stroke="url(#paint31_linear_74_432)" stroke-width="0.956399"/>
<rect x="469.614" y="129.184" width="187.454" height="98.5091" rx="14.8242" stroke="url(#paint32_linear_74_432)" stroke-width="0.956399"/>
<path d="M527.479 183.939H516.071V166.976H518.366V181.712H527.479V183.939ZM534.727 184.237C532.845 184.237 531.284 183.618 530.067 182.378C528.851 181.116 528.254 179.578 528.254 177.764C528.254 175.951 528.851 174.436 530.067 173.197C531.284 171.934 532.845 171.314 534.727 171.314C536.586 171.314 538.124 171.934 539.341 173.197C540.557 174.459 541.177 175.974 541.177 177.764C541.177 179.578 540.557 181.116 539.341 182.378C538.124 183.618 536.586 184.237 534.727 184.237ZM538.973 177.764C538.973 176.548 538.56 175.515 537.734 174.666C536.907 173.793 535.898 173.357 534.727 173.357C533.556 173.357 532.546 173.793 531.72 174.666C530.894 175.515 530.48 176.548 530.48 177.764C530.48 178.981 530.894 180.037 531.72 180.909C532.546 181.781 533.556 182.217 534.727 182.217C535.898 182.217 536.907 181.781 537.734 180.909C538.56 180.037 538.973 178.981 538.973 177.764ZM550.582 181.506L551.408 183.204C550.513 183.893 549.434 184.237 548.126 184.237C545.532 184.237 544.201 182.562 544.201 179.624V173.518H542.02V171.636H544.224V167.275H546.381V171.636H550.743V173.518H546.381V179.784C546.381 181.414 547.047 182.217 548.378 182.217C549.09 182.217 549.824 181.988 550.582 181.506ZM560.148 181.506L560.974 183.204C560.079 183.893 559 184.237 557.692 184.237C555.098 184.237 553.767 182.562 553.767 179.624V173.518H551.586V171.636H553.79V167.275H555.947V171.636H560.309V173.518H555.947V179.784C555.947 181.414 556.613 182.217 557.944 182.217C558.656 182.217 559.391 181.988 560.148 181.506ZM573.758 177.558C573.758 177.719 573.735 178.086 573.689 178.683H563.888C564.255 180.771 565.633 182.194 568.203 182.194C569.672 182.194 571.371 181.644 572.496 180.817L573.437 182.493C572.22 183.434 570.2 184.214 568.158 184.214C563.521 184.214 561.593 180.932 561.593 177.741C561.593 175.882 562.167 174.367 563.314 173.151C564.485 171.934 565.977 171.337 567.813 171.337C569.558 171.337 570.981 171.888 572.083 173.013C573.207 174.138 573.758 175.653 573.758 177.558ZM563.888 176.777H571.486C571.371 174.643 569.833 173.289 567.813 173.289C565.793 173.289 564.255 174.735 563.888 176.777ZM578.334 183.939H576.13V171.636H578.219V173.449C578.93 172.026 580.124 171.314 581.754 171.314C582.236 171.314 582.718 171.383 583.2 171.498L582.993 173.633C582.557 173.495 582.121 173.426 581.708 173.426C579.757 173.426 578.334 174.78 578.334 177.42V183.939ZM585.97 169.891C585.051 169.891 584.363 169.226 584.363 168.308C584.363 167.412 585.051 166.77 585.97 166.77C586.819 166.77 587.53 167.458 587.53 168.308C587.53 169.226 586.819 169.891 585.97 169.891ZM587.025 171.636V183.939H584.822V171.636H587.025ZM601.65 177.558C601.65 177.719 601.627 178.086 601.581 178.683H591.779C592.147 180.771 593.524 182.194 596.095 182.194C597.564 182.194 599.262 181.644 600.387 180.817L601.328 182.493C600.112 183.434 598.092 184.214 596.049 184.214C591.412 184.214 589.484 180.932 589.484 177.741C589.484 175.882 590.058 174.367 591.206 173.151C592.376 171.934 593.868 171.337 595.705 171.337C597.449 171.337 598.872 171.888 599.974 173.013C601.099 174.138 601.65 175.653 601.65 177.558ZM591.779 176.777H599.377C599.262 174.643 597.724 173.289 595.705 173.289C593.685 173.289 592.147 174.735 591.779 176.777ZM607.464 184.214C605.628 184.214 603.838 183.319 602.897 181.552L604.48 180.335C605.192 181.644 606.408 182.286 607.533 182.286C608.842 182.286 609.714 181.529 609.714 180.588C609.714 179.945 609.347 179.417 608.589 179.027C608.337 178.889 607.809 178.66 607.051 178.338C606.294 178.017 605.789 177.787 605.536 177.65C604.274 176.961 603.654 175.974 603.654 174.666C603.654 173.679 604.021 172.852 604.756 172.21C605.49 171.544 606.454 171.223 607.671 171.223C609.232 171.223 610.747 171.888 611.573 173.174L610.173 174.505C609.507 173.564 608.635 173.082 607.533 173.082C606.431 173.082 605.766 173.748 605.766 174.574C605.766 175.217 606.11 175.699 606.799 176.02L608.153 176.617C608.887 176.915 609.438 177.168 609.806 177.374C611.206 178.086 611.894 179.119 611.894 180.473C611.894 181.529 611.481 182.424 610.655 183.136C609.829 183.847 608.773 184.214 607.464 184.214Z" fill="#FDE2AE"/>
<rect x="703.932" y="129.184" width="187.454" height="98.5091" rx="14.8242" fill="url(#paint33_linear_74_432)" fill-opacity="0.3"/>
<rect x="703.932" y="129.184" width="187.454" height="98.5091" rx="14.8242" stroke="url(#paint34_linear_74_432)" stroke-width="0.956399"/>
<rect x="703.932" y="129.184" width="187.454" height="98.5091" rx="14.8242" stroke="url(#paint35_linear_74_432)" stroke-width="0.956399"/>
<path d="M768.328 166.939H766.01V149.976H768.328V157.138H776.844V149.976H779.14V166.939H776.844V159.341H768.328V166.939ZM782.073 158.561C782.073 156.105 782.923 153.993 784.644 152.272C786.366 150.55 788.432 149.678 790.842 149.678C793.252 149.678 795.318 150.55 797.039 152.272C798.761 153.993 799.633 156.059 799.633 158.469C799.633 160.879 798.761 162.945 797.039 164.667C795.318 166.365 793.229 167.214 790.773 167.214C788.317 167.214 786.251 166.388 784.575 164.712C782.9 163.037 782.073 160.994 782.073 158.561ZM797.246 158.492C797.246 156.633 796.626 155.072 795.386 153.81C794.147 152.547 792.632 151.927 790.842 151.927C789.074 151.927 787.559 152.57 786.32 153.832C785.08 155.095 784.461 156.633 784.461 158.492C784.461 160.328 785.08 161.866 786.297 163.129C787.513 164.368 789.028 164.988 790.842 164.988C792.655 164.988 794.17 164.368 795.386 163.129C796.626 161.889 797.246 160.351 797.246 158.492ZM808.664 166.939H802.582V149.976H808.894C811.304 149.976 813.186 150.734 814.586 152.272C815.987 153.81 816.698 155.875 816.698 158.492C816.698 161.086 815.987 163.152 814.54 164.667C813.117 166.181 811.166 166.939 808.664 166.939ZM804.877 152.157V164.758H808.756C810.501 164.758 811.855 164.162 812.842 162.991C813.829 161.797 814.311 160.282 814.311 158.423C814.311 156.587 813.829 155.095 812.842 153.924C811.855 152.754 810.501 152.157 808.756 152.157H804.877ZM831.155 166.939H819.747V149.976H822.042V164.712H831.155V166.939ZM770.018 201.939H758.61V184.976H760.905V199.712H770.018V201.939ZM777.266 202.237C775.384 202.237 773.823 201.618 772.606 200.378C771.39 199.116 770.793 197.578 770.793 195.764C770.793 193.951 771.39 192.436 772.606 191.197C773.823 189.934 775.384 189.314 777.266 189.314C779.125 189.314 780.663 189.934 781.88 191.197C783.096 192.459 783.716 193.974 783.716 195.764C783.716 197.578 783.096 199.116 781.88 200.378C780.663 201.618 779.125 202.237 777.266 202.237ZM781.512 195.764C781.512 194.548 781.099 193.515 780.273 192.666C779.447 191.793 778.437 191.357 777.266 191.357C776.095 191.357 775.085 191.793 774.259 192.666C773.433 193.515 773.02 194.548 773.02 195.764C773.02 196.981 773.433 198.037 774.259 198.909C775.085 199.781 776.095 200.217 777.266 200.217C778.437 200.217 779.447 199.781 780.273 198.909C781.099 198.037 781.512 196.981 781.512 195.764ZM793.121 199.506L793.947 201.204C793.052 201.893 791.973 202.237 790.665 202.237C788.071 202.237 786.74 200.562 786.74 197.624V191.518H784.559V189.636H786.763V185.275H788.92V189.636H793.282V191.518H788.92V197.784C788.92 199.414 789.586 200.217 790.917 200.217C791.629 200.217 792.363 199.988 793.121 199.506ZM802.687 199.506L803.513 201.204C802.618 201.893 801.539 202.237 800.231 202.237C797.637 202.237 796.306 200.562 796.306 197.624V191.518H794.125V189.636H796.329V185.275H798.487V189.636H802.848V191.518H798.487V197.784C798.487 199.414 799.152 200.217 800.483 200.217C801.195 200.217 801.93 199.988 802.687 199.506ZM816.297 195.558C816.297 195.719 816.274 196.086 816.228 196.683H806.427C806.794 198.771 808.172 200.194 810.742 200.194C812.212 200.194 813.91 199.644 815.035 198.817L815.976 200.493C814.759 201.434 812.739 202.214 810.697 202.214C806.06 202.214 804.132 198.932 804.132 195.741C804.132 193.882 804.706 192.367 805.853 191.151C807.024 189.934 808.516 189.337 810.352 189.337C812.097 189.337 813.52 189.888 814.622 191.013C815.746 192.138 816.297 193.653 816.297 195.558ZM806.427 194.777H814.025C813.91 192.643 812.372 191.289 810.352 191.289C808.332 191.289 806.794 192.735 806.427 194.777ZM820.873 201.939H818.669V189.636H820.758V191.449C821.469 190.026 822.663 189.314 824.293 189.314C824.775 189.314 825.257 189.383 825.739 189.498L825.532 191.633C825.096 191.495 824.66 191.426 824.247 191.426C822.296 191.426 820.873 192.78 820.873 195.42V201.939ZM832.767 198.863L836.072 189.636H838.506L833.341 203.316C832.308 206.071 831 207.172 829.072 207.172C828.268 207.172 827.626 207.012 827.098 206.69L827.373 204.762C827.947 205.015 828.452 205.13 828.865 205.13C829.875 205.13 830.678 204.418 831.298 202.972L831.757 201.893L826.409 189.636H828.957L832.767 198.863Z" fill="#FDE2AE"/>
<rect x="938.25" y="129.184" width="187.454" height="98.5091" rx="14.8242" fill="url(#paint36_linear_74_432)" fill-opacity="0.3"/>
<rect x="938.25" y="129.184" width="187.454" height="98.5091" rx="14.8242" stroke="url(#paint37_linear_74_432)" stroke-width="0.956399"/>
<rect x="938.25" y="129.184" width="187.454" height="98.5091" rx="14.8242" stroke="url(#paint38_linear_74_432)" stroke-width="0.956399"/>
<path d="M987.973 166.939H981.891V149.976H988.203C990.613 149.976 992.495 150.734 993.895 152.272C995.296 153.81 996.007 155.875 996.007 158.492C996.007 161.086 995.296 163.152 993.849 164.667C992.426 166.181 990.475 166.939 987.973 166.939ZM984.186 152.157V164.758H988.065C989.81 164.758 991.164 164.162 992.151 162.991C993.138 161.797 993.62 160.282 993.62 158.423C993.62 156.587 993.138 155.095 992.151 153.924C991.164 152.754 989.81 152.157 988.065 152.157H984.186ZM1004.33 167.237C1002.45 167.237 1000.89 166.618 999.675 165.378C998.459 164.116 997.862 162.578 997.862 160.764C997.862 158.951 998.459 157.436 999.675 156.197C1000.89 154.934 1002.45 154.314 1004.33 154.314C1006.19 154.314 1007.73 154.934 1008.95 156.197C1010.17 157.459 1010.78 158.974 1010.78 160.764C1010.78 162.578 1010.17 164.116 1008.95 165.378C1007.73 166.618 1006.19 167.237 1004.33 167.237ZM1008.58 160.764C1008.58 159.548 1008.17 158.515 1007.34 157.666C1006.52 156.793 1005.51 156.357 1004.33 156.357C1003.16 156.357 1002.15 156.793 1001.33 157.666C1000.5 158.515 1000.09 159.548 1000.09 160.764C1000.09 161.981 1000.5 163.037 1001.33 163.909C1002.15 164.781 1003.16 165.217 1004.33 165.217C1005.51 165.217 1006.52 164.781 1007.34 163.909C1008.17 163.037 1008.58 161.981 1008.58 160.764ZM1015.39 166.939H1013.18V154.636H1015.34V156.38C1016.12 155.003 1017.43 154.314 1019.24 154.314C1020.62 154.314 1021.77 154.751 1022.71 155.646C1023.65 156.541 1024.11 157.803 1024.11 159.479V166.939H1021.93V160.099C1021.93 157.712 1020.64 156.357 1018.78 156.357C1017.8 156.357 1016.97 156.702 1016.33 157.413C1015.71 158.125 1015.39 159.02 1015.39 160.122V166.939ZM1036.88 156.426V154.636H1038.99V166.939H1036.88V165.194C1035.77 166.549 1034.33 167.237 1032.54 167.237C1030.77 167.237 1029.3 166.618 1028.13 165.355C1026.96 164.093 1026.39 162.555 1026.39 160.696C1026.39 158.859 1026.96 157.344 1028.13 156.151C1029.3 154.934 1030.77 154.337 1032.54 154.337C1034.28 154.337 1035.73 155.026 1036.88 156.426ZM1037.01 160.764C1037.01 159.548 1036.62 158.492 1035.84 157.643C1035.06 156.793 1034.05 156.357 1032.79 156.357C1031.53 156.357 1030.52 156.793 1029.76 157.643C1029 158.492 1028.61 159.548 1028.61 160.787C1028.61 162.027 1029 163.083 1029.76 163.932C1030.52 164.781 1031.53 165.217 1032.79 165.217C1034.05 165.217 1035.06 164.781 1035.84 163.932C1036.62 163.083 1037.01 162.027 1037.01 160.764ZM1049.39 164.506L1050.21 166.204C1049.32 166.893 1048.24 167.237 1046.93 167.237C1044.34 167.237 1043.01 165.562 1043.01 162.624V156.518H1040.83V154.636H1043.03V150.275H1045.19V154.636H1049.55V156.518H1045.19V162.784C1045.19 164.414 1045.85 165.217 1047.18 165.217C1047.89 165.217 1048.63 164.988 1049.39 164.506ZM1052.89 152.891C1051.97 152.891 1051.29 152.226 1051.29 151.308C1051.29 150.412 1051.97 149.77 1052.89 149.77C1053.74 149.77 1054.45 150.458 1054.45 151.308C1054.45 152.226 1053.74 152.891 1052.89 152.891ZM1053.95 154.636V166.939H1051.75V154.636H1053.95ZM1062.86 167.237C1060.98 167.237 1059.41 166.618 1058.2 165.378C1056.98 164.116 1056.38 162.578 1056.38 160.764C1056.38 158.951 1056.98 157.436 1058.2 156.197C1059.41 154.934 1060.98 154.314 1062.86 154.314C1064.72 154.314 1066.25 154.934 1067.47 156.197C1068.69 157.459 1069.31 158.974 1069.31 160.764C1069.31 162.578 1068.69 164.116 1067.47 165.378C1066.25 166.618 1064.72 167.237 1062.86 167.237ZM1067.1 160.764C1067.1 159.548 1066.69 158.515 1065.86 157.666C1065.04 156.793 1064.03 156.357 1062.86 156.357C1061.69 156.357 1060.68 156.793 1059.85 157.666C1059.02 158.515 1058.61 159.548 1058.61 160.764C1058.61 161.981 1059.02 163.037 1059.85 163.909C1060.68 164.781 1061.69 165.217 1062.86 165.217C1064.03 165.217 1065.04 164.781 1065.86 163.909C1066.69 163.037 1067.1 161.981 1067.1 160.764ZM1073.91 166.939H1071.71V154.636H1073.86V156.38C1074.65 155.003 1075.95 154.314 1077.77 154.314C1079.14 154.314 1080.29 154.751 1081.23 155.646C1082.17 156.541 1082.63 157.803 1082.63 159.479V166.939H1080.45V160.099C1080.45 157.712 1079.17 156.357 1077.31 156.357C1076.32 156.357 1075.49 156.702 1074.85 157.413C1074.23 158.125 1073.91 159.02 1073.91 160.122V166.939ZM1004.34 201.939H992.928V184.976H995.223V199.712H1004.34V201.939ZM1011.58 202.237C1009.7 202.237 1008.14 201.618 1006.92 200.378C1005.71 199.116 1005.11 197.578 1005.11 195.764C1005.11 193.951 1005.71 192.436 1006.92 191.197C1008.14 189.934 1009.7 189.314 1011.58 189.314C1013.44 189.314 1014.98 189.934 1016.2 191.197C1017.41 192.459 1018.03 193.974 1018.03 195.764C1018.03 197.578 1017.41 199.116 1016.2 200.378C1014.98 201.618 1013.44 202.237 1011.58 202.237ZM1015.83 195.764C1015.83 194.548 1015.42 193.515 1014.59 192.666C1013.76 191.793 1012.75 191.357 1011.58 191.357C1010.41 191.357 1009.4 191.793 1008.58 192.666C1007.75 193.515 1007.34 194.548 1007.34 195.764C1007.34 196.981 1007.75 198.037 1008.58 198.909C1009.4 199.781 1010.41 200.217 1011.58 200.217C1012.75 200.217 1013.76 199.781 1014.59 198.909C1015.42 198.037 1015.83 196.981 1015.83 195.764ZM1027.44 199.506L1028.27 201.204C1027.37 201.893 1026.29 202.237 1024.98 202.237C1022.39 202.237 1021.06 200.562 1021.06 197.624V191.518H1018.88V189.636H1021.08V185.275H1023.24V189.636H1027.6V191.518H1023.24V197.784C1023.24 199.414 1023.9 200.217 1025.24 200.217C1025.95 200.217 1026.68 199.988 1027.44 199.506ZM1037 199.506L1037.83 201.204C1036.94 201.893 1035.86 202.237 1034.55 202.237C1031.96 202.237 1030.62 200.562 1030.62 197.624V191.518H1028.44V189.636H1030.65V185.275H1032.8V189.636H1037.17V191.518H1032.8V197.784C1032.8 199.414 1033.47 200.217 1034.8 200.217C1035.51 200.217 1036.25 199.988 1037 199.506ZM1050.62 195.558C1050.62 195.719 1050.59 196.086 1050.55 196.683H1040.75C1041.11 198.771 1042.49 200.194 1045.06 200.194C1046.53 200.194 1048.23 199.644 1049.35 198.817L1050.29 200.493C1049.08 201.434 1047.06 202.214 1045.01 202.214C1040.38 202.214 1038.45 198.932 1038.45 195.741C1038.45 193.882 1039.02 192.367 1040.17 191.151C1041.34 189.934 1042.83 189.337 1044.67 189.337C1046.41 189.337 1047.84 189.888 1048.94 191.013C1050.06 192.138 1050.62 193.653 1050.62 195.558ZM1040.75 194.777H1048.34C1048.23 192.643 1046.69 191.289 1044.67 191.289C1042.65 191.289 1041.11 192.735 1040.75 194.777ZM1055.19 201.939H1052.99V189.636H1055.08V191.449C1055.79 190.026 1056.98 189.314 1058.61 189.314C1059.09 189.314 1059.57 189.383 1060.06 189.498L1059.85 191.633C1059.41 191.495 1058.98 191.426 1058.56 191.426C1056.61 191.426 1055.19 192.78 1055.19 195.42V201.939ZM1067.08 198.863L1070.39 189.636H1072.82L1067.66 203.316C1066.63 206.071 1065.32 207.172 1063.39 207.172C1062.59 207.172 1061.94 207.012 1061.42 206.69L1061.69 204.762C1062.26 205.015 1062.77 205.13 1063.18 205.13C1064.19 205.13 1065 204.418 1065.62 202.972L1066.08 201.893L1060.73 189.636H1063.27L1067.08 198.863Z" fill="#FDE2AE"/>
<rect x="1172.57" y="129.184" width="187.454" height="98.5091" rx="14.8242" fill="url(#paint39_linear_74_432)" fill-opacity="0.3"/>
<rect x="1172.57" y="129.184" width="187.454" height="98.5091" rx="14.8242" stroke="url(#paint40_linear_74_432)" stroke-width="0.956399"/>
<rect x="1172.57" y="129.184" width="187.454" height="98.5091" rx="14.8242" stroke="url(#paint41_linear_74_432)" stroke-width="0.956399"/>
<path d="M1210.21 184.214C1207.76 184.214 1205.53 182.998 1204.43 180.725L1206.13 179.325C1207.05 181.139 1208.54 182.034 1210.19 182.034C1212.12 182.034 1213.31 180.909 1213.31 179.463C1213.31 178.545 1212.72 177.764 1211.55 177.099C1211.25 176.938 1210.65 176.663 1209.8 176.272C1208.95 175.882 1208.33 175.561 1207.9 175.308C1206.2 174.23 1205.35 172.875 1205.35 171.269C1205.35 169.96 1205.81 168.881 1206.75 168.009C1207.69 167.114 1208.93 166.678 1210.47 166.678C1212.56 166.678 1214.23 167.504 1215.45 169.18L1213.91 170.649C1212.99 169.432 1211.84 168.836 1210.49 168.836C1208.95 168.836 1207.8 169.754 1207.8 171.131C1207.8 172.026 1208.29 172.738 1209.25 173.311C1209.55 173.495 1210.19 173.839 1211.22 174.321C1212.26 174.803 1212.97 175.171 1213.36 175.4C1214.99 176.387 1215.82 177.696 1215.82 179.348C1215.82 180.794 1215.29 181.965 1214.21 182.86C1213.15 183.755 1211.82 184.214 1210.21 184.214ZM1232.44 171.314C1233.94 171.314 1235.13 171.797 1236.02 172.761C1236.92 173.702 1237.36 174.987 1237.36 176.617V183.939H1235.15V176.961C1235.15 174.666 1234.03 173.357 1232.19 173.357C1230.26 173.357 1228.91 174.826 1228.91 177.007V183.939H1226.73V177.007C1226.73 174.712 1225.58 173.357 1223.74 173.357C1221.82 173.357 1220.44 174.826 1220.44 177.053V183.939H1218.24V171.636H1220.39V173.449C1221.13 172.095 1222.48 171.292 1224.11 171.314C1225.76 171.314 1227.3 172.164 1227.97 173.61C1228.79 172.21 1230.52 171.314 1232.44 171.314ZM1250.09 173.426V171.636H1252.2V183.939H1250.09V182.194C1248.98 183.549 1247.54 184.237 1245.75 184.237C1243.98 184.237 1242.51 183.618 1241.34 182.355C1240.17 181.093 1239.6 179.555 1239.6 177.696C1239.6 175.859 1240.17 174.344 1241.34 173.151C1242.51 171.934 1243.98 171.337 1245.75 171.337C1247.49 171.337 1248.94 172.026 1250.09 173.426ZM1250.22 177.764C1250.22 176.548 1249.83 175.492 1249.05 174.643C1248.27 173.793 1247.26 173.357 1246 173.357C1244.74 173.357 1243.73 173.793 1242.97 174.643C1242.21 175.492 1241.82 176.548 1241.82 177.787C1241.82 179.027 1242.21 180.083 1242.97 180.932C1243.73 181.781 1244.74 182.217 1246 182.217C1247.26 182.217 1248.27 181.781 1249.05 180.932C1249.83 180.083 1250.22 179.027 1250.22 177.764ZM1258.83 184.214C1257 184.214 1255.21 183.319 1254.27 181.552L1255.85 180.335C1256.56 181.644 1257.78 182.286 1258.9 182.286C1260.21 182.286 1261.08 181.529 1261.08 180.588C1261.08 179.945 1260.72 179.417 1259.96 179.027C1259.71 178.889 1259.18 178.66 1258.42 178.338C1257.66 178.017 1257.16 177.787 1256.9 177.65C1255.64 176.961 1255.02 175.974 1255.02 174.666C1255.02 173.679 1255.39 172.852 1256.12 172.21C1256.86 171.544 1257.82 171.223 1259.04 171.223C1260.6 171.223 1262.12 171.888 1262.94 173.174L1261.54 174.505C1260.88 173.564 1260 173.082 1258.9 173.082C1257.8 173.082 1257.13 173.748 1257.13 174.574C1257.13 175.217 1257.48 175.699 1258.17 176.02L1259.52 176.617C1260.26 176.915 1260.81 177.168 1261.17 177.374C1262.57 178.086 1263.26 179.119 1263.26 180.473C1263.26 181.529 1262.85 182.424 1262.02 183.136C1261.2 183.847 1260.14 184.214 1258.83 184.214ZM1267.79 183.939H1265.58V166.563H1267.72V173.151C1268.48 172.049 1269.94 171.314 1271.62 171.314C1272.97 171.314 1274.12 171.751 1275.06 172.646C1276 173.541 1276.46 174.803 1276.46 176.479V183.939H1274.28V177.099C1274.28 174.689 1273.02 173.357 1271.16 173.357C1269.16 173.357 1267.79 174.895 1267.79 177.099V183.939ZM1286.57 181.506L1287.4 183.204C1286.5 183.893 1285.42 184.237 1284.12 184.237C1281.52 184.237 1280.19 182.562 1280.19 179.624V173.518H1278.01V171.636H1280.21V167.275H1282.37V171.636H1286.73V173.518H1282.37V179.784C1282.37 181.414 1283.04 182.217 1284.37 182.217C1285.08 182.217 1285.81 181.988 1286.57 181.506ZM1290.08 169.891C1289.16 169.891 1288.47 169.226 1288.47 168.308C1288.47 167.412 1289.16 166.77 1290.08 166.77C1290.93 166.77 1291.64 167.458 1291.64 168.308C1291.64 169.226 1290.93 169.891 1290.08 169.891ZM1291.13 171.636V183.939H1288.93V171.636H1291.13ZM1308.53 171.314C1310.03 171.314 1311.22 171.797 1312.12 172.761C1313.01 173.702 1313.45 174.987 1313.45 176.617V183.939H1311.24V176.961C1311.24 174.666 1310.12 173.357 1308.28 173.357C1306.35 173.357 1305 174.826 1305 177.007V183.939H1302.82V177.007C1302.82 174.712 1301.67 173.357 1299.84 173.357C1297.91 173.357 1296.53 174.826 1296.53 177.053V183.939H1294.33V171.636H1296.48V173.449C1297.22 172.095 1298.57 171.292 1300.2 171.314C1301.86 171.314 1303.39 172.164 1304.06 173.61C1304.89 172.21 1306.61 171.314 1308.53 171.314ZM1327.88 177.558C1327.88 177.719 1327.85 178.086 1327.81 178.683H1318.01C1318.37 180.771 1319.75 182.194 1322.32 182.194C1323.79 182.194 1325.49 181.644 1326.61 180.817L1327.56 182.493C1326.34 183.434 1324.32 184.214 1322.28 184.214C1317.64 184.214 1315.71 180.932 1315.71 177.741C1315.71 175.882 1316.28 174.367 1317.43 173.151C1318.6 171.934 1320.1 171.337 1321.93 171.337C1323.68 171.337 1325.1 171.888 1326.2 173.013C1327.33 174.138 1327.88 175.653 1327.88 177.558ZM1318.01 176.777H1325.6C1325.49 174.643 1323.95 173.289 1321.93 173.289C1319.91 173.289 1318.37 174.735 1318.01 176.777Z" fill="#FDE2AE"/>
<defs>
<linearGradient id="paint0_linear_74_432" x1="234.818" y1="502.658" x2="423.229" y2="502.658" gradientUnits="userSpaceOnUse">
<stop stop-color="#3B83F0"/>
<stop offset="1" stop-color="#09D3FF"/>
</linearGradient>
<linearGradient id="paint1_linear_74_432" x1="234.818" y1="502.658" x2="423.229" y2="502.658" gradientUnits="userSpaceOnUse">
<stop stop-color="#CA7803"/>
<stop offset="1" stop-color="#623A00" stop-opacity="0.04"/>
</linearGradient>
<linearGradient id="paint2_linear_74_432" x1="234.818" y1="502.658" x2="423.229" y2="502.658" gradientUnits="userSpaceOnUse">
<stop stop-color="#518DAF"/>
<stop offset="1" stop-color="#6180ED"/>
</linearGradient>
<linearGradient id="paint3_linear_74_432" x1="703.454" y1="502.658" x2="891.864" y2="502.658" gradientUnits="userSpaceOnUse">
<stop stop-color="#4E9B71"/>
<stop offset="1" stop-color="#69DC0F"/>
</linearGradient>
<linearGradient id="paint4_linear_74_432" x1="703.454" y1="502.658" x2="891.864" y2="502.658" gradientUnits="userSpaceOnUse">
<stop stop-color="#CA7803"/>
<stop offset="1" stop-color="#623A00" stop-opacity="0.04"/>
</linearGradient>
<linearGradient id="paint5_linear_74_432" x1="703.454" y1="502.658" x2="891.864" y2="502.658" gradientUnits="userSpaceOnUse">
<stop stop-color="#2BFF40"/>
<stop offset="1" stop-color="#306927"/>
</linearGradient>
<linearGradient id="paint6_linear_74_432" x1="235.774" y1="648.031" x2="424.185" y2="648.031" gradientUnits="userSpaceOnUse">
<stop stop-color="#25582D"/>
<stop offset="1" stop-color="#5EEBA7"/>
</linearGradient>
<linearGradient id="paint7_linear_74_432" x1="235.774" y1="648.031" x2="424.185" y2="648.031" gradientUnits="userSpaceOnUse">
<stop stop-color="#CA7803"/>
<stop offset="1" stop-color="#623A00" stop-opacity="0.04"/>
</linearGradient>
<linearGradient id="paint8_linear_74_432" x1="235.774" y1="648.031" x2="424.185" y2="648.031" gradientUnits="userSpaceOnUse">
<stop stop-color="#59675B"/>
<stop offset="1" stop-color="#5EEBA7"/>
</linearGradient>
<linearGradient id="paint9_linear_74_432" x1="703.454" y1="357.286" x2="891.864" y2="357.286" gradientUnits="userSpaceOnUse">
<stop stop-color="#D9D23C"/>
<stop offset="1" stop-color="#F8C86C"/>
</linearGradient>
<linearGradient id="paint10_linear_74_432" x1="703.454" y1="357.286" x2="891.864" y2="357.286" gradientUnits="userSpaceOnUse">
<stop stop-color="#CA7803"/>
<stop offset="1" stop-color="#623A00" stop-opacity="0.04"/>
</linearGradient>
<linearGradient id="paint11_linear_74_432" x1="703.454" y1="357.286" x2="891.864" y2="357.286" gradientUnits="userSpaceOnUse">
<stop stop-color="#FFCE2B"/>
<stop offset="1" stop-color="#CA7803"/>
</linearGradient>
<linearGradient id="paint12_linear_74_432" x1="0.5" y1="502.658" x2="188.911" y2="502.658" gradientUnits="userSpaceOnUse">
<stop stop-color="#420000"/>
<stop offset="1" stop-color="#E7134F"/>
</linearGradient>
<linearGradient id="paint13_linear_74_432" x1="0.5" y1="502.658" x2="188.911" y2="502.658" gradientUnits="userSpaceOnUse">
<stop stop-color="#CA7803"/>
<stop offset="1" stop-color="#623A00" stop-opacity="0.04"/>
</linearGradient>
<linearGradient id="paint14_linear_74_432" x1="0.5" y1="502.658" x2="188.911" y2="502.658" gradientUnits="userSpaceOnUse">
<stop stop-color="#FFCE2B"/>
<stop offset="1" stop-color="#E7165F"/>
</linearGradient>
<linearGradient id="paint15_linear_74_432" x1="469.136" y1="502.658" x2="657.546" y2="502.658" gradientUnits="userSpaceOnUse">
<stop stop-color="#AF49FF"/>
<stop offset="1" stop-color="#5724EA"/>
</linearGradient>
<linearGradient id="paint16_linear_74_432" x1="469.136" y1="502.658" x2="657.546" y2="502.658" gradientUnits="userSpaceOnUse">
<stop stop-color="#CA7803"/>
<stop offset="1" stop-color="#623A00" stop-opacity="0.04"/>
</linearGradient>
<linearGradient id="paint17_linear_74_432" x1="469.136" y1="502.658" x2="657.546" y2="502.658" gradientUnits="userSpaceOnUse">
<stop stop-color="#BEA7DA"/>
<stop offset="1" stop-color="#B4A1FF"/>
</linearGradient>
<linearGradient id="paint18_linear_74_432" x1="469.136" y1="648.031" x2="657.546" y2="648.031" gradientUnits="userSpaceOnUse">
<stop stop-color="#D9D23C"/>
<stop offset="1" stop-color="#F8C86C"/>
</linearGradient>
<linearGradient id="paint19_linear_74_432" x1="469.136" y1="648.031" x2="657.546" y2="648.031" gradientUnits="userSpaceOnUse">
<stop stop-color="#CA7803"/>
<stop offset="1" stop-color="#623A00" stop-opacity="0.04"/>
</linearGradient>
<linearGradient id="paint20_linear_74_432" x1="469.136" y1="648.031" x2="657.546" y2="648.031" gradientUnits="userSpaceOnUse">
<stop stop-color="#FFCE2B"/>
<stop offset="1" stop-color="#CA7803"/>
</linearGradient>
<linearGradient id="paint21_linear_74_432" x1="469.136" y1="357.286" x2="657.546" y2="357.286" gradientUnits="userSpaceOnUse">
<stop stop-color="#865001"/>
<stop offset="1" stop-color="#F76E56"/>
</linearGradient>
<linearGradient id="paint22_linear_74_432" x1="469.136" y1="357.286" x2="657.546" y2="357.286" gradientUnits="userSpaceOnUse">
<stop stop-color="#CA7803"/>
<stop offset="1" stop-color="#623A00" stop-opacity="0.04"/>
</linearGradient>
<linearGradient id="paint23_linear_74_432" x1="469.136" y1="357.286" x2="657.546" y2="357.286" gradientUnits="userSpaceOnUse">
<stop stop-color="#FFCE2B"/>
<stop offset="1" stop-color="#E7165F"/>
</linearGradient>
<linearGradient id="paint24_linear_74_432" x1="937.771" y1="502.658" x2="1126.18" y2="502.658" gradientUnits="userSpaceOnUse">
<stop stop-color="#AF49FF"/>
<stop offset="1" stop-color="#5724EA"/>
</linearGradient>
<linearGradient id="paint25_linear_74_432" x1="937.771" y1="502.658" x2="1126.18" y2="502.658" gradientUnits="userSpaceOnUse">
<stop stop-color="#CA7803"/>
<stop offset="1" stop-color="#623A00" stop-opacity="0.04"/>
</linearGradient>
<linearGradient id="paint26_linear_74_432" x1="937.771" y1="502.658" x2="1126.18" y2="502.658" gradientUnits="userSpaceOnUse">
<stop stop-color="#BEA7DA"/>
<stop offset="1" stop-color="#B4A1FF"/>
</linearGradient>
<linearGradient id="paint27_linear_74_432" x1="937.771" y1="357.286" x2="1126.18" y2="357.286" gradientUnits="userSpaceOnUse">
<stop stop-color="#53013D"/>
<stop offset="1" stop-color="#EA24B3"/>
</linearGradient>
<linearGradient id="paint28_linear_74_432" x1="937.771" y1="357.286" x2="1126.18" y2="357.286" gradientUnits="userSpaceOnUse">
<stop stop-color="#CA7803"/>
<stop offset="1" stop-color="#623A00" stop-opacity="0.04"/>
</linearGradient>
<linearGradient id="paint29_linear_74_432" x1="937.771" y1="357.286" x2="1126.18" y2="357.286" gradientUnits="userSpaceOnUse">
<stop stop-color="#EA24B3"/>
<stop offset="1" stop-color="#FF9CBF"/>
</linearGradient>
<linearGradient id="paint30_linear_74_432" x1="469.136" y1="178.439" x2="657.546" y2="178.439" gradientUnits="userSpaceOnUse">
<stop stop-color="#25582D"/>
<stop offset="1" stop-color="#5EEBA7"/>
</linearGradient>
<linearGradient id="paint31_linear_74_432" x1="469.136" y1="178.439" x2="657.546" y2="178.439" gradientUnits="userSpaceOnUse">
<stop stop-color="#CA7803"/>
<stop offset="1" stop-color="#623A00" stop-opacity="0.04"/>
</linearGradient>
<linearGradient id="paint32_linear_74_432" x1="469.136" y1="178.439" x2="657.546" y2="178.439" gradientUnits="userSpaceOnUse">
<stop stop-color="#59675B"/>
<stop offset="1" stop-color="#5EEBA7"/>
</linearGradient>
<linearGradient id="paint33_linear_74_432" x1="703.454" y1="178.439" x2="891.864" y2="178.439" gradientUnits="userSpaceOnUse">
<stop stop-color="#25582D"/>
<stop offset="1" stop-color="#5EEBA7"/>
</linearGradient>
<linearGradient id="paint34_linear_74_432" x1="703.454" y1="178.439" x2="891.864" y2="178.439" gradientUnits="userSpaceOnUse">
<stop stop-color="#CA7803"/>
<stop offset="1" stop-color="#623A00" stop-opacity="0.04"/>
</linearGradient>
<linearGradient id="paint35_linear_74_432" x1="703.454" y1="178.439" x2="891.864" y2="178.439" gradientUnits="userSpaceOnUse">
<stop stop-color="#59675B"/>
<stop offset="1" stop-color="#5EEBA7"/>
</linearGradient>
<linearGradient id="paint36_linear_74_432" x1="937.771" y1="178.439" x2="1126.18" y2="178.439" gradientUnits="userSpaceOnUse">
<stop stop-color="#53013D"/>
<stop offset="1" stop-color="#EA24B3"/>
</linearGradient>
<linearGradient id="paint37_linear_74_432" x1="937.771" y1="178.439" x2="1126.18" y2="178.439" gradientUnits="userSpaceOnUse">
<stop stop-color="#CA7803"/>
<stop offset="1" stop-color="#623A00" stop-opacity="0.04"/>
</linearGradient>
<linearGradient id="paint38_linear_74_432" x1="937.771" y1="178.439" x2="1126.18" y2="178.439" gradientUnits="userSpaceOnUse">
<stop stop-color="#EA24B3"/>
<stop offset="1" stop-color="#FF9CBF"/>
</linearGradient>
<linearGradient id="paint39_linear_74_432" x1="1172.09" y1="178.439" x2="1360.5" y2="178.439" gradientUnits="userSpaceOnUse">
<stop stop-color="#865001"/>
<stop offset="1" stop-color="#F76E56"/>
</linearGradient>
<linearGradient id="paint40_linear_74_432" x1="1172.09" y1="178.439" x2="1360.5" y2="178.439" gradientUnits="userSpaceOnUse">
<stop stop-color="#CA7803"/>
<stop offset="1" stop-color="#623A00" stop-opacity="0.04"/>
</linearGradient>
<linearGradient id="paint41_linear_74_432" x1="1172.09" y1="178.439" x2="1360.5" y2="178.439" gradientUnits="userSpaceOnUse">
<stop stop-color="#FFCE2B"/>
<stop offset="1" stop-color="#E7165F"/>
</linearGradient>
</defs>
</svg>
