<svg width="160" height="63" viewBox="0 0 160 63" fill="none" xmlns="http://www.w3.org/2000/svg">
<g clip-path="url(#clip0_1_1844)">
<path d="M64.1803 16.5054V24.668H61.3311V16.5054H58.482V24.668H55.6329V16.5054H52.7837V24.668H38.538V16.5054H35.6889V24.668V27.3889H64.1803V30.1098H61.3311H58.482H32.8397V16.5054H29.9905V30.1098H27.1414V16.5054H24.2923V30.1098V32.8307V46.4351H27.1414V38.2725H29.9905V46.4351H32.8397V38.2725H35.6889V46.4351H38.538V38.2725H52.7837V46.4351H55.6329V38.2725V35.5515H32.8397H29.9905H27.1414V32.8307H29.9905H32.8397H58.482V46.4351H61.3311V32.8307H64.1803V46.4351H67.0295V32.8307V30.1098V27.3889V24.668V16.5054H64.1803Z" fill="#BABABA"/>
<path d="M78.7135 16.8467C79.8653 16.8467 80.7311 17.0363 81.3113 17.4156C81.8911 17.7949 82.1807 18.4775 82.1807 19.4637C82.1807 20.4574 81.8911 21.1476 81.3113 21.5345C80.7311 21.9138 79.8653 22.1034 78.7135 22.1034H77.3314V24.8683H76.3546V16.8467H78.7135ZM78.7255 21.3069C79.1226 21.3069 79.4563 21.2842 79.7267 21.2387C79.9966 21.1932 80.251 21.1097 80.4891 20.9884C80.7274 20.8594 80.906 20.6698 81.0253 20.4194C81.1442 20.1691 81.2039 19.8505 81.2039 19.4637C81.2039 18.7431 80.9932 18.2614 80.5722 18.0187C80.1591 17.7683 79.544 17.6432 78.7255 17.6432H77.3314V21.3069H78.7255Z" fill="#BABABA"/>
<path d="M83.5323 24.8682V19.8845C83.5323 19.3459 83.8064 19.088 84.3545 19.1108L87.6425 19.2132V20.0096L84.5092 19.9073V24.8682H83.5323Z" fill="#BABABA"/>
<path d="M88.1339 22.0352C88.1339 21.2008 88.4241 20.5029 89.0038 19.9416C89.5836 19.3803 90.3382 19.0996 91.2673 19.0996C92.1891 19.0996 92.9355 19.3803 93.5075 19.9416C94.0872 20.5029 94.3774 21.2008 94.3774 22.0352C94.3774 22.8772 94.0872 23.5789 93.5075 24.1402C92.9355 24.7015 92.1891 24.9822 91.2673 24.9822C90.3382 24.9822 89.5836 24.7015 89.0038 24.1402C88.4241 23.5789 88.1339 22.8772 88.1339 22.0352ZM89.1107 22.0352C89.1107 22.6572 89.3012 23.173 89.6827 23.5827C90.0642 23.9847 90.5926 24.1857 91.2673 24.1857C91.9426 24.1857 92.4668 23.9809 92.8399 23.5712C93.2214 23.1616 93.4119 22.6496 93.4119 22.0352C93.4119 21.4208 93.2214 20.9126 92.8399 20.5105C92.4668 20.1009 91.9426 19.8961 91.2673 19.8961C90.5926 19.8961 90.0642 20.1009 89.6827 20.5105C89.3012 20.9126 89.1107 21.4208 89.1107 22.0352Z" fill="#BABABA"/>
<path d="M95.4991 22.0352C95.4991 21.2008 95.7897 20.5029 96.3693 19.9416C96.949 19.3803 97.7038 19.0996 98.6331 19.0996C99.5546 19.0996 100.301 19.3803 100.873 19.9416C101.453 20.5029 101.743 21.2008 101.743 22.0352C101.743 22.8772 101.453 23.5789 100.873 24.1402C100.301 24.7015 99.5546 24.9822 98.6331 24.9822C97.7038 24.9822 96.949 24.7015 96.3693 24.1402C95.7897 23.5789 95.4991 22.8772 95.4991 22.0352ZM96.477 22.0352C96.477 22.6572 96.6669 23.173 97.0482 23.5827C97.4295 23.9847 97.9577 24.1857 98.6331 24.1857C99.3084 24.1857 99.8325 23.9809 100.206 23.5712C100.587 23.1616 100.778 22.6496 100.778 22.0352C100.778 21.4208 100.587 20.9126 100.206 20.5105C99.8325 20.1009 99.3084 19.8961 98.6331 19.8961C97.9577 19.8961 97.4295 20.1009 97.0482 20.5105C96.6669 20.9126 96.477 21.4208 96.477 22.0352Z" fill="#BABABA"/>
<path d="M105.93 17.3014C105.565 17.3014 105.307 17.3848 105.155 17.5517C105.013 17.7186 104.941 17.9916 104.941 18.3709V19.2129H106.669V20.0094H104.941V24.0714H106.669V24.8679H102.665V24.0714H103.976V20.0094H102.665V19.2129H103.976V18.3482C103.976 17.1193 104.643 16.5049 105.978 16.5049H107.002V17.3014H105.93Z" fill="#BABABA"/>
<path d="M107.671 21.967C107.671 21.0718 107.933 20.3702 108.457 19.862C108.99 19.3537 109.684 19.0996 110.543 19.0996C111.385 19.0996 112.056 19.3423 112.557 19.8279C113.057 20.3133 113.307 20.9884 113.307 21.8531V22.2172H108.624C108.657 22.8089 108.835 23.2906 109.16 23.6623C109.494 24.0264 110.003 24.2085 110.686 24.2085C111.178 24.2085 111.583 24.0984 111.901 23.8785C112.219 23.6509 112.429 23.321 112.533 22.8886H113.509C113.446 23.1389 113.351 23.374 113.223 23.594C113.105 23.814 112.937 24.034 112.723 24.254C112.516 24.4739 112.234 24.6522 111.877 24.7888C111.527 24.9176 111.131 24.9822 110.686 24.9822C109.684 24.9822 108.93 24.7015 108.422 24.1402C107.921 23.5712 107.671 22.8469 107.671 21.967ZM108.624 21.5118H112.354C112.354 21.0415 112.195 20.6547 111.877 20.3512C111.559 20.0403 111.114 19.8847 110.543 19.8847C109.971 19.8847 109.506 20.0403 109.148 20.3512C108.799 20.6622 108.624 21.0491 108.624 21.5118Z" fill="#BABABA"/>
<path d="M120.931 24.8679H119.954V24.0373L120.121 23.4001H119.835C119.7 23.8628 119.426 24.2421 119.013 24.5379C118.608 24.8337 118.083 24.9816 117.44 24.9816C116.598 24.9816 115.915 24.7048 115.391 24.1511C114.875 23.5973 114.616 22.8919 114.616 22.0347C114.616 21.1851 114.875 20.4835 115.391 19.9298C115.915 19.376 116.598 19.0991 117.44 19.0991C118.083 19.0991 118.608 19.247 119.013 19.5429C119.426 19.8387 119.7 20.2218 119.835 20.6921H120.121L119.954 20.0435V16.5049H120.931V24.8679ZM119.954 22.0347C119.954 21.3216 119.748 20.7869 119.334 20.4304C118.922 20.0739 118.385 19.8956 117.726 19.8956C117.075 19.8956 116.555 20.0739 116.165 20.4304C115.784 20.7793 115.593 21.3141 115.593 22.0347C115.593 22.7553 115.784 23.2939 116.165 23.6505C116.555 24.0069 117.075 24.1852 117.726 24.1852C118.385 24.1852 118.922 24.0069 119.334 23.6505C119.748 23.2939 119.954 22.7553 119.954 22.0347Z" fill="#BABABA"/>
<path d="M76.3546 35.7518V27.3887H77.3314V30.9273L77.1768 31.5759H77.4507C77.5857 31.1056 77.8556 30.7225 78.261 30.4267C78.6741 30.1309 79.2061 29.983 79.8575 29.983C80.6994 29.983 81.3788 30.2598 81.8947 30.8135C82.4112 31.3674 82.6696 32.0689 82.6696 32.9186C82.6696 33.7756 82.4112 34.4811 81.8947 35.0349C81.3788 35.5887 80.6994 35.8655 79.8575 35.8655C79.2061 35.8655 78.6741 35.7176 78.261 35.4218C77.8556 35.126 77.5857 34.7467 77.4507 34.2839H77.1768L77.3314 34.9211V35.7518H76.3546ZM77.3314 32.9186C77.3314 33.639 77.538 34.1778 77.9511 34.5342C78.3721 34.8907 78.9082 35.069 79.5596 35.069C80.211 35.069 80.7274 34.8907 81.1084 34.5342C81.4976 34.1778 81.6923 33.639 81.6923 32.9186C81.6923 32.198 81.4976 31.6632 81.1084 31.3142C80.7274 30.9577 80.211 30.7794 79.5596 30.7794C78.9082 30.7794 78.3721 30.9577 77.9511 31.3142C77.538 31.6706 77.3314 32.2054 77.3314 32.9186Z" fill="#BABABA"/>
<path d="M88.2388 30.0967H89.2992L86.7253 35.6948V37.2764C86.7253 37.7466 86.4513 37.9704 85.9032 37.9477L83.6158 37.8453V37.0488L85.7485 37.1512V35.6948L83.1632 30.0967H84.2355L86.0942 34.5001V34.9324H86.3801V34.5001L88.2388 30.0967Z" fill="#BABABA"/>
<path d="M100.451 27.73H101.415V35.7516H100.451V32.1902H95.4933V35.7516H94.5168V27.73H95.4933V31.3938H100.451V27.73Z" fill="#BABABA"/>
<path d="M102.864 34.1815C102.864 33.2107 103.512 32.6605 104.807 32.5317L107.165 32.3155C107.11 31.2838 106.554 30.7681 105.497 30.7681C105.021 30.7681 104.624 30.8818 104.306 31.1094C103.996 31.337 103.841 31.701 103.841 32.2017H102.888C102.888 31.5873 103.123 31.0639 103.592 30.6315C104.06 30.1991 104.695 29.9829 105.497 29.9829C106.316 29.9829 106.959 30.2181 107.428 30.6884C107.904 31.1587 108.143 31.777 108.143 32.5431V34.9553H109.012V35.7517H107.964C107.495 35.7517 107.261 35.5318 107.261 35.0918V34.7845L107.416 34.1929H107.129C106.836 35.308 106.074 35.8655 104.843 35.8655C104.517 35.8655 104.227 35.8276 103.972 35.7517C103.727 35.6683 103.536 35.5697 103.4 35.4559C103.265 35.3344 103.154 35.1942 103.067 35.0349C102.98 34.868 102.924 34.72 102.9 34.5911C102.876 34.4546 102.864 34.3181 102.864 34.1815ZM103.841 34.0677C103.841 34.3863 103.941 34.633 104.139 34.8074C104.338 34.9817 104.612 35.069 104.961 35.069C105.621 35.069 106.153 34.8756 106.558 34.4887C106.963 34.1018 107.165 33.6089 107.165 33.0095L104.973 33.2258C104.584 33.2636 104.299 33.3472 104.116 33.476C103.933 33.5975 103.841 33.7946 103.841 34.0677Z" fill="#BABABA"/>
<path d="M109.683 32.9186C109.683 32.0765 109.952 31.3788 110.492 30.8249C111.041 30.2636 111.78 29.9829 112.709 29.9829C113.122 29.9829 113.519 30.055 113.901 30.1991C114.282 30.3357 114.627 30.5822 114.937 30.9387C115.247 31.2877 115.426 31.7201 115.474 32.2358H114.484C114.333 31.2649 113.742 30.7794 112.709 30.7794C112.042 30.7794 111.534 30.9804 111.184 31.3825C110.834 31.7844 110.66 32.2964 110.66 32.9186C110.66 33.5406 110.834 34.0563 111.184 34.466C111.534 34.868 112.042 35.069 112.709 35.069C113.742 35.069 114.333 34.5835 114.484 33.6126H115.474C115.426 34.1283 115.247 34.5646 114.937 34.9211C114.627 35.2701 114.282 35.5165 113.901 35.6607C113.519 35.7972 113.122 35.8655 112.709 35.8655C111.78 35.8655 111.041 35.5887 110.492 35.0349C109.952 34.4736 109.683 33.7682 109.683 32.9186Z" fill="#BABABA"/>
<path d="M121.085 35.7518L119.107 33.1233L117.868 33.7719V35.7518H116.892V27.3887H117.868V32.7934L120.883 31.2232L120.764 30.0967H121.741L121.836 31.1322C121.868 31.4962 121.709 31.7693 121.36 31.9514L119.906 32.7138L122.193 35.7518H121.085Z" fill="#BABABA"/>
<path d="M122.925 32.8502C122.925 31.9551 123.187 31.2535 123.711 30.7453C124.243 30.2371 124.938 29.9829 125.796 29.9829C126.638 29.9829 127.309 30.2257 127.81 30.7111C128.311 31.1967 128.56 31.8717 128.56 32.7365V33.1005H123.878C123.91 33.6923 124.088 34.1738 124.414 34.5456C124.748 34.9097 125.256 35.0918 125.939 35.0918C126.432 35.0918 126.837 34.9817 127.155 34.7619C127.472 34.5342 127.682 34.2042 127.786 33.7719H128.763C128.699 34.0222 128.604 34.2575 128.477 34.4774C128.358 34.6972 128.191 34.9174 127.976 35.1373C127.77 35.3572 127.488 35.5356 127.131 35.6721C126.781 35.8009 126.384 35.8655 125.939 35.8655C124.938 35.8655 124.183 35.5847 123.675 35.0235C123.175 34.4546 122.925 33.7301 122.925 32.8502ZM123.878 32.3951H127.607C127.607 31.9249 127.448 31.538 127.131 31.2346C126.813 30.9235 126.368 30.7681 125.796 30.7681C125.224 30.7681 124.759 30.9235 124.402 31.2346C124.053 31.5454 123.878 31.9323 123.878 32.3951Z" fill="#BABABA"/>
<path d="M133.218 30.7794C132.583 30.7794 132.066 31.0032 131.67 31.4507C131.28 31.8982 131.086 32.4976 131.086 33.2485V35.7517H130.109V30.0967H131.086V31.0753L130.931 31.7238H131.205C131.332 31.1929 131.586 30.7718 131.967 30.4609C132.356 30.1422 132.861 29.9829 133.48 29.9829C134.172 29.9829 134.711 30.1764 135.1 30.5632C135.49 30.9501 135.684 31.5267 135.684 32.2927V35.7517H134.72V32.4179C134.72 31.8339 134.597 31.4166 134.35 31.1663C134.112 30.9084 133.734 30.7794 133.218 30.7794Z" fill="#BABABA"/>
<path d="M77.7288 46.144C78.6138 46.144 79.1504 45.7373 79.1504 45.0612C79.1504 44.3358 78.5395 44.1434 78.0314 43.9895L77.3863 43.7971C77.0437 43.6927 76.5869 43.6048 76.5869 43.1816C76.5869 42.8133 76.9409 42.5935 77.4433 42.5935C78.0771 42.5935 78.471 42.8958 78.511 43.4399H79.0077C78.9449 42.621 78.3797 42.1758 77.4662 42.1758C76.6384 42.1758 76.1074 42.5825 76.1074 43.2035C76.1074 43.9565 76.9124 44.1214 77.2321 44.2204L77.923 44.4292C78.3055 44.5446 78.6594 44.6931 78.6594 45.0833C78.6594 45.4845 78.3398 45.7263 77.7288 45.7263C77.0266 45.7263 76.5413 45.4131 76.4842 44.9184H75.9818C76.0332 45.6438 76.724 46.144 77.7288 46.144ZM80.2549 46.0835V44.3138C80.2606 43.8686 80.5918 43.5059 81.157 43.5059C81.5624 43.5059 81.8136 43.7586 81.8136 44.1489V46.0835H82.2818V44.3138C82.2875 43.8686 82.6186 43.5059 83.1838 43.5059C83.5892 43.5059 83.8404 43.7586 83.8404 44.1489V46.0835H84.3143V44.1324C84.3143 43.5388 83.9032 43.1046 83.2638 43.1046C82.8013 43.1046 82.3845 43.341 82.1904 43.6817C82.0362 43.33 81.6937 43.1046 81.237 43.1046C80.8031 43.1046 80.4091 43.308 80.2036 43.6212L80.1579 43.1706H79.7811V46.0835H80.2549ZM86.0318 46.1275C86.557 46.1275 86.8996 45.9187 87.0766 45.5834V45.6713C87.0766 45.9407 87.2479 46.0835 87.5733 46.0835H87.8416V45.7098H87.6704C87.5676 45.7098 87.5162 45.6604 87.5162 45.5669V44.1489C87.5162 43.5333 87.0366 43.1046 86.2887 43.1046C85.5693 43.1046 85.0326 43.5059 84.9755 44.0775H85.4437C85.4951 43.7312 85.8376 43.4949 86.2773 43.4949C86.734 43.4949 87.048 43.7532 87.0537 44.1214C87.048 44.3578 86.6484 44.3523 86.1859 44.3962C85.5807 44.4567 84.907 44.5831 84.907 45.2536C84.907 45.7867 85.3466 46.1275 86.0318 46.1275ZM86.1003 45.7373C85.6663 45.7373 85.3809 45.5449 85.3809 45.2427C85.3809 44.8689 85.7977 44.8139 86.2145 44.77C86.5855 44.7315 86.9224 44.6985 87.0537 44.5282V44.9074C87.0537 45.391 86.6655 45.7373 86.1003 45.7373ZM88.847 46.0835V44.5556C88.847 43.9565 89.218 43.6048 89.8575 43.6048H89.9603V43.1541H89.8575C89.3551 43.1541 89.0011 43.3519 88.807 43.7257L88.7499 43.1706H88.3731V46.0835H88.847ZM92.0785 46.0835V45.6988H91.7416C91.4618 45.6988 91.3134 45.5449 91.3134 45.2536V43.5553H92.1298V43.1706H91.3134V42.1758H90.8395V43.1706H90.28V43.5553H90.8395V45.2536C90.8395 45.7923 91.1536 46.0835 91.7416 46.0835H92.0785ZM95.8381 46.144C96.8827 46.144 97.5447 45.6054 97.7219 44.6051H97.2253C97.0712 45.3306 96.5858 45.7208 95.8381 45.7208C94.9411 45.7208 94.3876 45.1327 94.3876 44.1489C94.3876 43.1981 94.9411 42.599 95.8381 42.599C96.5626 42.599 97.0769 43.0112 97.2253 43.7147H97.7219C97.5503 42.7474 96.8539 42.1758 95.8381 42.1758C94.6103 42.1758 93.8852 43.0057 93.8852 44.1489C93.8852 45.3141 94.6103 46.144 95.8381 46.144ZM99.7444 46.144C100.595 46.144 101.229 45.6054 101.229 44.5996C101.229 43.7752 100.71 43.1046 99.7444 43.1046C98.922 43.1046 98.2601 43.6267 98.2601 44.5996C98.2601 45.479 98.7736 46.144 99.7444 46.144ZM99.7444 45.7483C99.1964 45.7483 98.7455 45.3471 98.7455 44.5996C98.7455 43.9456 99.1394 43.5004 99.7444 43.5004C100.349 43.5004 100.744 43.9456 100.744 44.5996C100.744 45.2316 100.389 45.7483 99.7444 45.7483ZM102.323 46.0835V44.3138C102.329 43.8686 102.66 43.5059 103.203 43.5059C103.659 43.5059 103.933 43.7641 103.933 44.1709V46.0835H104.407V44.1544C104.407 43.5113 103.973 43.1046 103.322 43.1046C102.871 43.1046 102.477 43.308 102.272 43.6158L102.226 43.1706H101.849V46.0835H102.323ZM106.67 46.0835V45.6988H106.333C106.053 45.6988 105.905 45.5449 105.905 45.2536V43.5553H106.721V43.1706H105.905V42.1758H105.431V43.1706H104.871V43.5553H105.431V45.2536C105.431 45.7923 105.745 46.0835 106.333 46.0835H106.67ZM107.754 46.0835V44.5556C107.754 43.9565 108.125 43.6048 108.764 43.6048H108.867V43.1541H108.764C108.262 43.1541 107.908 43.3519 107.714 43.7257L107.657 43.1706H107.28V46.0835H107.754ZM110.319 46.1275C110.844 46.1275 111.186 45.9187 111.363 45.5834V45.6713C111.363 45.9407 111.535 46.0835 111.86 46.0835H112.129V45.7098H111.957C111.854 45.7098 111.803 45.6604 111.803 45.5669V44.1489C111.803 43.5333 111.323 43.1046 110.576 43.1046C109.856 43.1046 109.32 43.5059 109.262 44.0775H109.731C109.782 43.7312 110.125 43.4949 110.564 43.4949C111.021 43.4949 111.335 43.7532 111.341 44.1214C111.335 44.3578 110.935 44.3523 110.473 44.3962C109.868 44.4567 109.194 44.5831 109.194 45.2536C109.194 45.7867 109.634 46.1275 110.319 46.1275ZM110.387 45.7373C109.953 45.7373 109.668 45.5449 109.668 45.2427C109.668 44.8689 110.085 44.8139 110.502 44.77C110.872 44.7315 111.209 44.6985 111.341 44.5282V44.9074C111.341 45.391 110.953 45.7373 110.387 45.7373ZM114.013 46.144C114.796 46.144 115.298 45.6988 115.383 44.9459H114.921C114.835 45.4515 114.504 45.7483 114.019 45.7483C113.453 45.7483 112.986 45.3526 112.986 44.6106C112.986 43.9235 113.385 43.5004 113.985 43.5004C114.492 43.5004 114.841 43.8082 114.921 44.2918H115.383C115.298 43.5443 114.756 43.1046 113.996 43.1046C113.174 43.1046 112.506 43.6323 112.506 44.6106C112.506 45.4515 113.031 46.144 114.013 46.144ZM117.503 46.0835V45.6988H117.166C116.886 45.6988 116.738 45.5449 116.738 45.2536V43.5553H117.555V43.1706H116.738V42.1758H116.265V43.1706H115.705V43.5553H116.265V45.2536C116.265 45.7923 116.578 46.0835 117.166 46.0835H117.503ZM119.664 46.0835L120.131 44.9843H121.982L122.449 46.0835H122.946L121.296 42.2362H120.811L119.166 46.0835H119.664ZM121.057 42.8243L121.799 44.5666H120.314L121.057 42.8243ZM124.512 46.144C124.928 46.144 125.293 45.9736 125.494 45.6438L125.533 46.0835H125.91V43.1706H125.436V44.9404C125.431 45.3801 125.123 45.7428 124.557 45.7428C124.129 45.7428 123.827 45.5175 123.827 45.0997V43.1706H123.353V45.1162C123.353 45.7098 123.775 46.144 124.512 46.144ZM127.91 46.144C128.406 46.144 128.806 45.9022 129.006 45.523L129.057 46.0835H129.434V41.9614H128.96V43.6048C128.743 43.297 128.361 43.1046 127.904 43.1046C127.093 43.1046 126.534 43.7202 126.534 44.6106C126.534 45.5175 127.099 46.144 127.91 46.144ZM127.984 45.7483C127.419 45.7483 127.025 45.2811 127.025 44.6106C127.025 43.951 127.43 43.4949 128.012 43.4949C128.572 43.4949 128.96 43.9456 128.96 44.5996C128.96 45.2756 128.56 45.7483 127.984 45.7483ZM130.468 42.6814C130.668 42.6814 130.816 42.5331 130.816 42.3407C130.816 42.1483 130.668 42.0054 130.468 42.0054C130.268 42.0054 130.114 42.1483 130.114 42.3407C130.114 42.5331 130.268 42.6814 130.468 42.6814ZM130.702 46.0835V43.1706H130.228V46.0835H130.702ZM133.053 46.0835V45.6988H132.716C132.436 45.6988 132.288 45.5449 132.288 45.2536V43.5553H133.105V43.1706H132.288V42.1758H131.815V43.1706H131.255V43.5553H131.815V45.2536C131.815 45.7923 132.128 46.0835 132.716 46.0835H133.053Z" fill="#BABABA"/>
</g>
<defs>
<clipPath id="clip0_1_1844">
<rect x="24.2726" y="16.4922" width="111.429" height="30" fill="white"/>
</clipPath>
</defs>
</svg>
