<svg width="62" height="50" viewBox="0 0 62 50" fill="none" xmlns="http://www.w3.org/2000/svg">
<g clip-path="url(#clip0_101_441)">
<rect x="0.5" y="0.5" width="61" height="49" rx="15.5" fill="url(#paint0_radial_101_441)" fill-opacity="0.24"/>
<rect x="0.5" y="0.5" width="61" height="49" rx="15.5" stroke="url(#paint1_linear_101_441)"/>
<path d="M33.1455 34.96C33.8175 34.96 34.5135 34.84 35.2575 34.576L35.5455 36.592C34.7775 36.904 33.9375 37.048 33.0015 37.048C30.7935 37.048 28.8255 36.112 27.0975 34.264C26.9295 34.288 26.6895 34.288 26.3775 34.288C23.8575 34.288 21.6735 33.4 19.8735 31.6C18.0735 29.8 17.1855 27.64 17.1855 25.12C17.1855 22.6 18.0735 20.464 19.8735 18.664C21.6735 16.864 23.8575 15.952 26.3775 15.952C28.8975 15.952 31.0575 16.84 32.8575 18.64C34.6575 20.44 35.5455 22.6 35.5455 25.12C35.5455 27.04 35.0175 28.768 33.9375 30.328C32.8575 31.864 31.4655 32.968 29.7375 33.664C30.7695 34.528 31.9215 34.96 33.1455 34.96ZM19.6815 25.168C19.6815 27.112 20.3295 28.72 21.6255 30.016C22.9215 31.312 24.5055 31.96 26.3775 31.96C28.2735 31.96 29.8575 31.312 31.1295 30.016C32.4255 28.72 33.0735 27.112 33.0735 25.168C33.0735 23.224 32.4255 21.592 31.1295 20.272C29.8575 18.952 28.2735 18.304 26.3775 18.304C24.5055 18.304 22.9215 18.952 21.6255 20.272C20.3295 21.592 19.6815 23.224 19.6815 25.168ZM36.7327 20.488L41.7487 16.264H43.6447V34H41.2687V19.456L38.0527 22.144L36.7327 20.488Z" fill="#FDE2AE"/>
</g>
<defs>
<radialGradient id="paint0_radial_101_441" cx="0" cy="0" r="1" gradientUnits="userSpaceOnUse" gradientTransform="translate(1.67749 52.3091) rotate(-43.2295) scale(82.7906 144.278)">
<stop offset="0.0523535" stop-color="#910C32"/>
<stop offset="0.290258" stop-color="#C4194A"/>
<stop offset="0.561868" stop-color="#C82099"/>
<stop offset="0.886227" stop-color="#FFCD84"/>
<stop offset="1" stop-color="#FFCD84"/>
</radialGradient>
<linearGradient id="paint1_linear_101_441" x1="0" y1="25" x2="62" y2="25" gradientUnits="userSpaceOnUse">
<stop stop-color="#FFCE2B"/>
<stop offset="1" stop-color="#E7165F"/>
</linearGradient>
<clipPath id="clip0_101_441">
<rect width="62" height="50" fill="white"/>
</clipPath>
</defs>
</svg>
