<svg width="66" height="50" viewBox="0 0 66 50" fill="none" xmlns="http://www.w3.org/2000/svg">
<rect x="0.5" y="0.5" width="65" height="49" rx="15.5" fill="url(#paint0_radial_101_442)" fill-opacity="0.24"/>
<rect x="0.5" y="0.5" width="65" height="49" rx="15.5" stroke="url(#paint1_linear_101_442)"/>
<path d="M33.3291 34.96C34.0011 34.96 34.6971 34.84 35.4411 34.576L35.7291 36.592C34.9611 36.904 34.1211 37.048 33.1851 37.048C30.9771 37.048 29.0091 36.112 27.2811 34.264C27.1131 34.288 26.8731 34.288 26.5611 34.288C24.0411 34.288 21.8571 33.4 20.0571 31.6C18.2571 29.8 17.3691 27.64 17.3691 25.12C17.3691 22.6 18.2571 20.464 20.0571 18.664C21.8571 16.864 24.0411 15.952 26.5611 15.952C29.0811 15.952 31.2411 16.84 33.0411 18.64C34.8411 20.44 35.7291 22.6 35.7291 25.12C35.7291 27.04 35.2011 28.768 34.1211 30.328C33.0411 31.864 31.6491 32.968 29.9211 33.664C30.9531 34.528 32.1051 34.96 33.3291 34.96ZM19.8651 25.168C19.8651 27.112 20.5131 28.72 21.8091 30.016C23.1051 31.312 24.6891 31.96 26.5611 31.96C28.4571 31.96 30.0411 31.312 31.3131 30.016C32.6091 28.72 33.2571 27.112 33.2571 25.168C33.2571 23.224 32.6091 21.592 31.3131 20.272C30.0411 18.952 28.4571 18.304 26.5611 18.304C24.6891 18.304 23.1051 18.952 21.8091 20.272C20.5131 21.592 19.8651 23.224 19.8651 25.168ZM45.8327 26.344L40.8887 31.792H48.5207V34H37.4567V32.008L43.1447 25.912C45.0647 23.92 45.9767 22.696 45.9767 21.16C45.9767 19.408 44.5847 18.16 42.7607 18.16C41.2967 18.16 39.8567 18.832 38.4647 20.176L37.1447 18.472C38.8487 16.792 40.7447 15.952 42.8087 15.952C44.4167 15.952 45.7367 16.432 46.7687 17.416C47.8007 18.4 48.3047 19.672 48.3047 21.28C48.3047 22.84 47.4887 24.52 45.8327 26.344Z" fill="#FDE2AE"/>
<defs>
<radialGradient id="paint0_radial_101_442" cx="0" cy="0" r="1" gradientUnits="userSpaceOnUse" gradientTransform="translate(1.78571 52.3091) rotate(-41.4465) scale(85.6677 148.428)">
<stop offset="0.0523535" stop-color="#910C32"/>
<stop offset="0.290258" stop-color="#C4194A"/>
<stop offset="0.561868" stop-color="#C82099"/>
<stop offset="0.886227" stop-color="#FFCD84"/>
<stop offset="1" stop-color="#FFCD84"/>
</radialGradient>
<linearGradient id="paint1_linear_101_442" x1="0" y1="25" x2="66" y2="25" gradientUnits="userSpaceOnUse">
<stop stop-color="#FFCE2B"/>
<stop offset="1" stop-color="#E7165F"/>
</linearGradient>
</defs>
</svg>
