<svg width="93" height="50" viewBox="0 0 93 50" fill="none" xmlns="http://www.w3.org/2000/svg">
<rect x="0.5" y="0.5" width="92" height="49" rx="15.5" fill="url(#paint0_radial_101_447)" fill-opacity="0.24"/>
<rect x="0.5" y="0.5" width="92" height="49" rx="15.5" stroke="url(#paint1_linear_101_447)"/>
<path d="M33.5166 34.96C34.1886 34.96 34.8846 34.84 35.6286 34.576L35.9166 36.592C35.1486 36.904 34.3086 37.048 33.3726 37.048C31.1646 37.048 29.1966 36.112 27.4686 34.264C27.3006 34.288 27.0606 34.288 26.7486 34.288C24.2286 34.288 22.0446 33.4 20.2446 31.6C18.4446 29.8 17.5566 27.64 17.5566 25.12C17.5566 22.6 18.4446 20.464 20.2446 18.664C22.0446 16.864 24.2286 15.952 26.7486 15.952C29.2686 15.952 31.4286 16.84 33.2286 18.64C35.0286 20.44 35.9166 22.6 35.9166 25.12C35.9166 27.04 35.3886 28.768 34.3086 30.328C33.2286 31.864 31.8366 32.968 30.1086 33.664C31.1406 34.528 32.2926 34.96 33.5166 34.96ZM20.0526 25.168C20.0526 27.112 20.7006 28.72 21.9966 30.016C23.2926 31.312 24.8766 31.96 26.7486 31.96C28.6446 31.96 30.2286 31.312 31.5006 30.016C32.7966 28.72 33.4446 27.112 33.4446 25.168C33.4446 23.224 32.7966 21.592 31.5006 20.272C30.2286 18.952 28.6446 18.304 26.7486 18.304C24.8766 18.304 23.2926 18.952 21.9966 20.272C20.7006 21.592 20.0526 23.224 20.0526 25.168ZM42.4911 34.288C40.5951 34.288 38.7711 33.712 37.0431 32.536L38.1231 30.592C39.6831 31.576 41.1471 32.08 42.4671 32.08C44.6751 32.08 46.0671 30.856 46.0671 29.056C46.0671 27.232 44.5551 25.96 42.4191 25.96H40.2351V23.824H42.3951C44.3391 23.824 45.7311 22.648 45.7311 20.944C45.7311 19.216 44.3631 18.16 42.5631 18.16C41.3151 18.16 40.0191 18.688 38.6751 19.72L37.4511 18.04C38.7231 16.768 40.7631 15.952 42.7551 15.952C44.3631 15.952 45.6591 16.408 46.6671 17.296C47.6751 18.184 48.1791 19.312 48.1791 20.632C48.1791 22.552 46.9311 24.112 45.1071 24.688V24.784C47.2431 25.264 48.5631 26.992 48.5631 29.128C48.5631 30.64 47.9871 31.888 46.8591 32.848C45.7311 33.808 44.2911 34.288 42.4911 34.288ZM52.1657 36.952H49.9097L61.2377 14.2H63.4937L52.1657 36.952ZM73.5534 27.448H75.5454V29.536H73.5534V34H71.2494V29.536H62.9934L62.4894 28.096L72.1854 16.264H73.5534V27.448ZM71.2494 20.608L65.6574 27.448H71.2494V20.608Z" fill="#FDE2AE"/>
<defs>
<radialGradient id="paint0_radial_101_447" cx="0" cy="0" r="1" gradientUnits="userSpaceOnUse" gradientTransform="translate(2.51623 52.3091) rotate(-32.0749) scale(106.784 167.79)">
<stop offset="0.0523535" stop-color="#910C32"/>
<stop offset="0.290258" stop-color="#C4194A"/>
<stop offset="0.561868" stop-color="#C82099"/>
<stop offset="0.886227" stop-color="#FFCD84"/>
<stop offset="1" stop-color="#FFCD84"/>
</radialGradient>
<linearGradient id="paint1_linear_101_447" x1="0" y1="25" x2="93" y2="25" gradientUnits="userSpaceOnUse">
<stop stop-color="#FFCE2B"/>
<stop offset="1" stop-color="#E7165F"/>
</linearGradient>
</defs>
</svg>
