<svg width="218" height="63" viewBox="0 0 218 63" fill="none" xmlns="http://www.w3.org/2000/svg">
<path d="M65.7147 38.891C65.652 38.5452 65.3673 38.0071 64.5708 38.0071C63.9754 38.0071 63.5863 38.3866 63.5863 38.8026C63.5863 39.1483 63.8083 39.4213 64.2705 39.5097L65.1506 39.6787C66.297 39.8996 66.9081 40.6431 66.9081 41.527C66.9081 42.4915 66.1012 43.4638 64.6361 43.4638C62.9673 43.4638 62.2309 42.3953 62.1317 41.501L63.2677 41.1995C63.3199 41.8182 63.756 42.3745 64.6439 42.3745C65.302 42.3745 65.665 42.0469 65.665 41.605C65.665 41.2436 65.3908 40.9603 64.9025 40.8615L64.0224 40.6847C63.0196 40.4819 62.3719 39.8372 62.3719 38.891C62.3719 37.7783 63.3747 36.9282 64.5656 36.9282C66.0933 36.9282 66.6783 37.8485 66.822 38.553L65.7199 38.8884L65.7147 38.891ZM68.5638 43.326V37.0608H72.5046V38.2098H69.7886V39.6423H72.2487V40.7289H69.7886V42.1795H72.5046V43.3286H68.5638V43.326ZM73.9645 40.1986C73.9645 38.2021 75.4818 36.9282 77.1688 36.9282C78.8559 36.9282 79.8064 37.9889 80.0545 39.0053L78.9003 39.3667C78.7488 38.7662 78.2604 38.1033 77.1688 38.1033C76.2287 38.1033 75.2337 38.774 75.2337 40.1986C75.2337 41.5322 76.1738 42.2679 77.1871 42.2679C78.2604 42.2679 78.7853 41.5686 78.9551 40.9863L80.0989 41.332C79.8587 42.2965 78.9551 43.4611 77.1871 43.4611C75.4191 43.4611 73.9645 42.1977 73.9645 40.2012V40.1986ZM81.6267 41.1085V37.0608H82.8515V41.0201C82.8515 41.8416 83.3137 42.2757 84.0423 42.2757C84.771 42.2757 85.241 41.8416 85.241 41.0201V37.0608H86.4658V41.1085C86.4658 42.6475 85.3925 43.469 84.0423 43.469C82.6922 43.469 81.6267 42.6475 81.6267 41.1085ZM90.3361 40.9135H89.6963V43.326H88.4637V37.0608H90.9237C92.1485 37.0608 92.9294 37.9005 92.9294 38.9871C92.9294 39.8632 92.4149 40.5261 91.5896 40.7627L92.9398 43.326H91.5714L90.3361 40.9135ZM90.6913 39.8606C91.3128 39.8606 91.6758 39.5071 91.6758 38.9949C91.6758 38.4828 91.3128 38.1189 90.6913 38.1189H89.6963V39.8606H90.6913ZM94.6347 43.326V37.0608H98.5755V38.2098H95.8595V39.6423H98.3195V40.7289H95.8595V42.1795H98.5755V43.3286H94.6347V43.326ZM100.422 43.326V37.0608H102.676C104.47 37.0608 105.783 38.2177 105.783 40.1986C105.783 42.1795 104.462 43.3286 102.668 43.3286H100.422V43.326ZM102.623 42.1951C103.652 42.1951 104.514 41.5582 104.514 40.1986C104.514 38.839 103.663 38.1917 102.631 38.1917H101.647V42.1951H102.623ZM117.329 37.0608H118.58L116.84 43.326H115.579L114.14 38.8624L112.701 43.326H111.422L109.672 37.0608H110.967L112.121 41.3736L113.516 37.0608H114.785L116.188 41.3918L117.324 37.0608H117.329ZM120.029 43.326V37.0608H121.272V43.326H120.029ZM125.976 38.2177V43.326H124.743V38.2177H122.753V37.0608H127.966V38.2177H125.976ZM133.418 43.326V40.7263H130.676V43.326H129.452V37.0608H130.676V39.5799H133.418V37.0608H134.654V43.326H133.418ZM139.153 40.1986C139.153 38.2021 140.671 36.9282 142.358 36.9282C144.045 36.9282 144.995 37.9889 145.243 39.0053L144.089 39.3667C143.938 38.7662 143.449 38.1033 142.358 38.1033C141.418 38.1033 140.423 38.774 140.423 40.1986C140.423 41.5322 141.363 42.2679 142.376 42.2679C143.449 42.2679 143.974 41.5686 144.144 40.9863L145.288 41.332C145.048 42.2965 144.144 43.4611 142.376 43.4611C140.608 43.4611 139.153 42.1977 139.153 40.2012V40.1986ZM150.9 43.326V40.7263H148.158V43.326H146.933V37.0608H148.158V39.5799H150.9V37.0608H152.135V43.326H150.9ZM157.941 41.8936H155.384L154.859 43.326H153.564L155.979 37.0608H157.4L159.797 43.326H158.466L157.941 41.8936ZM155.791 40.7809H157.531L156.661 38.4126L155.791 40.7809ZM161.226 43.326V37.0608H162.469V43.326H161.226ZM168.614 43.326L165.754 38.8806V43.326H164.53V37.0608H166.057L168.677 41.2047V37.0608H169.901V43.326H168.614ZM171.962 43.326V37.0608H173.187V42.1613H175.991V43.3286H171.962V43.326ZM177.556 43.326V37.0608H178.799V43.326H177.556ZM184.944 43.326L182.084 38.8806V43.326H180.859V37.0608H182.387L185.006 41.2047V37.0608H186.231V43.326H184.944ZM190.297 40.7289L189.517 41.5868V43.3286H188.292V37.0634H189.517V39.8996L192.039 37.0634H193.645L191.151 39.793L193.664 43.3286H192.128L190.3 40.7289H190.297Z" fill="#C9C9C9"/>
<path d="M65.2137 26.0822H64.1613V30.0571H62.1295V19.7364H66.18C68.1987 19.7364 69.4862 21.1195 69.4862 22.9106C69.4862 24.3508 68.6374 25.4427 67.2768 25.8378L69.4992 30.0597H67.2481L65.2163 26.0848L65.2137 26.0822ZM65.7987 24.3508C66.8224 24.3508 67.4231 23.7685 67.4231 22.9236C67.4231 22.0787 66.8224 21.4834 65.7987 21.4834H64.1613V24.3508H65.7987ZM72.4241 25.9366L74.1948 25.674C74.6048 25.6169 74.7353 25.4115 74.7353 25.1645C74.7353 24.655 74.341 24.2338 73.521 24.2338C72.701 24.2338 72.2048 24.772 72.1473 25.3985L70.4211 25.0345C70.5386 23.9141 71.5754 22.6766 73.5079 22.6766C75.7904 22.6766 76.6365 23.9583 76.6365 25.3985V28.921C76.6365 29.3006 76.6809 29.8101 76.7253 30.0571H74.9417C74.8973 29.8673 74.8685 29.4747 74.8685 29.1992C74.5029 29.7659 73.8161 30.2624 72.748 30.2624C71.2124 30.2624 70.2775 29.2278 70.2775 28.1073C70.2775 26.8257 71.2281 26.1134 72.4268 25.9392L72.4241 25.9366ZM74.7353 27.1584V26.8387L73.111 27.0857C72.6148 27.1584 72.2178 27.434 72.2178 27.9877C72.2178 28.4089 72.526 28.817 73.1528 28.817C73.9728 28.817 74.7327 28.4245 74.7327 27.1584H74.7353ZM80.2483 30.0571H78.3027V22.895H80.1882V23.7841C80.6269 23.0406 81.4887 22.7078 82.2644 22.7078C84.048 22.7078 84.8681 23.9739 84.8681 25.5467V30.0597H82.9225V25.882C82.9225 25.0813 82.5281 24.4548 81.5906 24.4548C80.7418 24.4548 80.2457 25.1099 80.2457 25.9392V30.0597L80.2483 30.0571ZM93.4103 28.7624C93.4103 29.2434 93.4391 29.7659 93.4678 30.0571H91.611C91.5823 29.9115 91.5379 29.5631 91.5379 29.2278C91.2167 29.7945 90.4854 30.2312 89.5192 30.2312C87.4717 30.2312 86.0093 28.6299 86.0093 26.4617C86.0093 24.2936 87.4273 22.7208 89.4617 22.7208C90.7048 22.7208 91.2898 23.2304 91.4935 23.6099V19.5181H93.4103V28.7624ZM89.7542 28.4999C90.7492 28.4999 91.5248 27.7434 91.5248 26.4461C91.5248 25.1489 90.7492 24.4522 89.7542 24.4522C88.7592 24.4522 87.9705 25.1801 87.9705 26.4617C87.9705 27.7434 88.7305 28.4999 89.7542 28.4999ZM102.227 26.4747C102.227 28.674 100.602 30.2754 98.4532 30.2754C96.3039 30.2754 94.6795 28.674 94.6795 26.4747C94.6795 24.2754 96.3039 22.674 98.4532 22.674C100.602 22.674 102.227 24.2598 102.227 26.4747ZM100.281 26.4747C100.281 25.1203 99.4038 24.4366 98.4532 24.4366C97.5026 24.4366 96.6251 25.1203 96.6251 26.4747C96.6251 27.8292 97.5026 28.5129 98.4532 28.5129C99.4038 28.5129 100.281 27.8292 100.281 26.4747ZM103.473 30.0571V22.895H105.329V23.7685C105.724 23.0692 106.646 22.6922 107.434 22.6922C108.414 22.6922 109.205 23.1134 109.57 23.8855C110.14 23.012 110.902 22.6922 111.853 22.6922C113.185 22.6922 114.457 23.4929 114.457 25.4141V30.0571H112.571V25.8066C112.571 25.0345 112.19 24.4522 111.299 24.4522C110.466 24.4522 109.967 25.0917 109.967 25.8638V30.0571H108.037V25.8066C108.037 25.0345 107.643 24.4522 106.766 24.4522C105.888 24.4522 105.421 25.0787 105.421 25.8638V30.0571H103.475H103.473ZM118.081 30.0571H116.136V22.895H118.021V23.7841C118.46 23.0406 119.322 22.7078 120.098 22.7078C121.881 22.7078 122.701 23.9739 122.701 25.5467V30.0597H120.756V25.882C120.756 25.0813 120.361 24.4548 119.424 24.4548C118.575 24.4548 118.079 25.1099 118.079 25.9392V30.0597L118.081 30.0571ZM130.833 28.0033C130.468 29.2408 129.327 30.2754 127.559 30.2754C125.584 30.2754 123.845 28.8638 123.845 26.4461C123.845 24.161 125.543 22.6766 127.384 22.6766C129.606 22.6766 130.938 24.0883 130.938 26.389C130.938 26.6645 130.909 26.9557 130.909 26.9869H125.762C125.806 27.9331 126.611 28.6169 127.577 28.6169C128.483 28.6169 128.982 28.1645 129.214 27.525L130.839 28.0059L130.833 28.0033ZM129.021 25.6584C128.992 24.9461 128.525 24.2468 127.412 24.2468C126.404 24.2468 125.848 25.0033 125.804 25.6584H129.021ZM133.231 27.6992C133.275 28.2659 133.698 28.791 134.547 28.791C135.19 28.791 135.498 28.4557 135.498 28.0787C135.498 27.759 135.278 27.4964 134.722 27.3794L133.771 27.161C132.382 26.8543 131.753 26.025 131.753 25.0215C131.753 23.7399 132.894 22.6766 134.443 22.6766C136.49 22.6766 137.177 23.9713 137.266 24.7434L135.641 25.1073C135.584 24.6862 135.276 24.1454 134.456 24.1454C133.944 24.1454 133.534 24.4522 133.534 24.8578C133.534 25.2061 133.798 25.4245 134.192 25.4973L135.216 25.7156C136.634 26.0068 137.352 26.8647 137.352 27.9149C137.352 29.0796 136.446 30.2728 134.558 30.2728C132.393 30.2728 131.648 28.8742 131.559 28.0605L133.226 27.6966L133.231 27.6992ZM139.681 27.6992C139.726 28.2659 140.149 28.791 140.998 28.791C141.64 28.791 141.948 28.4557 141.948 28.0787C141.948 27.759 141.729 27.4964 141.173 27.3794L140.222 27.161C138.833 26.8543 138.203 26.025 138.203 25.0215C138.203 23.7399 139.344 22.6766 140.893 22.6766C142.941 22.6766 143.627 23.9713 143.716 24.7434L142.094 25.1073C142.037 24.6862 141.729 24.1454 140.909 24.1454C140.397 24.1454 139.987 24.4522 139.987 24.8578C139.987 25.2061 140.251 25.4245 140.645 25.4973L141.669 25.7156C143.087 26.0068 143.805 26.8647 143.805 27.9149C143.805 29.0796 142.899 30.2728 141.011 30.2728C138.846 30.2728 138.101 28.8742 138.013 28.0605L139.679 27.6966L139.681 27.6992Z" fill="#DADADA"/>
<path d="M37.7588 16.4922L24.7012 23.9922V38.9922L37.7588 46.4922L50.8164 38.9922V23.9922L37.7588 16.4922ZM45.2826 35.8128L37.7588 40.1334L30.235 35.8128V27.169L37.7588 22.8483L45.2826 27.169V35.8128Z" fill="#375BD2"/>
</svg>
